<svg width="1193" height="783" viewBox="0 0 1193 783" fill="none" xmlns="http://www.w3.org/2000/svg">
<g clip-path="url(#clip0)">
<path opacity="0.1" d="M396.623 782.56C454.721 782.56 501.819 775.551 501.819 766.905C501.819 758.259 454.721 751.249 396.623 751.249C338.525 751.249 291.427 758.259 291.427 766.905C291.427 775.551 338.525 782.56 396.623 782.56Z" fill="#49B8AF"/>
<path opacity="0.1" d="M968.454 783C1040.95 783 1099.72 775.991 1099.72 767.345C1099.72 758.699 1040.95 751.69 968.454 751.69C895.957 751.69 837.186 758.699 837.186 767.345C837.186 775.991 895.957 783 968.454 783Z" fill="#49B8AF"/>
<path opacity="0.1" d="M14.9416 338.312H124.51V476.688H22.9631C22.6932 478.109 22.4341 479.539 22.1534 480.97H124.51V592.567C124.327 592.517 124.165 592.457 123.992 592.397C121.099 591.336 118.227 590.216 115.355 589.016L113.52 588.245C110.641 586.985 107.762 585.651 104.883 584.244C103.879 583.754 102.875 583.244 101.882 582.723C85.8992 574.428 71.3799 563.916 58.8273 551.553C58.4603 551.223 58.1148 550.873 57.7477 550.553C55.9988 548.792 54.2822 547.012 52.6196 545.191L50.7843 543.19C48.8195 540.96 46.9194 538.669 45.0732 536.348C44.8033 536.008 44.5442 535.668 44.2635 535.348C36.7554 525.702 30.5213 515.257 25.6944 504.237C25.5433 503.907 25.4138 503.547 25.2734 503.237C23.7908 499.703 22.4772 496.135 21.3329 492.533C20.8363 491.023 20.3612 489.532 19.951 487.962C19.7998 487.502 19.6703 487.052 19.5515 486.602C13.4194 464.424 12.6961 441.387 12.6961 418.509C12.6961 415.838 12.6961 413.157 12.6961 410.506C12.6961 401.253 12.8148 391.94 12.9876 382.637C12.9876 380.226 13.0955 377.825 13.1495 375.405C13.3006 369.263 13.5166 363.12 13.7973 356.978C13.862 355.268 13.9484 353.567 14.0456 351.867C14.0456 350.886 14.0996 349.906 14.2075 348.926C14.4666 345.365 14.6825 341.833 14.9416 338.312Z" fill="#49B8AF"/>
<path opacity="0.1" d="M124.51 184.241H64.4089C74.1787 170.072 84.8533 156.457 96.3758 143.468C105.304 133.304 114.729 123.401 124.51 113.858V184.241Z" fill="#49B8AF"/>
<path opacity="0.1" d="M124.51 188.523V334.031H15.2871C15.2871 333.611 15.3627 333.181 15.3951 332.76C15.4922 331.61 15.5894 330.46 15.6974 329.319C15.8161 327.979 15.9457 326.628 16.086 325.318C16.2264 324.008 16.3775 322.407 16.5394 320.957C16.7014 319.506 16.8525 318.036 17.0361 316.585C17.2196 315.135 17.3815 313.684 17.5759 312.244C17.7702 310.803 17.9429 309.343 18.148 307.902C18.31 306.702 18.4827 305.511 18.6555 304.311C18.9038 302.62 19.1629 300.92 19.4436 299.239C19.4436 298.989 19.5191 298.729 19.5623 298.489C21.5328 286.187 24.2177 273.992 27.6053 261.957C31.1514 249.333 35.6795 236.963 41.1543 224.945C46.973 212.372 53.7858 200.215 61.5371 188.573L124.51 188.523Z" fill="#49B8AF"/>
<path opacity="0.1" d="M150.669 338.302V476.688H384.693V338.302H150.669ZM150.669 480.96V599.799C152.008 600.059 153.335 600.309 154.653 600.519C156.445 600.84 158.226 601.13 160.051 601.38C160.396 601.43 160.752 601.48 161.13 601.51C161.843 601.62 162.577 601.71 163.289 601.8C165.092 602.03 166.884 602.22 168.687 602.37C169.54 602.45 170.404 602.52 171.268 602.58L173.351 602.73C174.485 602.81 175.608 602.87 176.72 602.9C177.41 602.9 178.101 602.96 178.814 602.98C179.354 602.98 179.894 602.98 180.455 602.98C181.016 602.98 181.815 602.98 182.495 602.98C183.424 602.98 184.352 602.98 185.27 602.98H186.512C187.44 602.98 188.368 602.98 189.286 602.9H189.351C189.988 602.9 190.636 602.9 191.283 602.82C191.463 602.83 191.643 602.83 191.823 602.82C192.363 602.82 192.903 602.82 193.421 602.75H193.799L197.415 602.49C198.603 602.39 199.801 602.26 201.011 602.14L203.472 601.87C213.486 600.57 223.389 598.618 233.107 596.028C254.936 590.386 276.291 582.493 298.11 576.711C326.32 569.259 357.488 565.598 384.747 574.711V480.96H150.669ZM384.693 184.241V0.0100116C359.072 -0.247197 333.52 2.52953 308.657 8.27276C249.398 22.0673 196.228 51.9873 150.669 90.2V184.231H162.415V188.503H150.669V334.031H384.693V188.513H210.641V184.241H384.693ZM685.286 122.011C670.625 121.53 656.051 117.229 642.869 110.587C617.66 97.8825 597.526 78.266 575.027 61.7105C528.28 27.229 470.306 6.42214 410.831 1.26043V184.241H744.912L745.744 183.431L685.286 122.011ZM715.72 117.009L747.989 149.82V108.406C737.182 109.646 727.714 112.597 715.763 116.969L715.72 117.009ZM747.989 629.309V480.96H679.23C679.046 480.329 678.863 479.689 678.647 479.049C678.852 479.689 679.024 480.329 679.219 480.96H410.874V588.245C413.422 589.996 415.937 591.837 418.431 593.707C421.119 595.708 423.775 597.818 426.442 599.889L429.13 601.95C430.414 602.95 431.71 603.95 433.016 604.891C435.607 606.838 438.224 608.759 440.865 610.653C442.171 611.653 443.51 612.553 444.838 613.494C465.919 628.428 488.158 641.906 511.374 653.817C516.577 656.485 521.828 659.089 527.125 661.63C530.655 663.3 534.207 664.961 537.77 666.571C543.125 668.992 548.523 671.326 553.964 673.574C604.129 694.439 657.175 708.757 711.585 716.118C723.669 717.772 735.801 719.072 747.978 720.019V629.299H749.058L747.989 629.309ZM410.874 188.513V334.031H748.032V188.513H410.874ZM410.874 338.302V476.688H748.032V338.302H410.874ZM774.202 108.226V154.421L815.389 112.547C801.742 110.507 788.014 109.05 774.202 108.176V108.226ZM774.202 338.352V476.688H1102.13V338.302L774.202 338.352ZM1100.93 640.293L1102.09 480.96H774.202V721.61C795.324 722.432 816.479 722.198 837.574 720.909V720.909H837.941C848.018 720.322 858.047 719.469 868.03 718.349H868.257C921.514 712.605 973.59 699.73 1022.86 680.126L1100.93 640.293ZM1165.36 361.09C1164.13 358.399 1162.85 355.728 1161.54 353.087C1159.1 348.086 1156.52 343.224 1153.86 338.362H1128.28V476.688H1192.97C1192.94 437.515 1182.24 397.502 1165.39 361.04L1165.36 361.09ZM1128.28 481.01V618.055C1146.5 601.87 1161.9 583.354 1172.98 562.187C1186.32 536.698 1192.42 509.099 1192.91 480.99L1128.28 481.01ZM1128.28 298.029V334.041H1151.47C1144.45 321.644 1136.72 309.606 1128.31 297.979L1128.28 298.029ZM905.881 135.375C904.175 134.775 902.469 134.165 900.753 133.574C882.649 127.38 864.149 122.228 845.358 118.149L782.331 182.241L781.122 183.431L781.932 184.251H1006.25C975.01 164.325 941.328 147.902 905.913 135.325L905.881 135.375ZM1012.83 188.563H778.801L774.202 192.464V334.031H814.514H814.579H1102.17V265.458C1076.16 236.304 1046.13 210.435 1012.86 188.513L1012.83 188.563Z" fill="#49B8AF"/>
<path opacity="0.1" d="M124.51 261.917V334.031H15.2871C15.2871 333.611 15.3627 333.181 15.3951 332.761C15.4922 331.61 15.5894 330.46 15.6974 329.319C15.8161 327.979 15.9457 326.628 16.086 325.318C16.2264 324.008 16.3775 322.407 16.5394 320.957C16.7014 319.506 16.8525 318.036 17.0361 316.585C17.2196 315.135 17.3815 313.684 17.5759 312.244C17.7702 310.803 17.9429 309.343 18.148 307.902C18.31 306.702 18.4827 305.511 18.6555 304.311C18.9038 302.621 19.1629 300.92 19.4436 299.239C19.4436 298.989 19.5191 298.729 19.5623 298.489C21.5328 286.187 24.2177 273.992 27.6053 261.957L124.51 261.917Z" fill="#49B8AF"/>
<path opacity="0.1" d="M14.9416 338.312H124.51V476.688H22.9631C22.6932 478.109 22.4341 479.539 22.1534 480.97H124.51V592.567C124.327 592.517 124.165 592.457 123.992 592.397C121.099 591.336 118.227 590.216 115.355 589.016L113.52 588.245C110.641 586.985 107.762 585.651 104.883 584.244C103.879 583.754 102.875 583.244 101.882 582.723C85.8992 574.428 71.3799 563.916 58.8273 551.553C58.4603 551.223 58.1148 550.873 57.7477 550.553C55.9988 548.792 54.2822 547.012 52.6196 545.191L50.7843 543.19C48.8195 540.96 46.9194 538.669 45.0732 536.348C44.8033 536.008 44.5442 535.668 44.2635 535.348C36.7554 525.702 30.5213 515.257 25.6944 504.237C25.5433 503.907 25.4138 503.547 25.2734 503.237C23.7908 499.703 22.4772 496.135 21.3329 492.533C20.8363 491.023 20.3612 489.532 19.951 487.962C19.7998 487.502 19.6703 487.052 19.5515 486.602C13.4194 464.424 12.6961 441.387 12.6961 418.509C12.6961 415.838 12.6961 413.157 12.6961 410.506C12.6961 401.253 12.8148 391.94 12.9876 382.637C12.9876 380.226 13.0955 377.825 13.1495 375.405C13.3006 369.263 13.5166 363.12 13.7973 356.978C13.862 355.268 13.9484 353.567 14.0456 351.867C14.0456 350.886 14.0996 349.906 14.2075 348.926C14.4666 345.365 14.6825 341.833 14.9416 338.312Z" fill="#49B8AF"/>
<path opacity="0.1" d="M233.053 209.35V334.031H150.669V209.35H162.415V167.135H210.63V209.35H233.053Z" fill="#49B8AF"/>
<path opacity="0.1" d="M233.053 338.302H150.68V476.678H233.053V338.302Z" fill="#49B8AF"/>
<path opacity="0.1" d="M150.669 480.97H233.053V596.008C223.335 598.595 213.432 600.544 203.418 601.84L200.957 602.12C199.747 602.25 198.549 602.36 197.361 602.47C196.174 602.58 194.943 602.66 193.745 602.73H193.367C192.849 602.73 192.287 602.79 191.78 602.8H191.229C190.582 602.8 189.934 602.86 189.286 602.88C188.368 602.93 187.451 602.94 186.512 602.95C186.112 602.95 185.734 602.95 185.335 602.95C184.406 602.95 183.489 602.95 182.56 602.95H180.52C179.969 602.95 179.44 602.95 178.868 602.95L176.784 602.88C175.705 602.88 174.539 602.77 173.416 602.7L171.343 602.56L168.763 602.34C166.949 602.19 165.146 602 163.365 601.77L161.206 601.49L160.126 601.35C158.323 601.09 156.542 600.809 154.728 600.489C153.4 600.279 152.083 600.019 150.744 599.769L150.669 480.97Z" fill="#49B8AF"/>
<path opacity="0.1" d="M748.033 194.625H680.104V334.021H748.033V194.625Z" fill="#49B8AF"/>
<path opacity="0.1" d="M748.043 338.302V476.688H410.874V416.998H590.465V452.21H680.104V338.302H748.043Z" fill="#49B8AF"/>
<path opacity="0.1" d="M749.112 629.339H748.032V720.119C735.869 719.165 723.741 717.868 711.65 716.228C657.213 708.843 604.145 694.495 553.964 673.594C539.476 667.552 525.282 660.956 511.384 653.807C488.169 641.89 465.927 628.413 444.838 613.484C439.541 609.722 434.312 605.874 429.151 601.94C425.578 599.209 422.026 596.408 418.431 593.687C415.937 591.816 413.422 589.976 410.874 588.215V480.97H679.208C679.025 480.329 678.841 479.689 678.647 479.059C678.852 479.689 679.046 480.329 679.23 480.97H748.032V629.279C748.4 629.289 748.756 629.319 749.112 629.339Z" fill="#49B8AF"/>
<path opacity="0.1" d="M925.195 184.241H880.931V171.497H900.774V133.534C902.494 134.114 904.207 134.711 905.913 135.325V171.497H925.195V184.241Z" fill="#49B8AF"/>
<path opacity="0.1" d="M1031.84 334.031H814.536C814.536 334.031 814.536 334.031 814.611 334.081L814.514 334.031H774.202V194.635H785.624V297.669H837.823V236.649H880.942V188.523H925.205V236.689H968.325V297.709H1031.84V334.031Z" fill="#49B8AF"/>
<path opacity="0.1" d="M774.202 338.302V476.688H1031.84V338.302H774.202ZM1101.77 639.582L1102.13 530.046H1031.84V481.03H774.202V721.61C795.324 722.432 816.479 722.198 837.574 720.909H837.941C848.018 720.323 858.047 719.469 868.03 718.349H868.257C921.514 712.605 973.59 699.73 1022.86 680.126" fill="#49B8AF"/>
<path opacity="0.1" d="M1132.86 480.97H1192.96C1192.43 509.069 1186.34 536.668 1173.02 562.157C1161.93 583.334 1146.52 601.85 1128.32 618.025V529.996H1132.86V480.97Z" fill="#49B8AF"/>
<path opacity="0.1" d="M1192.99 476.688H1132.86V361.04H1165.39C1182.24 397.502 1192.94 437.515 1192.99 476.688Z" fill="#49B8AF"/>
<path opacity="0.1" d="M748.043 233.377H711.65V277.082H748.043V233.377Z" fill="#49B8AF"/>
<path opacity="0.1" d="M748.043 323.968H711.65V334.031H748.043V323.968Z" fill="#49B8AF"/>
<path opacity="0.1" d="M748.043 338.302H711.65V367.662H748.043V338.302Z" fill="#49B8AF"/>
<path opacity="0.1" d="M748.043 414.558H711.65V458.262H748.043V414.558Z" fill="#49B8AF"/>
<path opacity="0.1" d="M748.043 505.148H711.65V548.852H748.043V505.148Z" fill="#49B8AF"/>
<path opacity="0.1" d="M748.032 629.279C748.4 629.279 748.756 629.279 749.112 629.339H748.032V639.492H711.65V595.738H748.032V629.279Z" fill="#49B8AF"/>
<path opacity="0.1" d="M748.033 686.308V720.069C735.869 719.115 723.742 717.818 711.65 716.178V686.308H748.033Z" fill="#49B8AF"/>
<path opacity="0.1" d="M566.843 473.477H410.874V476.688H566.843V473.477Z" fill="#49B8AF"/>
<path opacity="0.1" d="M566.843 480.96H410.874V493.264H566.843V480.96Z" fill="#49B8AF"/>
<path opacity="0.1" d="M566.843 533.597H410.874V553.384H566.843V533.597Z" fill="#49B8AF"/>
<path opacity="0.1" d="M566.833 593.717V613.504H444.838C439.541 609.756 434.308 605.908 429.141 601.96C425.567 599.229 422.026 596.428 418.42 593.717H566.833Z" fill="#49B8AF"/>
<path opacity="0.1" d="M566.833 653.827V673.594H553.953C539.479 667.545 525.29 660.946 511.384 653.797L566.833 653.827Z" fill="#49B8AF"/>
<path opacity="0.1" d="M868.289 351.717H837.585V380.166H868.289V351.717Z" fill="#49B8AF"/>
<path opacity="0.1" d="M203.494 219.163H172.79V247.612H203.494V219.163Z" fill="#49B8AF"/>
<path opacity="0.1" d="M203.494 285.245H172.79V313.694H203.494V285.245Z" fill="#49B8AF"/>
<path opacity="0.1" d="M203.494 351.327H172.79V379.776H203.494V351.327Z" fill="#49B8AF"/>
<path opacity="0.1" d="M203.494 417.399H172.79V445.848H203.494V417.399Z" fill="#49B8AF"/>
<path opacity="0.1" d="M203.494 483.481H172.79V511.93H203.494V483.481Z" fill="#49B8AF"/>
<path opacity="0.1" d="M203.494 549.562H172.79V578.012H203.494V549.562Z" fill="#49B8AF"/>
<path opacity="0.1" d="M985.501 351.717H954.797V380.166H985.501V351.717Z" fill="#49B8AF"/>
<path opacity="0.1" d="M868.289 421.89H837.585V450.34H868.289V421.89Z" fill="#49B8AF"/>
<path opacity="0.1" d="M985.501 421.89H954.797V450.34H985.501V421.89Z" fill="#49B8AF"/>
<path opacity="0.1" d="M868.289 492.053H837.585V520.503H868.289V492.053Z" fill="#49B8AF"/>
<path opacity="0.1" d="M985.501 492.053H954.797V520.503H985.501V492.053Z" fill="#49B8AF"/>
<path opacity="0.1" d="M868.289 562.227H837.585V590.676H868.289V562.227Z" fill="#49B8AF"/>
<path opacity="0.1" d="M985.501 562.227H954.797V590.676H985.501V562.227Z" fill="#49B8AF"/>
<path opacity="0.1" d="M868.289 632.4H837.585V660.849H868.289V632.4Z" fill="#49B8AF"/>
<path opacity="0.1" d="M985.501 632.4H954.797V660.849H985.501V632.4Z" fill="#49B8AF"/>
<path opacity="0.1" d="M837.585 720.909V702.563H868.278V718.299L837.585 720.909Z" fill="#49B8AF"/>
<path opacity="0.1" d="M19.4328 298.469V314.745H124.51V298.469H19.4328ZM29.9049 313.724H21.3329V299.469H29.9697L29.9049 313.724ZM40.3662 313.724H31.7294V299.469H40.3662V313.724ZM50.8059 313.724H42.1691V299.469H50.8059V313.724ZM61.2672 313.724H52.6412V299.469H61.278L61.2672 313.724ZM71.7177 313.724H63.081V299.469H71.7177V313.724ZM82.1791 313.724H73.5423V299.469H82.1791V313.724ZM92.6404 313.724H84.0036V299.469H92.6404V313.724ZM103.091 313.724H94.4541V299.469H103.091V313.724ZM113.541 313.724H104.905V299.469H113.541V313.724ZM123.992 313.724H115.355V299.469H123.992V313.724Z" fill="#49B8AF"/>
<path opacity="0.1" d="M19.4328 345.825V362.1H124.51V345.825H19.4328ZM29.9049 361.07H21.3329V346.855H29.9697L29.9049 361.07ZM40.3662 361.07H31.7294V346.855H40.3662V361.07ZM50.8059 361.07H42.1691V346.855H50.8059V361.07ZM61.2672 361.07H52.6412V346.855H61.278L61.2672 361.07ZM71.7177 361.07H63.081V346.855H71.7177V361.07ZM82.1791 361.07H73.5423V346.855H82.1791V361.07ZM92.6404 361.07H84.0036V346.855H92.6404V361.07ZM103.091 361.07H94.4541V346.855H103.091V361.07ZM113.541 361.07H104.905V346.855H113.541V361.07ZM123.992 361.07H115.355V346.855H123.992V361.07Z" fill="#49B8AF"/>
<path opacity="0.1" d="M19.4328 393.201V409.506H124.51V393.201H19.4328ZM29.9049 408.446H21.3329V394.221H29.9697L29.9049 408.446ZM40.3662 408.446H31.7294V394.221H40.3662V408.446ZM50.8059 408.446H42.1691V394.221H50.8059V408.446ZM61.2672 408.446H52.6412V394.221H61.278L61.2672 408.446ZM71.7177 408.446H63.081V394.221H71.7177V408.446ZM82.1791 408.446H73.5423V394.221H82.1791V408.446ZM92.6404 408.446H84.0036V394.221H92.6404V408.446ZM103.091 408.446H94.4541V394.221H103.091V408.446ZM113.541 408.446H104.905V394.221H113.541V408.446ZM123.992 408.446H115.355V394.221H123.992V408.446Z" fill="#49B8AF"/>
<path opacity="0.1" d="M19.4328 440.576V456.832H124.51V440.576H19.4328ZM29.9049 455.821H21.3329V441.587H29.9697L29.9049 455.821ZM40.3662 455.821H31.7294V441.587H40.3662V455.821ZM50.8059 455.821H42.1691V441.587H50.8059V455.821ZM61.2672 455.821H52.6412V441.587H61.278L61.2672 455.821ZM71.7177 455.821H63.081V441.587H71.7177V455.821ZM82.1791 455.821H73.5423V441.587H82.1791V455.821ZM92.6404 455.821H84.0036V441.587H92.6404V455.821ZM103.091 455.821H94.4541V441.587H103.091V455.821ZM113.541 455.821H104.905V441.587H113.541V455.821ZM123.992 455.821H115.355V441.587H123.992V455.821Z" fill="#49B8AF"/>
<path opacity="0.1" d="M19.8862 487.942C20.3073 489.473 20.7823 491.003 21.2789 492.514V488.962H29.9157V503.187H25.295C25.4354 503.517 25.5757 503.877 25.7161 504.187H124.51V487.942H19.8862ZM40.3986 503.187H31.7618V488.962H40.3986V503.187ZM50.8383 503.187H42.2015V488.962H50.8383V503.187ZM61.2996 503.187H52.6413V488.962H61.278L61.2996 503.187ZM71.7502 503.187H63.1134V488.962H71.7502V503.187ZM82.2115 503.187H73.5747V488.962H82.2115V503.187ZM92.6728 503.187H84.036V488.962H92.6728V503.187ZM103.123 503.187H94.4865V488.962H103.123V503.187ZM113.574 503.187H104.937V488.962H113.574V503.187ZM124.024 503.187H115.388V488.962H124.024V503.187Z" fill="#49B8AF"/>
<path opacity="0.1" d="M44.2852 535.318C44.5551 535.638 44.8142 535.998 45.0949 536.318H50.8059V543.15C51.4213 543.831 52.0259 544.511 52.652 545.151V536.278H61.2888V550.553H57.7909C58.1364 550.883 58.4711 551.233 58.8705 551.553H124.543V535.318H44.2852ZM71.7178 550.553H63.081V536.338H71.7178V550.553ZM82.1791 550.553H73.5423V536.338H82.1791V550.553ZM92.6404 550.553H84.0036V536.338H92.6404V550.553ZM103.091 550.553H94.4541V536.338H103.091V550.553ZM113.541 550.553H104.905V536.338H113.541V550.553ZM123.992 550.553H115.355V536.338H123.992V550.553Z" fill="#49B8AF"/>
<path opacity="0.1" d="M101.925 582.683C102.907 583.204 103.911 583.684 104.926 584.204V583.704H113.563V588.205L115.398 588.996V583.704H124.035V592.357C124.201 592.433 124.374 592.493 124.553 592.537V582.683H101.925Z" fill="#49B8AF"/>
<path opacity="0.1" d="M814.536 334.031H814.601H814.536ZM748.033 629.269H749.112H748.033ZM678.647 479.049C678.852 479.689 679.025 480.33 679.219 480.96C679.046 480.33 678.863 479.689 678.647 479.049ZM814.536 334.001H814.601H814.536ZM162.458 184.211V188.483H210.684V184.211H162.458ZM748.033 629.269H749.112H748.033ZM678.647 479.049C678.852 479.689 679.025 480.33 679.219 480.96C679.046 480.33 678.863 479.689 678.647 479.049ZM814.536 334.001H814.601H814.536ZM748.033 629.239H749.112H748.033ZM678.647 479.049C678.852 479.689 679.025 480.33 679.219 480.96C679.046 480.33 678.863 479.689 678.647 479.049Z" fill="#49B8AF"/>
<path d="M498.343 379.796C498.343 379.796 494.089 379.246 494.089 373.504C494.089 367.762 491.045 357.039 491.045 357.039C491.045 356.989 488.411 338.362 484.772 335.401C481.134 332.44 476.459 315.055 476.459 315.055C476.459 315.055 475.66 305.622 474.03 303.591C472.4 301.56 470.198 296.589 466.948 289.496C463.699 282.404 450.15 277.492 450.15 277.492C450.15 277.492 425.653 264.328 418.712 260.036C418.081 259.684 417.491 259.271 416.952 258.806C415.743 257.335 410.474 257.305 410.474 257.305C409.924 254.084 409.395 250.383 409.222 247.032C409.222 246.672 409.222 246.312 409.168 245.952C416.909 241.712 422.739 235.028 425.589 227.125C425.718 226.745 425.826 226.345 425.945 225.965C426.409 225.823 426.836 225.594 427.198 225.291C427.561 224.987 427.851 224.618 428.05 224.204C428.676 222.914 428.687 221.404 429.464 220.203C430.371 218.783 432.099 218.022 433.459 216.952C436.892 214.251 437.777 209.7 437.615 205.558C437.507 202.207 436.924 198.826 437.151 195.495L437.216 194.655C437.281 194.154 437.356 193.654 437.453 193.174C437.982 190.693 439.138 188.353 439.785 185.892C440.433 183.431 440.498 180.66 438.986 178.539C436.773 175.428 432.163 174.808 428.115 174.488C423.527 174.128 419.424 174.598 416.488 171.067C415.113 169.221 413.567 167.491 411.867 165.895C411.262 165.375 405.389 162.054 405.389 161.834C399.657 159.374 393.16 158.912 387.09 160.533C384.046 161.354 381.174 162.694 378.086 163.364C371.425 164.825 363.76 163.244 358.103 166.775C354.951 168.776 353.061 171.957 351.291 175.058C349.851 177.612 348.39 180.163 346.908 182.711C344.522 186.902 342.092 191.163 341.088 195.805C340.877 196.815 340.747 197.838 340.7 198.866V198.916C340.7 199.286 340.7 199.656 340.7 200.026V200.497C340.7 200.847 340.7 201.187 340.765 201.497C340.829 201.807 340.819 201.907 340.851 202.117C340.883 202.327 340.937 202.797 341.002 203.117C341.067 203.438 341.196 203.998 341.326 204.438C341.38 204.628 341.456 204.808 341.52 204.988C341.628 205.328 341.758 205.658 341.898 205.988C341.974 206.158 342.049 206.339 342.136 206.509C342.298 206.859 342.492 207.199 342.686 207.509C342.773 207.649 342.837 207.779 342.924 207.909C343.225 208.374 343.557 208.822 343.917 209.25C346.227 211.92 349.628 213.621 352.144 216.122C352.144 216.222 352.144 216.322 352.144 216.412C352.144 216.692 352.144 216.962 352.144 217.242C352.277 222.82 353.879 228.282 356.811 233.155C359.742 238.028 363.914 242.163 368.964 245.201C368.964 245.582 369.018 245.972 369.039 246.352C369.25 249.321 369.21 252.301 368.921 255.265C368.481 254.785 367.931 254.403 367.31 254.147C366.69 253.89 366.015 253.767 365.336 253.784C364.872 253.763 364.408 253.8 363.954 253.894L363.857 253.824V253.914C361.482 254.455 358.556 256.745 355.76 263.257C355.76 263.257 347.253 272.14 340.775 271.77C334.298 271.4 317.899 281.013 317.899 281.013C317.899 281.013 301.899 290.637 298.466 300.44C296.547 305.999 294.246 311.438 291.578 316.725L271.8 354.488L268.151 384.448C268.151 384.448 270.17 397.772 269.77 399.803C269.371 401.833 278.072 420.15 278.072 420.15C278.072 420.15 306.822 466.955 318.568 469.356L319.41 468.806C319.913 469.049 320.446 469.234 320.997 469.356L323.415 467.775C323.561 469.537 323.499 471.308 323.232 473.057C321.613 477.679 323.836 507.839 326.665 513.751C329.494 519.663 328.49 597.178 328.49 597.178L328.09 604.021C328.09 604.021 328.09 604.241 328.187 604.621L328.09 606.241L328.382 606.381C328.684 608.552 328.586 610.754 328.09 612.894C327.075 615.895 326.665 624.377 326.665 624.377C326.665 624.377 318.579 672.273 322.411 681.896C326.244 691.52 329.504 702.063 329.504 702.063C329.504 702.063 333.553 714.067 329.699 716.118C325.845 718.169 314.887 721.61 317.143 726.611C319.194 731.233 326.978 743.617 328.133 745.428L328.036 746.378L326.449 762.313C326.706 764.417 327.322 766.47 328.274 768.395C330.012 771.866 333.391 775.468 339.815 775.077C340.894 775.007 342.146 774.887 343.356 774.737C355.112 773.277 369.59 768.415 369.59 768.415C368.838 767.973 368.149 767.445 367.539 766.845C366.961 766.326 366.503 765.704 366.193 765.016C365.883 764.328 365.727 763.589 365.736 762.843C365.908 759.942 360.046 746.118 358.589 742.717C358.362 742.226 358.243 741.946 358.243 741.946C358.243 741.946 371.609 729.002 369.385 717.528C369.385 717.528 354.594 709.526 359.463 705.134C364.332 700.743 373.034 688.129 373.034 688.129C373.034 688.129 373.433 640.963 373.034 633.921C372.617 629.033 372.867 624.116 373.779 619.286C373.941 618.555 374.135 617.845 374.34 617.145C381.074 618.076 387.872 618.554 394.68 618.575C397.163 618.575 399.689 618.575 402.237 618.435C402.237 619.102 402.269 619.822 402.334 620.596C402.896 632.28 403.943 652.767 404.796 660.379C406.005 671.293 412.687 700.703 412.687 700.703C412.687 700.703 399.937 708.285 414.911 726.971C414.911 726.971 414.911 733.744 413.918 734.724C412.858 737.929 412.003 741.189 411.36 744.487C410.733 748.008 410.474 751.57 411.489 753.42C413.918 757.842 428.493 757.482 428.493 757.482L428.849 757.422C431.601 757.158 434.381 757.403 437.03 758.143C439.678 758.884 442.141 760.104 444.277 761.733C449.815 765.854 470.835 764.044 482.214 762.733C486.672 762.213 489.652 761.733 489.652 761.733C489.797 761.265 489.848 760.777 489.803 760.292C489.684 757.702 487.493 752.02 472.638 746.948C472.638 746.948 458.668 738.245 458.862 730.663H458.57H456.951C458.128 730.603 458.884 730.663 458.884 730.663C458.884 730.663 453.41 712.156 455.645 710.656C457.88 709.155 451.186 688.649 451.186 688.649C451.186 688.649 447.353 654.237 447.148 651.826C447.157 649.758 447.495 647.702 448.152 645.724L447.148 626.858C447.148 626.858 446.954 620.586 447.148 618.545C447.116 616.774 446.96 615.007 446.684 613.254C446.587 612.553 446.49 611.823 446.382 611.103C451.618 609.873 455.019 608.732 455.019 608.732L454.414 543.06C458.862 535.058 459.682 517.502 459.661 505.048C459.661 497.045 459.272 491.123 459.272 491.123L465.35 481.93C465.35 481.93 466.754 470.926 464.53 468.516C463.547 467.425 463.99 466.295 464.8 465.365C465.22 465.056 465.664 464.775 466.128 464.524C466.128 464.524 466.063 464.434 465.987 464.304C466.412 463.976 466.863 463.678 467.337 463.414C467.337 463.414 465.178 460.313 467.11 459.002C468.924 460.143 470.543 461.003 471.774 461.703C471.688 462.434 471.601 462.854 471.601 462.854L472.119 461.853C473.307 462.474 474.03 462.854 474.03 462.854C474.03 462.854 483.552 445.278 483.347 442.687C483.142 440.096 489.825 429.183 489.825 429.183C489.825 429.183 490.635 423.451 494.284 421.05C497.933 418.649 497.112 401.253 497.112 401.253C497.112 401.253 498.127 392.19 500.556 388.489C502.985 384.788 498.343 379.796 498.343 379.796ZM316.15 372.084L316.333 376.275C315.254 374.664 314.476 373.504 314.476 373.504L316.15 372.084Z" fill="url(#paint0_linear)"/>
<path d="M474.548 455.261L472.217 464.464C472.217 464.464 453.539 455.631 450.171 444.408C446.803 433.184 455.807 428.922 455.807 428.922L473.21 435.755L474.548 455.261Z" fill="white"/>
<path opacity="0.1" d="M474.548 455.261L472.217 464.464C472.217 464.464 453.539 455.631 450.171 444.408C446.803 433.184 455.807 428.922 455.807 428.922L473.21 435.755L474.548 455.261Z" fill="black"/>
<path d="M369.73 768.475C369.73 768.475 352.457 774.357 340.581 775.097C334.276 775.487 330.962 771.906 329.256 768.455C328.324 766.537 327.723 764.494 327.475 762.403L329.019 746.548L329.839 738.105L355.069 732.033L358.643 742.156L358.977 742.927C360.413 746.308 366.168 760.062 365.995 762.933C365.988 763.668 366.141 764.397 366.445 765.076C366.749 765.755 367.198 766.37 367.765 766.885C368.345 767.49 369.005 768.025 369.73 768.475Z" fill="white"/>
<path d="M487.72 760.413C487.763 760.894 487.712 761.379 487.568 761.843C487.568 761.843 450.625 767.555 443.067 761.843C440.937 760.174 438.453 758.937 435.776 758.21C433.099 757.483 430.287 757.282 427.521 757.622C427.521 757.622 413.227 757.982 410.841 753.62C409.848 751.79 410.107 748.238 410.723 744.737C411.35 741.457 412.187 738.213 413.227 735.024L413.799 734.604L417.2 732.073L457.016 730.983H457.318C457.124 738.525 470.835 747.178 470.835 747.178C485.398 752.18 487.547 757.832 487.72 760.413Z" fill="white"/>
<path opacity="0.1" d="M487.72 760.413C487.757 760.894 487.703 761.379 487.558 761.843C487.558 761.843 450.625 767.555 443.067 761.843C440.938 760.176 438.456 758.939 435.781 758.212C433.106 757.485 430.296 757.284 427.532 757.622C427.532 757.622 413.227 757.982 410.852 753.62C409.859 751.78 410.107 748.238 410.723 744.737C416.229 745.247 424.919 746.518 428.331 749.549C433.491 754.16 442.236 758.762 447.602 759.122C451.801 759.372 476.924 760.112 487.72 760.413Z" fill="black"/>
<path opacity="0.1" d="M369.73 768.475C369.73 768.475 352.457 774.357 340.581 775.097C334.276 775.487 330.962 771.906 329.267 768.445C333.661 769.816 339.761 771.256 342.967 769.936C346.767 768.375 360.241 767.365 367.798 766.935C368.373 767.518 369.022 768.035 369.73 768.475Z" fill="black"/>
<path d="M395.36 294.468C381.109 289.336 362.778 272.38 367.355 264.458C368.372 262.459 368.976 260.301 369.136 258.096C369.431 255.102 369.474 252.092 369.266 249.093C368.945 244.18 368.307 239.29 367.355 234.448C367.355 234.448 411.845 235.378 409.254 241.45C408.499 243.231 408.38 246.322 408.585 249.783C408.79 253.244 409.33 257.155 409.891 260.467C410.669 265.008 411.446 268.469 411.446 268.469C411.446 268.469 408.725 272 407.128 272.19C405.53 272.38 415.808 301.78 395.36 294.468Z" fill="#CF6F80"/>
<path opacity="0.1" d="M358.945 742.927L358.61 743.267C345.31 728.362 329.224 746.938 329.224 746.938L328.986 746.548L329.807 738.105L355.037 732.033L358.61 742.156L358.945 742.927Z" fill="black"/>
<path opacity="0.1" d="M457.329 732.033C457.329 732.033 447.613 731.843 442.43 736.084C437.248 740.326 412.202 737.005 413.281 736.084C413.601 735.628 413.794 735.106 413.843 734.564L417.243 732.033L457.059 730.943C457.21 731.613 457.329 732.033 457.329 732.033Z" fill="black"/>
<path d="M375.495 614.984C374.772 616.642 374.222 618.36 373.854 620.116C372.954 624.923 372.704 629.816 373.109 634.681C373.509 641.683 373.109 688.609 373.109 688.609C373.109 688.609 364.57 701.123 359.809 705.534C355.048 709.946 369.525 717.868 369.525 717.868C371.684 729.272 358.6 742.156 358.6 742.156C345.299 727.251 329.213 745.838 329.213 745.838C329.213 745.838 320.468 731.833 318.287 726.831C316.107 721.83 326.827 718.369 330.595 716.338C334.363 714.307 330.411 702.333 330.411 702.333C330.411 702.333 327.226 691.84 323.448 682.267C319.669 672.693 327.615 625.038 327.615 625.038C327.615 625.038 328.025 616.575 329.008 613.624C329.503 611.494 329.602 609.302 329.299 607.142C329.235 606.411 329.159 605.801 329.105 605.391C329.051 604.981 329.008 604.791 329.008 604.791L329.159 604.551L334.557 595.228C334.557 595.228 378.086 609.112 375.495 614.984Z" fill="#49B8AF"/>
<path d="M457.329 730.933C457.329 730.933 447.612 730.743 442.43 734.934C437.248 739.125 412.202 735.854 413.281 734.934C414.361 734.014 414.275 727.202 414.275 727.202C399.581 708.615 412.115 701.073 412.115 701.073C412.115 701.073 405.551 671.813 404.364 660.959C403.533 653.377 402.507 633 401.956 621.366C401.719 616.365 401.578 612.923 401.578 612.923L413.584 610.683L415.127 610.393L444.082 605.011C444.082 605.011 444.881 610.013 445.421 614.104C445.69 615.851 445.841 617.611 445.874 619.376C445.68 621.376 445.874 627.638 445.874 627.638L446.857 646.415C446.215 648.384 445.884 650.429 445.874 652.487C446.069 654.877 449.836 689.109 449.836 689.109C449.836 689.109 456.39 709.536 454.155 711.006C451.92 712.477 457.329 730.933 457.329 730.933Z" fill="#49B8AF"/>
<path opacity="0.1" d="M409.254 241.45C408.499 243.231 408.38 246.322 408.585 249.783C402.626 253.108 395.775 254.808 388.82 254.688C381.865 254.567 375.087 252.632 369.266 249.103C368.945 244.187 368.307 239.293 367.355 234.448C367.355 234.448 411.845 235.358 409.254 241.45Z" fill="black"/>
<path d="M426.452 219.343C426.461 222.948 425.849 226.53 424.639 229.956C421.934 237.633 416.387 244.176 408.98 248.429C401.572 252.683 392.78 254.373 384.157 253.201C375.535 252.029 367.637 248.07 361.86 242.025C356.082 235.979 352.798 228.236 352.586 220.163C352.586 219.883 352.586 219.623 352.586 219.343C352.502 214.799 353.396 210.285 355.215 206.065C357.033 201.844 359.741 198.001 363.179 194.76C366.617 191.519 370.718 188.945 375.241 187.188C379.764 185.431 384.62 184.526 389.525 184.526C394.429 184.526 399.285 185.431 403.808 187.188C408.332 188.945 412.432 191.519 415.87 194.76C419.309 198.001 422.016 201.844 423.835 206.065C425.654 210.285 426.547 214.799 426.463 219.343H426.452Z" fill="#CF6F80"/>
<path opacity="0.1" d="M395.36 294.468C381.109 289.336 362.778 272.38 367.355 264.458C368.372 262.459 368.976 260.301 369.136 258.096L388.645 272.951L400.715 282.124L409.891 260.476C410.669 265.018 411.446 268.479 411.446 268.479C411.446 268.479 408.725 272.01 407.128 272.2C405.53 272.39 415.808 301.78 395.36 294.468Z" fill="black"/>
<path d="M445.81 360.12L429.518 613.704L408.272 614.994L353.255 467.955L362.281 293.387L364.181 256.505L388.645 275.121L400.725 284.294L410.172 262.017L427.737 276.202L445.81 360.12Z" fill="#49B8AF"/>
<path opacity="0.1" d="M375.495 614.984C374.772 616.642 374.222 618.36 373.854 620.116C358.394 617.904 343.379 613.558 329.31 607.222L329.019 607.082L329.116 605.471L329.17 604.631L334.568 595.308C334.568 595.308 378.086 609.112 375.495 614.984Z" fill="black"/>
<path opacity="0.1" d="M413.832 620.156C409.88 620.779 405.894 621.199 401.892 621.416C401.654 616.415 401.514 612.974 401.514 612.974L413.519 610.733L413.832 620.156Z" fill="black"/>
<path opacity="0.1" d="M445.356 614.154C437.68 616.005 425.826 618.085 415.214 616.785L415.063 610.443L444.017 605.061C444.017 605.061 444.816 610.013 445.356 614.154Z" fill="black"/>
<path opacity="0.1" d="M415.019 617.945C370.756 624.948 330.217 604.871 330.217 604.871L330.606 598.069C330.606 598.069 331.61 520.953 328.824 515.041C326.039 509.129 323.869 479.149 325.445 474.548C327.021 469.946 319.691 400.943 319.691 400.943L318.503 372.934L275.039 356.619L294.471 319.086C297.096 313.824 299.354 308.411 301.23 302.881C304.609 293.137 320.295 283.564 320.295 283.564C320.295 283.564 336.381 274.001 342.74 274.361C349.099 274.721 357.434 265.898 357.434 265.898C363.587 251.364 369.158 257.946 369.158 257.946C369.158 258.636 369.158 257.946 368.856 260.096C366.697 276.052 403.77 326.468 404.299 327.359L407.829 407.045L411.403 507.889L415.019 617.945Z" fill="black"/>
<path d="M413.832 617.945C369.568 624.948 329.019 604.871 329.019 604.871L329.418 598.069C329.418 598.069 330.422 520.953 327.626 515.041C324.83 509.129 322.671 479.149 324.258 474.548C325.845 469.946 318.503 400.943 318.503 400.943L317.305 372.934L273.819 356.558L293.251 319.026C295.87 313.762 298.128 308.349 300.01 302.821C303.378 293.077 319.075 283.504 319.075 283.504C319.075 283.504 335.161 273.941 341.51 274.301C347.858 274.661 356.203 265.838 356.203 265.838C362.367 251.303 369.158 257.886 369.158 257.886C369.158 258.576 368.51 258.886 368.856 260.036C373.606 275.512 402.582 326.408 403.111 327.299L406.685 406.985L410.258 507.829L413.832 617.945Z" fill="white"/>
<path opacity="0.1" d="M401.902 329.569C397.141 327.729 371.922 301.05 371.922 301.05V294.978C371.004 292.977 365.552 294.198 361.126 295.598L363.026 258.716L365.185 260.376C369.914 275.842 401.352 328.679 401.902 329.569Z" fill="black"/>
<path d="M403.101 327.359C398.329 325.518 373.109 298.839 373.109 298.839V292.767C372.192 290.767 366.74 291.987 362.313 293.387L364.224 256.505L366.383 258.166C371.123 273.631 402.572 326.478 403.101 327.359Z" fill="white"/>
<path opacity="0.1" d="M330.217 460.413C330.811 460.413 360.996 457.472 360.996 457.472C360.996 457.472 379.274 490.773 378.076 498.876C376.877 506.978 374.707 514.151 367.355 512.88C360.003 511.61 327.788 513.881 327.788 513.881L330.217 460.413Z" fill="black"/>
<path d="M329.019 458.202C329.612 458.202 359.798 455.261 359.798 455.261C359.798 455.261 378.065 488.572 376.877 496.665C375.69 504.758 373.498 511.94 366.157 510.67C358.815 509.399 326.589 511.67 326.589 511.67L329.019 458.202Z" fill="white"/>
<path d="M351.766 442.567C351.766 442.567 379.468 456.361 380.062 460.573C380.656 464.784 365.962 458.732 362.788 458.002C360.699 457.536 358.573 457.228 356.43 457.082L335.259 457.612L351.766 442.567Z" fill="#CF6F80"/>
<path opacity="0.1" d="M394.172 331.29C395.782 331.29 397.087 330.081 397.087 328.589C397.087 327.097 395.782 325.888 394.172 325.888C392.562 325.888 391.257 327.097 391.257 328.589C391.257 330.081 392.562 331.29 394.172 331.29Z" fill="black"/>
<path d="M394.172 330.19C395.782 330.19 397.087 328.98 397.087 327.489C397.087 325.997 395.782 324.788 394.172 324.788C392.562 324.788 391.257 325.997 391.257 327.489C391.257 328.98 392.562 330.19 394.172 330.19Z" fill="#3F3D56"/>
<path opacity="0.1" d="M399.538 448.209C401.148 448.209 402.453 447 402.453 445.508C402.453 444.016 401.148 442.807 399.538 442.807C397.928 442.807 396.623 444.016 396.623 445.508C396.623 447 397.928 448.209 399.538 448.209Z" fill="black"/>
<path d="M399.538 447.098C401.148 447.098 402.453 445.889 402.453 444.398C402.453 442.906 401.148 441.697 399.538 441.697C397.928 441.697 396.623 442.906 396.623 444.398C396.623 445.889 397.928 447.098 399.538 447.098Z" fill="#3F3D56"/>
<path opacity="0.1" d="M397.076 389.749C398.686 389.749 399.991 388.54 399.991 387.049C399.991 385.557 398.686 384.348 397.076 384.348C395.467 384.348 394.162 385.557 394.162 387.049C394.162 388.54 395.467 389.749 397.076 389.749Z" fill="black"/>
<path d="M397.076 388.649C398.686 388.649 399.991 387.44 399.991 385.948C399.991 384.457 398.686 383.247 397.076 383.247C395.467 383.247 394.162 384.457 394.162 385.948C394.162 387.44 395.467 388.649 397.076 388.649Z" fill="#3F3D56"/>
<path d="M464.271 456.522C464.271 456.522 466.257 459.282 464.271 460.573C462.284 461.863 464.465 464.984 464.465 464.984C464.465 464.984 459.51 467.675 461.69 470.096C463.871 472.517 462.489 483.451 462.489 483.451L456.53 492.594C456.53 492.594 456.886 498.485 456.908 506.448C456.908 518.872 456.12 536.338 451.758 544.301L452.363 609.632C452.363 609.632 431.494 616.695 414.026 614.544L411.435 509.709C411.435 509.709 415.214 450.259 416.606 438.856C417.421 432.935 417.753 426.966 417.6 421C417.6 421 417.006 403.154 415.009 394.871C415.009 394.871 412.849 358.989 412.633 349.056C412.536 344.304 412.806 330.44 413.109 317.255C413.443 302.841 413.821 289.246 413.821 289.246L409.88 260.356C409.88 260.356 413.821 259.986 415.009 261.457C415.541 261.917 416.119 262.329 416.736 262.687C423.537 266.949 447.569 280.053 447.569 280.053C447.569 280.053 460.87 284.955 464.055 291.977C467.24 298.999 469.453 303.981 470.997 305.982C472.54 307.982 473.382 317.385 473.382 317.385C473.382 317.385 477.96 334.691 481.533 337.622C485.107 340.553 487.72 359.199 487.72 359.199L456.141 382.207C456.141 382.207 453.367 420.48 452.773 421.96C452.179 423.441 464.271 456.522 464.271 456.522Z" fill="white"/>
<path d="M465.469 456.522C465.469 456.522 467.445 459.283 465.469 460.573C463.493 461.863 465.653 464.984 465.653 464.984C465.653 464.984 460.73 467.705 462.889 470.126C465.048 472.547 463.688 483.481 463.688 483.481L457.728 492.624C457.728 492.624 458.085 498.516 458.117 506.478C458.117 518.902 457.329 536.368 452.967 544.331L453.561 609.662C453.561 609.662 432.66 616.725 415.214 614.574L412.634 509.739C412.634 509.739 416.412 450.29 417.805 438.886C418.621 432.965 418.949 426.996 418.787 421.03C418.787 421.03 418.193 403.184 416.207 394.901C416.207 394.901 414.048 359.019 413.821 349.086C413.724 344.334 414.005 330.47 414.296 317.285C414.631 302.871 415.009 289.276 415.009 289.276L409.805 259.996C409.805 259.996 415.009 259.996 416.207 261.487C416.734 261.953 417.313 262.365 417.934 262.717C424.736 266.979 448.778 280.083 448.778 280.083C448.778 280.083 462.068 284.985 465.253 292.007C468.438 299.029 470.651 304.011 472.206 306.012C473.76 308.012 474.581 317.415 474.581 317.415C474.581 317.415 479.158 334.721 482.732 337.652C486.305 340.583 488.886 359.189 488.886 359.189L457.307 382.197C457.307 382.197 454.533 420.47 453.928 421.95C453.324 423.431 465.469 456.522 465.469 456.522Z" fill="white"/>
<path opacity="0.1" d="M427.651 297.769L430.501 305.471L415.494 319.476C415.829 305.071 416.207 291.467 416.207 291.467L411.003 262.187C411.003 262.187 416.207 262.187 417.405 263.677C417.931 264.142 418.51 264.551 419.133 264.898L431.894 299.009L427.651 297.769Z" fill="black"/>
<path d="M426.452 295.558L429.313 303.261L414.307 317.265C414.642 302.851 415.019 289.256 415.019 289.256L409.805 259.976C409.805 259.976 415.019 259.976 416.207 261.467C416.737 261.93 417.315 262.342 417.934 262.697L430.706 296.799L426.452 295.558Z" fill="white"/>
<path opacity="0.1" d="M426.452 219.343C426.461 222.948 425.849 226.53 424.639 229.956C424.435 229.986 424.226 229.977 424.026 229.931C423.826 229.884 423.638 229.801 423.473 229.686C423.192 220.683 418.409 212.231 412.526 205.038C410.874 202.867 408.871 200.943 406.588 199.336C404.279 197.73 401.408 196.977 398.534 197.226C395.295 197.636 392.434 199.676 389.163 199.936C384.845 200.267 380.98 197.496 376.694 197.356C374.951 197.371 373.232 197.73 371.652 198.41C370.071 199.09 368.665 200.074 367.528 201.297C365.276 203.765 363.603 206.64 362.616 209.74C360.918 214.44 359.994 219.35 359.874 224.305C359.82 227.105 359.528 230.617 356.721 231.637C356.932 229.577 356.68 227.499 355.979 225.534C355.279 223.569 354.145 221.761 352.651 220.223L352.586 220.163C352.586 219.883 352.586 219.623 352.586 219.343C352.502 214.799 353.396 210.285 355.215 206.065C357.033 201.844 359.741 198.001 363.179 194.76C366.617 191.519 370.718 188.945 375.241 187.188C379.764 185.431 384.62 184.526 389.525 184.526C394.429 184.526 399.285 185.431 403.808 187.188C408.332 188.945 412.432 191.519 415.87 194.76C419.309 198.001 422.016 201.844 423.835 206.065C425.654 210.285 426.547 214.799 426.463 219.343H426.452Z" fill="black"/>
<path d="M404.817 164.995C399.207 162.55 392.826 162.087 386.874 163.694C383.884 164.515 381.066 165.845 378.032 166.515C371.555 167.966 363.998 166.395 358.438 169.906C355.35 171.907 353.493 175.068 351.766 178.139L347.447 185.762C345.094 189.933 342.719 194.174 341.736 198.766C340.754 203.358 341.348 208.499 344.489 212.19C346.778 214.881 350.157 216.572 352.64 219.103C354.128 220.642 355.256 222.45 355.955 224.412C356.653 226.374 356.907 228.449 356.7 230.507C359.517 229.506 359.787 225.985 359.852 223.184C359.972 218.229 360.897 213.319 362.594 208.619C363.579 205.519 365.253 202.643 367.506 200.176C368.645 198.954 370.051 197.971 371.631 197.291C373.212 196.612 374.93 196.252 376.672 196.235C380.991 196.375 384.866 199.136 389.141 198.806C392.38 198.556 395.252 196.505 398.512 196.105C401.387 195.853 404.26 196.606 406.566 198.216C408.849 199.821 410.848 201.744 412.493 203.918C418.388 211.11 423.17 219.543 423.451 228.566C424.671 229.396 426.431 228.316 427.035 227.035C427.64 225.755 427.662 224.254 428.428 223.034C429.313 221.624 431.008 220.873 432.336 219.813C435.705 217.122 436.547 212.591 436.417 208.479C436.288 204.368 435.424 200.197 436.266 196.155C436.773 193.674 437.918 191.354 438.544 188.903C439.17 186.452 439.246 183.701 437.767 181.59C435.607 178.489 431.062 177.879 427.1 177.589C422.598 177.229 418.571 177.689 415.7 174.178C414.352 172.346 412.834 170.625 411.165 169.036C410.593 168.516 404.817 165.215 404.817 164.995Z" fill="#512E4E"/>
<path opacity="0.1" d="M287.476 375.945L276.194 356.618L272.62 386.438C272.62 386.438 274.607 399.683 274.207 401.713C273.808 403.744 282.348 421.95 282.348 421.95C282.348 421.95 310.557 468.506 322.077 470.906L360.996 445.138L350.675 432.994C350.675 432.994 347.102 431.703 346.206 432.994C346.206 432.994 327.043 402.444 325.056 400.233C323.07 398.022 323.459 393.611 323.459 393.611C323.459 393.611 320.479 390.67 321.472 387.909C322.465 385.148 315.718 375.575 315.718 375.575L321.872 370.243L287.476 375.945Z" fill="black"/>
<path d="M276.788 354.418L273.808 356.618L270.234 386.438C270.234 386.438 272.221 399.683 271.821 401.713C271.422 403.744 279.972 421.95 279.972 421.95C279.972 421.95 308.171 468.506 319.691 470.906L358.621 445.138L348.289 432.994C348.289 432.994 344.716 431.703 343.82 432.994C343.82 432.994 324.657 402.444 322.67 400.233C320.684 398.022 321.083 393.611 321.083 393.611C321.083 393.611 318.104 390.67 319.097 387.909C320.09 385.148 313.332 375.575 313.332 375.575L319.486 370.243L276.788 354.418Z" fill="white"/>
<path opacity="0.1" d="M461.69 471.236C463.85 473.667 462.489 484.581 462.489 484.581L456.53 493.724C456.53 493.724 456.886 499.626 456.908 507.578L446.889 510.479C445.984 510.742 445.024 510.799 444.089 510.647C443.155 510.496 442.273 510.139 441.518 509.608C440.763 509.076 440.155 508.385 439.747 507.592C439.338 506.798 439.141 505.926 439.17 505.048L440.897 453.421L464.271 461.703C462.284 462.984 464.465 466.125 464.465 466.125C464.465 466.125 459.51 468.806 461.69 471.236Z" fill="black"/>
<path d="M462.889 470.126C465.048 472.557 463.688 483.481 463.688 483.481L457.728 492.624C457.728 492.624 458.085 498.516 458.117 506.478L447.915 509.429C447.028 509.685 446.088 509.74 445.174 509.591C444.259 509.441 443.397 509.092 442.657 508.571C441.918 508.051 441.324 507.374 440.924 506.598C440.524 505.821 440.33 504.967 440.358 504.107L442.096 452.32L465.48 460.603C463.483 461.883 465.663 465.014 465.663 465.014C465.663 465.014 460.73 467.705 462.889 470.126Z" fill="white"/>
<path d="M470.63 445.518C470.63 445.518 469.043 454.911 465.07 455.461C461.097 456.011 459.315 470.656 455.353 470.136C451.391 469.616 454.015 456.522 454.155 453.981C454.295 451.44 449.836 440.916 453.172 438.526C456.508 436.135 467.067 438.526 467.067 438.526L470.63 445.518Z" fill="#CF6F80"/>
<path opacity="0.1" d="M479.083 373.184L486.575 359.179C486.575 359.179 489.555 369.853 489.555 375.555C489.555 381.257 493.722 381.817 493.722 381.817C493.722 381.817 498.289 386.818 495.881 390.46C493.474 394.101 492.502 403.164 492.502 403.164C492.502 403.164 493.29 420.46 489.717 422.85C486.143 425.241 485.398 430.953 485.398 430.953C485.398 430.953 478.834 441.807 479.04 444.387C479.245 446.968 469.906 464.444 469.906 464.444C469.906 464.444 474.473 442.727 447.861 433.344C447.861 433.344 447.656 425.971 449.642 423.951C451.629 421.93 454.727 421.01 452.784 410.796C450.841 400.583 452.222 388.379 452.222 385.928C452.222 383.477 458.182 368.192 458.182 368.192L479.083 373.184Z" fill="black"/>
<path d="M482.322 357.179L488.864 359.179C488.864 359.179 491.854 369.853 491.854 375.555C491.854 381.257 496.022 381.817 496.022 381.817C496.022 381.817 500.588 386.818 498.181 390.46C495.773 394.101 494.813 403.164 494.813 403.164C494.813 403.164 495.601 420.46 492.027 422.85C488.454 425.241 487.655 430.953 487.655 430.953C487.655 430.953 481.102 441.807 481.307 444.388C481.512 446.968 472.163 464.444 472.163 464.444C472.163 464.444 476.74 442.727 450.117 433.344C450.117 433.344 449.923 425.971 451.909 423.951C453.896 421.93 456.994 421.01 455.051 410.796C453.108 400.583 454.49 388.379 454.49 385.928C454.49 383.477 460.449 368.192 460.449 368.192L482.322 357.179Z" fill="white"/>
<path opacity="0.1" d="M337.817 720.169C337.817 720.169 348.246 714.097 355.091 718.509C361.936 722.92 337.817 720.169 337.817 720.169Z" fill="black"/>
<path opacity="0.1" d="M418.852 701.393C418.852 701.393 428.083 700.293 435.834 708.025C443.586 715.758 418.852 701.393 418.852 701.393Z" fill="black"/>
<g opacity="0.1">
<path opacity="0.1" d="M432.358 217.622C431.03 218.683 429.324 219.443 428.439 220.853C427.683 222.064 427.661 223.554 427.057 224.855C426.452 226.155 424.693 227.215 423.473 226.395C423.192 217.392 418.399 208.939 412.515 201.737C410.87 199.563 408.87 197.64 406.588 196.035C404.277 194.425 401.401 193.673 398.523 193.924C395.284 194.335 392.434 196.375 389.163 196.625C384.845 196.965 380.969 194.194 376.683 194.054C374.941 194.071 373.223 194.431 371.644 195.113C370.065 195.794 368.662 196.781 367.528 198.006C365.274 200.469 363.601 203.341 362.616 206.439C360.919 211.139 359.995 216.049 359.874 221.003C359.809 223.794 359.528 227.275 356.743 228.316C356.808 229.055 356.808 229.798 356.743 230.537C359.55 229.536 359.83 226.015 359.895 223.214C360.015 218.259 360.94 213.349 362.637 208.649C363.623 205.549 365.296 202.673 367.549 200.206C368.686 198.985 370.09 198.001 371.669 197.322C373.247 196.642 374.964 196.282 376.704 196.265C381.023 196.405 384.909 199.166 389.185 198.836C392.423 198.586 395.295 196.535 398.545 196.135C401.423 195.883 404.299 196.636 406.609 198.246C408.892 199.851 410.891 201.774 412.536 203.948C418.42 211.14 423.214 219.573 423.494 228.596C424.714 229.426 426.474 228.346 427.079 227.065C427.683 225.785 427.705 224.284 428.46 223.064C429.346 221.654 431.051 220.903 432.379 219.843C435.748 217.152 436.59 212.621 436.46 208.509C436.46 208.379 436.46 208.249 436.46 208.129C436.255 211.69 435.229 215.322 432.358 217.622Z" fill="black"/>
<path opacity="0.1" d="M352.662 216.912C350.179 214.381 346.789 212.691 344.511 210.01C342.593 207.636 341.497 204.78 341.369 201.817C341.029 205.519 342.145 209.21 344.511 212.21C346.789 214.901 350.179 216.592 352.662 219.123C355.046 221.598 356.477 224.736 356.732 228.046C356.897 226.032 356.622 224.007 355.922 222.094C355.223 220.181 354.114 218.418 352.662 216.912Z" fill="black"/>
<path opacity="0.1" d="M438.565 186.712C437.928 189.163 436.795 191.494 436.277 193.964C435.97 195.615 435.858 197.293 435.942 198.966C435.978 198.013 436.09 197.063 436.277 196.125C436.795 193.644 437.928 191.324 438.565 188.873C438.937 187.521 439.057 186.121 438.922 184.731C438.855 185.399 438.736 186.061 438.565 186.712Z" fill="black"/>
</g>
<path opacity="0.1" d="M143.295 760.843C201.393 760.843 248.491 753.834 248.491 745.187C248.491 736.541 201.393 729.532 143.295 729.532C85.197 729.532 38.0991 736.541 38.0991 745.187C38.0991 753.834 85.197 760.843 143.295 760.843Z" fill="#49B8AF"/>
<path d="M146.685 445.288H139.916V586.505H146.685V445.288Z" fill="#535461"/>
<path d="M189.221 586.075L188.8 592.437L188.196 601.44L187.947 605.181L187.354 614.184L187.094 617.925L186.49 626.928L179.667 729.032C179.37 733.425 177.278 737.549 173.816 740.563C170.355 743.577 165.783 745.256 161.033 745.258H125.557C120.808 745.256 116.238 743.577 112.778 740.562C109.318 737.548 107.228 733.424 106.934 729.032L100.144 626.858L99.539 617.855L99.2907 614.114L98.6861 605.111L98.4378 601.37L97.8333 592.367L97.4014 586.005C97.3264 584.78 97.5222 583.554 97.9768 582.402C98.4314 581.251 99.1352 580.197 100.045 579.306C100.955 578.415 102.052 577.706 103.268 577.222C104.484 576.738 105.794 576.489 107.118 576.491H179.678C180.996 576.502 182.299 576.763 183.504 577.258C184.71 577.753 185.793 578.471 186.688 579.369C187.582 580.267 188.268 581.326 188.704 582.479C189.14 583.632 189.316 584.856 189.221 586.075Z" fill="#3F3D56"/>
<path d="M188.8 592.437L188.196 601.41H98.3946L97.7901 592.437H188.8Z" fill="#9D9CB5"/>
<path d="M187.947 605.151L187.354 614.134H99.2475L98.6429 605.151H187.947Z" fill="#9D9CB5"/>
<path d="M187.094 617.885L186.501 626.858H100.1L99.4958 617.885H187.094Z" fill="#9D9CB5"/>
<path d="M87.4583 498.215C126.874 524.644 143.328 565.978 143.328 565.978C143.328 565.978 95.8252 564.467 56.3982 538.039C16.9713 511.61 0.550598 470.286 0.550598 470.286C0.550598 470.286 48.0314 471.787 87.4583 498.215Z" fill="#49B8AF"/>
<path d="M0.518219 470.286C0.518219 470.286 49.8343 495.645 65.6504 516.642C81.4665 537.638 143.328 565.978 143.328 565.978" stroke="#535461" stroke-width="2" stroke-miterlimit="10"/>
<path d="M112.904 444.978C134.356 459.352 143.328 481.85 143.328 481.85C143.328 481.85 117.471 481.03 96.0087 466.655C74.5463 452.28 65.5964 429.773 65.5964 429.773C65.5964 429.773 91.442 430.593 112.904 444.978Z" fill="#49B8AF"/>
<path d="M65.5964 429.773C65.5964 429.773 92.4353 443.577 101.04 455.001C109.644 466.425 143.328 481.85 143.328 481.85" stroke="#535461" stroke-width="2" stroke-miterlimit="10"/>
<path d="M174.474 480.71C149.827 505.808 144.612 538.609 144.612 538.609C144.612 538.609 179.365 530.706 203.99 505.598C228.616 480.49 233.852 447.699 233.852 447.699C233.852 447.699 199.121 455.611 174.474 480.71Z" fill="#49B8AF"/>
<path d="M233.874 447.709C233.874 447.709 201.766 473.437 193.604 491.163C185.443 508.889 144.612 538.609 144.612 538.609" stroke="#535461" stroke-width="2" stroke-miterlimit="10"/>
<path d="M1079.24 471.877C1079.24 471.877 1061.42 389.709 1068.24 379.486C1068.24 379.486 1068.49 369.983 1068.08 357.869C1068.08 357.409 1068.08 356.948 1068.08 356.478C1069.28 357.22 1070.53 357.888 1071.83 358.479C1078.11 361.472 1085.33 362.335 1092.23 360.92L1086.83 355.348C1085.54 354.017 1084.19 352.577 1083.91 350.816C1083.63 349.056 1084.4 347.485 1085.07 345.915C1090.2 333.911 1090.47 318.816 1080.59 309.653C1072.25 301.95 1070.22 292.007 1061.16 284.975C1054.54 279.823 1050.9 272.27 1047.47 264.968C1044.57 258.796 1041.64 252.574 1039.98 246.032C1038.68 240.92 1038.16 235.628 1036.38 230.637C1034.6 225.645 1031.27 220.793 1026.05 218.563C1024.19 217.772 1022.13 217.322 1020.44 216.272C1018.21 214.881 1016.87 212.621 1015.27 210.64C1007.09 200.637 979.725 206.529 966.77 210.59C963.248 211.613 959.987 213.287 957.183 215.512L957.302 215.331C957.399 215.181 957.518 215.031 957.626 214.881C956.208 215.944 954.983 217.21 953.998 218.633C952.109 221.403 951.321 224.635 949.745 227.636C947.845 231.187 937.275 241.1 941.821 245.091C942.139 245.359 942.504 245.576 942.9 245.732C944.606 246.39 946.485 246.564 948.298 246.232L948.104 246.662C946.552 250.183 945.756 253.952 945.761 257.756C945.761 274.191 960.39 287.515 978.451 287.515C981.847 287.518 985.223 287.036 988.459 286.085C988.535 286.465 988.6 286.845 988.675 287.225C988.675 287.375 988.729 287.525 988.751 287.675L988.179 288.416C988.15 288.37 988.117 288.327 988.081 288.286L971.132 310.233C968.541 311.924 953.621 321.927 952.779 329.429C951.893 337.642 951.008 347.255 951.008 347.255L950.889 349.316C950.148 349.889 949.282 350.307 948.35 350.54C947.418 350.774 946.443 350.816 945.491 350.666C940.201 349.866 940.201 368.672 940.201 368.672C940.201 368.672 936.682 371.673 934.263 369.072C931.845 366.472 925.454 375.285 925.454 375.285L885.401 376.885L884.483 376.935L882.324 370.743C882.092 370.09 881.59 369.548 880.929 369.235C880.268 368.923 879.501 368.864 878.794 369.072C878.626 369.123 878.464 369.187 878.308 369.263L878.157 369.343L877.876 369.523L877.736 369.643C877.658 369.708 877.586 369.778 877.52 369.853L877.39 369.993L877.325 370.053C877.076 370.372 876.911 370.741 876.843 371.13C876.776 371.52 876.808 371.918 876.937 372.294L878.794 377.605C871.064 379.046 863.161 383.107 869.606 394.291L836.938 388.699L847.507 396.922L902.07 407.355C901.346 408.556 901.821 410.296 904.078 412.747C913.794 423.32 931.5 426.191 938.625 426.932C940.507 430.832 942.857 434.523 945.632 437.935L945.016 448.469C945.016 448.469 926.976 528.756 923.673 532.827C925.34 531.076 926.867 529.214 928.239 527.255C923.003 543.75 915.683 566.328 913.762 569.709C910.674 575.111 907.813 596.968 911.333 598.369C912.412 598.799 915.5 598.589 919.905 598.279V600.089L919.71 668.702C919.71 668.702 920.596 710.786 918.167 714.797C915.737 718.809 915.09 727.221 915.09 727.221C915.09 727.221 905.373 743.817 897.676 750.489C897.623 750.541 897.566 750.588 897.503 750.629L897.266 749.069C897.266 749.069 888.013 759.892 867.544 759.282C867.544 759.282 855.226 766.704 873.493 767.105C891.76 767.505 915.09 766.504 915.09 766.504C915.09 766.504 931.381 743.497 945.027 746.498V763.934H949.205V746.218C951.143 745.036 952.801 743.502 954.08 741.708C955.358 739.915 956.23 737.899 956.643 735.784C957.001 733.604 956.739 731.375 955.883 729.318C955.028 727.26 953.608 725.444 951.764 724.05C950.935 723.356 950.271 722.511 949.812 721.568C949.353 720.624 949.11 719.603 949.097 718.569L948.946 718.689C948.946 718.338 948.849 717.978 948.806 717.608C947.607 708.605 946.107 690.029 951.407 676.284C958.673 657.438 960.876 631.189 955.585 615.564C953.879 610.57 952.476 605.49 951.386 600.349C951.256 599.699 951.138 599.079 951.03 598.499C954.646 598.952 958.227 599.62 961.75 600.499C974.003 603.63 1000.81 604.211 1023.7 604.04C1023.75 604.621 1023.82 605.231 1023.89 605.841C1024.3 610.083 1025.15 614.277 1026.44 618.365C1029.31 626.368 1030.63 661.65 1030.63 661.65C1030.63 661.65 1034.33 690.659 1032.31 702.463C1031.23 709.025 1030.15 715.618 1029.54 722.24V722.37C1029.54 722.37 1023.47 738.375 1019.03 747.068C1018.93 747.288 1018.81 747.508 1018.7 747.718C1017.52 747.818 1016.35 748.057 1015.23 748.428C1015.23 748.428 1009.28 759.432 1003.36 761.253C997.431 763.073 999.396 769.065 1012.82 766.865C1026.23 764.664 1046.5 762.863 1046.5 762.863L1047.37 751.64L1051.5 746.858L1050.42 758.052L1054.81 757.251L1054.23 743.637L1060.98 735.814C1060.98 735.814 1069.13 729.092 1057.01 715.868V716.158C1056.88 715.968 1056.77 715.768 1056.63 715.577V715.517C1054.62 712.637 1053.02 707.265 1055.94 697.732C1061.24 680.506 1064.31 664.871 1064.31 664.871C1064.31 664.871 1076.12 622.987 1061.93 603.17H1062.55C1061.1 600.382 1060.07 597.419 1059.5 594.367C1059.42 594.007 1059.36 593.637 1059.3 593.257C1069.81 592.697 1080.12 590.936 1088.53 587.135C1088.49 587.095 1083.43 487.702 1079.24 471.877ZM945.88 402.554V402.754L943.721 402.854L945.88 402.554ZM938.474 403.504C938.119 403.577 937.786 403.724 937.502 403.934C936.574 405.151 935.991 406.565 935.807 408.045L932.439 407.345C932.439 407.345 930.075 406.875 926.674 406.345L925.065 404.844C929.492 404.504 934.091 404.004 938.474 403.504Z" fill="url(#paint1_linear)"/>
<path d="M1049.92 743.777L1048.64 757.952L1052.94 757.151L1052.3 741.776L1049.92 743.777Z" fill="#1D2366"/>
<path d="M951.645 676.475C946.452 690.179 947.92 708.675 949.086 717.658C949.518 720.979 949.917 723 949.917 723C949.917 723 942.155 739.386 941.507 740.006C940.86 740.626 918.663 753.18 918.663 753.18L903.149 761.573C903.149 761.573 887.409 755.181 894.955 752.98C896.497 752.407 897.886 751.53 899.025 750.409C906.582 743.757 916.072 727.222 916.072 727.222C916.072 727.222 916.72 718.829 919.095 714.837C921.47 710.846 920.606 668.902 920.606 668.902L920.79 600.529V591.616L950.317 591.817C950.503 594.842 950.929 597.851 951.591 600.82C952.651 605.943 954.024 611.006 955.704 615.985C960.908 631.58 958.748 657.698 951.645 676.475Z" fill="#FFB0B1"/>
<path opacity="0.1" d="M949.917 723C949.917 723 942.155 739.386 941.507 740.006C940.86 740.626 918.663 753.18 918.663 753.18L903.149 761.573C903.149 761.573 887.409 755.181 894.955 752.98C896.497 752.407 897.886 751.529 899.025 750.409L899.695 754.781L904.866 754.581L949.129 717.678C949.518 720.979 949.917 723 949.917 723Z" fill="black"/>
<path d="M949.378 718.609L904.866 755.761L899.694 755.961L898.615 748.959C898.615 748.959 889.568 759.742 869.466 759.142C869.466 759.142 857.396 766.535 875.285 766.935C893.174 767.335 916.018 766.334 916.018 766.334C916.018 766.334 931.974 743.327 945.329 746.328V763.704H949.432V746.168C951.339 744.978 952.967 743.443 954.217 741.655C955.468 739.867 956.315 737.863 956.708 735.764C957.063 733.602 956.812 731.391 955.978 729.345C955.144 727.299 953.756 725.486 951.947 724.08C951.139 723.379 950.494 722.531 950.053 721.59C949.611 720.649 949.381 719.635 949.378 718.609Z" fill="#1D2366"/>
<path d="M1054.02 697.842C1051.15 707.345 1052.72 712.697 1054.68 715.568V715.628C1057.2 719.172 1058.95 723.137 1059.84 727.301L1060.01 728.202L1039.76 755.561L1028.77 759.562C1028.77 759.562 1011.1 753.97 1014.33 752.37C1015.14 751.98 1016.4 749.899 1017.85 747.028C1022.16 738.375 1028.12 722.41 1028.12 722.41V722.28C1028.75 715.688 1029.74 709.115 1030.84 702.573C1032.82 690.799 1029.19 661.9 1029.19 661.9C1029.19 661.9 1027.9 626.758 1025.09 618.765C1023.82 614.702 1022.98 610.534 1022.57 606.321C1021.99 601.32 1021.86 597.198 1021.86 597.198C1021.86 597.198 1033.5 582.193 1054.83 598.399C1056.54 599.691 1058.04 601.2 1059.29 602.88C1074.03 622.307 1062.16 665.101 1062.16 665.101C1062.16 665.101 1059.19 680.666 1054.02 697.842Z" fill="#FFB0B1"/>
<path opacity="0.1" d="M1060.05 728.202L1039.79 755.561L1028.8 759.562C1028.8 759.562 1011.13 753.97 1014.36 752.37C1015.17 751.98 1016.43 749.899 1017.88 747.028C1025.36 746.968 1029.24 753.57 1029.24 753.57L1038.71 752.17C1038.71 752.17 1051.22 729.402 1054.02 728.012C1056.83 726.621 1054.46 717.618 1054.46 717.618V715.328C1054.53 715.408 1054.6 715.498 1054.68 715.578V715.638C1057.2 719.182 1058.95 723.147 1059.84 727.312L1060.05 728.202Z" fill="black"/>
<path d="M1029.88 754.16C1029.88 754.16 1024.49 744.977 1014.14 748.369C1014.14 748.369 1008.32 759.372 1002.5 761.153C996.686 762.933 998.629 768.935 1011.78 766.745C1024.93 764.554 1044.75 762.743 1044.75 762.743L1045.61 751.55L1058.98 735.774C1058.98 735.774 1066.95 729.082 1055.09 715.908V718.199C1055.09 718.199 1057.47 727.201 1054.66 728.592C1051.85 729.982 1039.39 752.76 1039.39 752.76L1029.88 754.16Z" fill="#1D2366"/>
<path opacity="0.1" d="M950.349 591.796C950.536 594.822 950.961 597.831 951.623 600.799C939.467 599.149 928.185 599.969 920.79 600.509V591.596L950.349 591.796Z" fill="black"/>
<path opacity="0.1" d="M1060.49 605.371C1060.49 605.371 1043.22 606.151 1022.62 606.311C1022.03 601.31 1021.91 597.188 1021.91 597.188C1021.91 597.188 1033.54 582.183 1054.88 598.389C1056.58 599.681 1058.08 601.19 1059.33 602.87C1059.67 603.723 1060.06 604.558 1060.49 605.371Z" fill="black"/>
<path d="M1060.49 603.57C1060.49 603.57 984.832 606.962 961.771 600.97C938.711 594.978 915.856 600.169 912.412 598.779C908.968 597.388 911.764 575.611 914.787 570.219C917.81 564.827 934.393 510.299 934.393 510.299L950.349 433.214L967.159 428.922L968.346 428.612L997.636 421.13L1019.1 415.638C1019.1 415.638 1061.77 570.019 1058.11 581.403C1056.79 585.762 1056.57 590.348 1057.49 594.797C1058.05 597.836 1059.06 600.788 1060.49 603.57Z" fill="#1D2366"/>
<path d="M894.728 380.496C894.728 380.496 879.614 395.501 891.058 403.864C902.502 412.227 910.026 404.664 910.026 404.664L894.728 380.496Z" fill="#C7DAF5"/>
<path opacity="0.1" d="M894.728 380.496C894.728 380.496 879.614 395.501 891.058 403.864C902.502 412.227 910.026 404.664 910.026 404.664L894.728 380.496Z" fill="black"/>
<path d="M1016.84 281.844C1016.84 281.844 1015.07 283.404 1012.4 285.705C1008.6 288.996 1002.98 293.808 997.992 297.839C991.083 303.411 985.382 307.502 987.423 304.011C989.463 300.52 989.075 294.438 988.06 288.746C987.984 288.366 987.919 287.986 987.844 287.616C987.003 283.435 985.889 279.306 984.508 275.251C984.508 275.251 995.671 261.887 1001.85 256.615C1004.15 254.615 1005.75 253.794 1005.85 255.185C1005.96 257.055 1007.47 261.187 1009.35 265.568C1009.4 265.708 1009.46 265.838 1009.52 265.978C1010.77 268.979 1012.19 272.06 1013.43 274.721C1015.33 278.803 1016.84 281.844 1016.84 281.844Z" fill="#FFB0B1"/>
<path opacity="0.1" d="M1009.52 265.978C1008.47 271.206 1005.93 276.078 1002.15 280.083C998.377 284.088 993.51 287.08 988.06 288.746C987.201 284.179 986.015 279.671 984.508 275.251C984.508 275.251 1005.53 250.093 1005.85 255.185C1005.93 257.115 1007.57 261.397 1009.52 265.978Z" fill="black"/>
<path opacity="0.1" d="M985.965 295.468L988.686 291.917C988.686 291.917 990.489 302.1 997.118 297.609C1003.75 293.117 1004.07 331.41 1004.07 331.41L996.956 429.973L945.545 427.122L947.003 379.496L952.822 355.488L967.213 320.586L975.774 309.053L985.965 295.468Z" fill="black"/>
<path d="M1004.07 332.02L997.593 421.14L996.912 430.583L968.249 428.992L967.169 428.932L945.577 427.732L947.035 380.096L952.854 356.088L967.245 321.187L975.806 309.653L985.998 296.018L988.718 292.477C988.718 292.477 990.521 302.66 997.15 298.169L997.29 298.079C1003.77 294.278 1004.07 332.02 1004.07 332.02Z" fill="#1D2366"/>
<path d="M953.577 347.745C953.577 347.745 950.997 352.747 945.815 351.937C940.633 351.127 940.644 369.943 940.644 369.943C940.644 369.943 937.2 372.944 934.825 370.343C932.45 367.742 926.188 376.535 926.188 376.535L886.955 378.136C886.955 378.136 904.412 385.528 900.99 407.895C900.99 407.895 960.26 404.494 962.203 399.303C964.147 394.111 953.577 347.745 953.577 347.745Z" fill="white"/>
<path opacity="0.03" d="M953.577 347.745C953.577 347.745 950.997 352.747 945.815 351.937C940.633 351.127 940.644 369.943 940.644 369.943C940.644 369.943 937.2 372.944 934.825 370.343C932.45 367.742 926.188 376.535 926.188 376.535L886.955 378.136C886.955 378.136 904.412 385.528 900.99 407.895C900.99 407.895 960.26 404.494 962.203 399.303C964.147 394.111 953.577 347.745 953.577 347.745Z" fill="black"/>
<path d="M839.561 389.889L849.903 398.072L935.041 414.648L924.482 404.664L839.561 389.889Z" fill="white"/>
<path d="M986.127 298.619C984.713 300.62 980.664 310.863 977.285 319.806C974.467 327.259 972.114 333.811 972.114 333.811C972.114 333.811 966.619 366.962 963.812 372.954C961.005 378.946 962.527 402.314 962.527 402.314L952.066 460.023C952.066 460.023 947.326 489.783 940.007 507.559C932.784 525.054 924.741 533.257 924.493 533.517C927.732 529.456 945.383 449.489 945.383 449.489L951.213 348.636C951.213 348.636 952.066 339.053 952.929 330.86C953.793 322.667 971.283 311.484 971.283 311.484L988.146 289.266C989.841 291.367 988.707 295.028 986.127 298.619Z" fill="white"/>
<path d="M942.155 428.232C942.155 428.232 917.324 427.232 905.298 413.847C893.271 400.463 933.097 408.506 933.097 408.506L943.451 410.706L942.155 428.232Z" fill="#FFB0B1"/>
<path opacity="0.1" d="M1058.11 581.413C1056.79 585.772 1056.57 590.358 1057.49 594.807C1030.4 596.588 1001.43 589.806 1001.43 589.806C996.027 594.407 981.809 601.19 981.809 601.19L974.057 512.16C969.102 500.156 967.159 437.265 967.159 437.265C967.159 437.265 967.601 433.974 968.238 429.042C968.238 428.922 968.238 428.792 968.292 428.672C970.225 414.898 974.057 389.039 975.936 385.548C978.527 380.746 967.968 367.972 967.968 367.972L972.773 330.01L973.356 325.428C983.482 321.237 991.245 307.852 991.245 307.852L997.204 298.179C1003.68 294.328 1004.02 332.07 1004.02 332.07L997.539 421.19L1019 415.698C1019 415.698 1061.77 570.029 1058.11 581.413Z" fill="black"/>
<path d="M1085.91 587.565C1056.39 601.15 1002.72 588.565 1002.72 588.565C997.323 593.167 983.104 599.949 983.104 599.949L975.342 510.92C970.397 498.916 968.454 436.025 968.454 436.025C968.454 436.025 974.694 389.099 977.285 384.308C978.041 382.907 977.674 380.826 976.778 378.586C972.372 367.92 970.752 356.441 972.049 345.085L974.122 328.769L974.694 324.198C984.832 319.996 992.594 306.612 992.594 306.612L997.992 297.849L1007.92 281.704L1012.63 274.061L1013.43 274.731L1019.53 279.853C1019.53 279.853 1022.12 281.854 1026.01 284.855C1034.46 291.457 1049.07 303.081 1056.6 310.193C1063.23 316.455 1065.33 340.813 1065.93 359.149C1066.33 371.223 1066.09 380.686 1066.09 380.686C1059.41 390.88 1076.89 472.717 1076.89 472.717C1080.96 488.532 1085.91 587.565 1085.91 587.565Z" fill="white"/>
<path opacity="0.03" d="M1029.24 306.412C1029.24 306.412 1008.97 342.154 1011.33 355.738C1013.68 369.323 1020.37 384.698 1017.14 388.289C1016.04 389.649 1014.6 390.754 1012.96 391.516C1011.31 392.277 1009.49 392.676 1007.65 392.68C1004.42 392.88 995.779 398.472 995.779 399.072C995.779 399.673 987.801 399.673 980.664 402.474C973.528 405.274 962.991 406.865 962.991 406.865C962.991 406.865 942.479 406.265 940.568 408.065C938.657 409.866 936.692 420.64 940.784 429.232C944.876 437.825 949.421 444.237 952.854 445.408C956.287 446.578 978.073 439.816 995.746 438.215C1013.42 436.615 1032.6 423.641 1032.6 423.641C1032.6 423.641 1053.73 416.638 1057.43 404.864C1061.14 393.09 1052.91 328.379 1052.91 328.379C1052.91 328.379 1046.69 298.219 1029.24 306.412Z" fill="black"/>
<path opacity="0.03" d="M1026.64 303.411C1026.64 303.411 1006.38 339.163 1008.76 352.737C1011.13 366.312 1017.8 381.697 1014.56 385.298C1013.46 386.66 1012.03 387.766 1010.38 388.528C1008.74 389.29 1006.92 389.687 1005.09 389.689C1001.85 389.889 993.209 395.481 993.209 396.082C993.209 396.682 985.231 396.682 978.095 399.473C970.959 402.264 960.422 403.864 960.422 403.864C960.422 403.864 939.91 403.264 938.01 405.064C936.109 406.865 934.123 417.649 938.225 426.232C942.328 434.814 946.862 441.237 950.295 442.407C953.728 443.577 975.515 436.815 993.188 435.225C1010.86 433.634 1030.05 420.64 1030.05 420.64C1030.05 420.64 1051.16 413.637 1054.82 401.873C1058.48 390.11 1050.3 325.378 1050.3 325.378C1050.3 325.378 1044.1 295.228 1026.64 303.411Z" fill="black"/>
<path d="M1028.6 304.611C1028.6 304.611 1008.33 340.363 1010.71 353.938C1013.08 367.512 1019.76 382.897 1016.53 386.488C1015.42 387.854 1013.99 388.962 1012.34 389.726C1010.7 390.49 1008.88 390.888 1007.04 390.89C1003.8 391.09 995.164 396.682 995.164 397.272C995.164 397.862 987.196 397.872 980.049 400.673C972.902 403.474 962.376 405.065 962.376 405.065C962.376 405.065 941.864 404.464 939.953 406.265C938.042 408.066 936.077 418.849 940.169 427.432C944.26 436.015 948.806 442.437 952.239 443.607C955.672 444.778 977.458 438.015 995.131 436.415C1012.8 434.814 1031.99 421.84 1031.99 421.84C1031.99 421.84 1053.12 414.838 1056.82 403.064C1060.52 391.29 1052.35 326.578 1052.35 326.578C1052.35 326.578 1046.05 296.468 1028.6 304.611Z" fill="white"/>
<path opacity="0.1" d="M1028.16 400.503C1028.16 400.503 1011.96 397.502 1017.6 402.504C1023.23 407.505 1023.2 411.887 1030.1 411.687C1037 411.487 1028.16 400.503 1028.16 400.503Z" fill="black"/>
<path opacity="0.1" d="M1055.52 508.119C1055.52 508.119 1048.2 512.71 1062.21 523.294C1076.21 533.877 1055.52 508.119 1055.52 508.119Z" fill="black"/>
<path opacity="0.1" d="M1041.55 545.861C1041.55 546.462 1038.96 567.869 1048.66 573.22C1058.35 578.572 1041.55 545.861 1041.55 545.861Z" fill="black"/>
<path d="M887.625 378.086C879.808 378.336 862.923 380.546 871.679 395.681C879.42 409.076 892.429 400.123 899.749 393.331C897.963 386.998 893.624 381.541 887.625 378.086Z" fill="#FFB0B1"/>
<path d="M899.846 393.21L900.169 392.9L899.846 393.21Z" fill="#FFB0B1"/>
<path opacity="0.1" d="M1026.01 285.465C1017.72 290.716 1010.76 295.148 1009.4 296.068C1005.69 298.619 998.607 313.594 994.041 321.237C990.402 327.389 978.581 328.969 974.122 329.359L974.694 324.788C984.832 320.586 992.594 307.202 992.594 307.202L1012.63 274.651L1019.53 280.463C1019.53 280.463 1022.12 282.464 1026.01 285.465Z" fill="black"/>
<path d="M1026.01 284.865C1017.72 290.116 1010.76 294.548 1009.4 295.478C1005.69 298.019 998.607 312.994 994.041 320.636C990.402 326.789 978.581 328.369 974.122 328.759L974.694 324.188C984.832 319.986 992.594 306.602 992.594 306.602L1012.63 274.051L1019.53 279.843C1019.53 279.843 1022.12 281.824 1026.01 284.865Z" fill="#DCE7FF"/>
<path d="M1010.05 259.376C1010.06 265.381 1008.09 271.245 1004.42 276.192C1000.08 282.04 993.617 286.253 986.211 288.066C978.806 289.88 970.944 289.173 964.053 286.075C957.161 282.977 951.696 277.693 948.65 271.181C945.604 264.669 945.178 257.361 947.45 250.582C949.721 243.804 954.54 238.005 961.031 234.238C967.523 230.47 975.257 228.983 982.83 230.047C990.403 231.111 997.314 234.655 1002.31 240.036C1007.3 245.417 1010.05 252.279 1010.05 259.376Z" fill="#FFB0B1"/>
<path opacity="0.1" d="M1065.93 359.159C1061.55 356.66 1057.98 353.106 1055.6 348.876C1053.8 345.575 1052.6 341.764 1049.52 339.423C1046.75 337.322 1043.04 336.812 1039.59 335.872C1028.23 332.761 1018.71 323.157 1018.35 312.194C1018.18 307.032 1019.92 301.88 1019.13 296.769C1018.68 293.876 1017.44 291.137 1015.52 288.816C1014.57 287.706 1013.53 286.665 1012.4 285.705C1010.89 284.384 1009.31 283.104 1007.92 281.704C1007.05 280.836 1006.29 279.88 1005.66 278.853C1005.14 278.012 1004.73 277.123 1004.42 276.202C1002.26 270.08 1004.22 262.817 1001.85 256.625L1001.72 256.285C1000.82 254.084 998.996 251.884 996.459 251.714C993.922 251.544 991.752 253.494 989.334 254.365C984.27 256.185 978.808 253.084 974.586 249.923C970.365 246.762 965.604 243.151 960.239 243.851C956.687 244.321 953.88 246.562 950.609 247.722C949.87 247.987 949.108 248.191 948.331 248.332C951.099 241.935 956.185 236.631 962.716 233.332C969.246 230.032 976.813 228.942 984.116 230.25C991.419 231.558 998.002 235.182 1002.74 240.499C1007.47 245.816 1010.05 252.494 1010.05 259.386C1010.05 261.467 1009.82 263.543 1009.35 265.578C1009.4 265.718 1009.46 265.848 1009.52 265.988C1010.77 268.989 1012.19 272.07 1013.43 274.731L1019.53 279.853C1019.53 279.853 1022.12 281.854 1026.01 284.855C1034.46 291.457 1049.07 303.081 1056.6 310.193C1063.23 316.475 1065.31 340.823 1065.93 359.159Z" fill="black"/>
<path d="M950.231 229.446C951.774 226.535 952.541 223.274 954.387 220.513C957.097 216.512 961.826 213.951 966.684 212.401C979.369 208.349 1006.18 202.467 1014.19 212.401C1015.76 214.401 1017.07 216.622 1019.25 218.002C1020.91 219.053 1022.92 219.503 1024.74 220.293C1029.85 222.514 1033.11 227.356 1034.85 232.297C1036.59 237.239 1037.11 242.541 1038.38 247.632C1040.01 254.164 1042.87 260.356 1045.72 266.509C1049.08 273.771 1052.64 281.303 1059.12 286.435C1067.96 293.438 1069.91 303.351 1078.12 311.033C1087.84 320.156 1087.52 335.211 1082.51 347.165C1081.86 348.736 1081.11 350.376 1081.37 352.047C1081.63 353.718 1082.97 355.238 1084.23 356.568L1089.54 362.12C1076.98 364.931 1062.76 358.849 1056.91 348.176C1055.1 344.875 1053.9 341.073 1050.82 338.723C1048.05 336.622 1044.34 336.122 1040.9 335.181C1029.54 332.06 1020.02 322.447 1019.66 311.484C1019.49 306.332 1021.22 301.18 1020.44 296.078C1020 293.166 1018.75 290.409 1016.82 288.076C1013.85 284.485 1009.37 282.074 1006.95 278.072C1002.86 271.38 1005.97 262.687 1003.02 255.505C1002.12 253.304 1000.3 251.103 997.765 250.933C995.228 250.763 993.058 252.714 990.629 253.584C985.577 255.405 980.114 252.314 975.893 249.143C971.671 245.972 966.91 242.371 961.534 243.081C957.982 243.541 955.186 245.782 951.915 246.952C949.496 247.812 944.595 248.583 942.479 246.692C938.01 242.881 948.363 233.007 950.231 229.446Z" fill="#591D4B"/>
<path opacity="0.1" d="M1059.91 344.875C1058.09 341.573 1056.91 337.772 1053.82 335.431C1051.05 333.331 1047.34 332.821 1043.89 331.88C1032.54 328.769 1023.02 319.156 1022.65 308.192C1022.48 303.041 1024.22 297.879 1023.44 292.777C1022.99 289.884 1021.74 287.146 1019.82 284.825C1016.84 281.233 1012.36 278.823 1009.95 274.821C1005.86 268.139 1008.97 259.446 1006.01 252.254C1005.12 250.063 1003.29 247.862 1000.77 247.682C998.24 247.502 996.049 249.473 993.63 250.343C988.578 252.164 983.104 249.063 978.894 245.902C974.684 242.741 969.901 239.129 964.535 239.83C960.983 240.3 958.176 242.541 954.916 243.701C952.498 244.561 947.586 245.342 945.47 243.451C941.022 239.45 951.375 229.596 953.232 226.055C954.776 223.134 955.542 219.883 957.399 217.122C957.496 216.972 957.604 216.822 957.712 216.672C956.323 217.738 955.124 219.001 954.16 220.413C952.314 223.174 951.548 226.415 950.004 229.346C948.136 232.887 937.783 242.771 942.242 246.742C944.401 248.643 949.259 247.862 951.677 247.002C954.916 245.832 957.745 243.591 961.296 243.131C966.694 242.421 971.445 246.032 975.655 249.193C979.866 252.354 985.372 255.455 990.402 253.634C992.821 252.764 994.937 250.803 997.528 250.983C1000.12 251.163 1001.85 253.354 1002.79 255.555C1005.73 262.737 1002.62 271.43 1006.72 278.122C1009.13 282.054 1013.61 284.515 1016.58 288.126C1018.51 290.459 1019.76 293.216 1020.2 296.128C1020.99 301.23 1019.25 306.382 1019.42 311.533C1019.78 322.537 1029.3 332.11 1040.66 335.231C1044.08 336.172 1047.82 336.672 1050.58 338.773C1053.68 341.123 1054.9 344.925 1056.67 348.226C1062.52 358.899 1076.74 364.981 1089.3 362.17L1086.8 359.549C1075.91 359.699 1064.88 353.958 1059.91 344.875Z" fill="black"/>
<path opacity="0.1" d="M985.479 299.219C984.065 301.22 980.017 311.463 976.637 320.406C973.474 319.266 970.603 311.994 970.603 311.994L987.466 289.766C989.193 291.967 988.06 295.618 985.479 299.219Z" fill="black"/>
<path d="M986.127 298.619C984.713 300.62 980.664 310.863 977.285 319.806C974.122 318.676 971.25 311.393 971.25 311.393L988.114 289.176C989.841 291.367 988.707 295.028 986.127 298.619Z" fill="#DCE7FF"/>
<path d="M888.078 400.813L878.729 373.494C878.618 373.174 878.577 372.837 878.607 372.503C878.637 372.168 878.738 371.842 878.905 371.544C879.071 371.245 879.3 370.98 879.577 370.764C879.854 370.548 880.175 370.384 880.521 370.283C881.217 370.082 881.97 370.143 882.617 370.454C883.264 370.765 883.752 371.301 883.975 371.944L893.325 399.233L892.396 404.944L888.078 400.813Z" fill="#BE8B87"/>
<path opacity="0.1" d="M879.614 371.093C880.311 370.889 881.068 370.949 881.717 371.26C882.367 371.571 882.857 372.109 883.08 372.754L892.429 400.043L891.727 404.324L892.407 404.985L893.336 399.273L883.932 371.984C883.709 371.341 883.221 370.805 882.574 370.494C881.927 370.183 881.174 370.122 880.478 370.323C879.892 370.499 879.387 370.851 879.042 371.323C879.225 371.232 879.417 371.155 879.614 371.093Z" fill="white"/>
<path d="M888.078 400.813L893.325 399.273L892.558 403.954L892.397 404.984L890.864 403.504L888.078 400.813Z" fill="#EFC8C4"/>
<path d="M890.863 403.504C890.955 403.397 891.069 403.309 891.198 403.244C891.274 403.199 891.362 403.176 891.452 403.176C891.542 403.176 891.63 403.199 891.706 403.244C891.779 403.326 891.841 403.417 891.889 403.514C891.96 403.624 892.058 403.719 892.173 403.79C892.289 403.861 892.421 403.907 892.558 403.924L892.396 404.924L890.863 403.504Z" fill="#727A9C"/>
<path d="M878.675 383.197C878.675 383.197 897.427 383.097 893.012 390.49C888.596 397.882 881.698 398.772 881.698 398.772L878.675 383.197Z" fill="#FFB0B1"/>
</g>
<defs>
<linearGradient id="paint0_linear" x1="384.693" y1="775.127" x2="384.693" y2="159.583" gradientUnits="userSpaceOnUse">
<stop stop-color="#808080" stop-opacity="0.25"/>
<stop offset="0.54" stop-color="#808080" stop-opacity="0.12"/>
<stop offset="1" stop-color="#808080" stop-opacity="0.1"/>
</linearGradient>
<linearGradient id="paint1_linear" x1="240983" y1="464436" x2="240983" y2="148472" gradientUnits="userSpaceOnUse">
<stop stop-color="#808080" stop-opacity="0.25"/>
<stop offset="0.54" stop-color="#808080" stop-opacity="0.12"/>
<stop offset="1" stop-color="#808080" stop-opacity="0.1"/>
</linearGradient>
<clipPath id="clip0">
<rect width="1193" height="783" fill="white"/>
</clipPath>
</defs>
</svg>
