<svg width="1440" height="121" viewBox="0 0 1440 121" fill="none" xmlns="http://www.w3.org/2000/svg">
<g filter="url(#filter0_d)">
<path d="M531.843 71.2121L509.363 61.2687L483.951 73.2413H455.608L445.834 112L425.798 1L414.558 76.691L407.716 73.2413H396.476L385.725 63.095L377.417 73.2413H362.268H357H349.074H336.368L314.888 61.2687L289.942 71.2121L288.672 71.1106L207.429 71.2121H3M363.268 73.2413H378.417L386.725 63.095L397.476 73.2413H408.716L415.557 76.691L426.797 1L446.833 112L456.607 73.2413H484.951L510.363 61.2687L532.843 71.2121L836.981 71.1106L838.252 71.2121L862.602 61.4968L885.677 73.2413H897.383H898.383H905.691H910.578H911.577H925.727M337.367 73.2413H350.073M1058.19 61.4968L1080.15 71.2121H1081.15M1058.19 61.4968L1057.67 61.2687L1032.26 73.2413M1058.19 61.4968L1058.67 61.2687L1081.15 71.2121M1058.19 61.4968L1033.26 73.2413H1032.26M1032.26 73.2413H1004.92M1004.92 73.2413H1003.92L994.726 109.69M1004.92 73.2413L995.143 112L994.726 109.69M994.726 109.69L994.143 112L974.656 4.03843M994.726 109.69L975.107 1L974.656 4.03843M974.656 4.03843L974.107 1L962.937 76.2221M974.656 4.03843L963.867 76.691L962.937 76.2221M962.937 76.2221L962.867 76.691L956.026 73.2413M962.937 76.2221L957.025 73.2413H956.026M956.026 73.2413H945.786M945.786 73.2413H944.786L934.599 63.6272M945.786 73.2413L935.034 63.0951L934.599 63.6272M934.599 63.6272L934.035 63.0951L925.727 73.2413M934.599 63.6272L926.727 73.2413H925.727M1081.15 71.2121H1215.58L1443 71.1106" stroke="#4687A3" stroke-width="1.6199" stroke-linejoin="round"/>
</g>
<defs>
<filter id="filter0_d" x="-1" y="0.190063" width="1448" height="120.62" filterUnits="userSpaceOnUse" color-interpolation-filters="sRGB">
<feFlood flood-opacity="0" result="BackgroundImageFix"/>
<feColorMatrix in="SourceAlpha" type="matrix" values="0 0 0 0 0 0 0 0 0 0 0 0 0 0 0 0 0 0 127 0"/>
<feOffset dy="4"/>
<feGaussianBlur stdDeviation="2"/>
<feColorMatrix type="matrix" values="0 0 0 0 0 0 0 0 0 0 0 0 0 0 0 0 0 0 0.25 0"/>
<feBlend mode="normal" in2="BackgroundImageFix" result="effect1_dropShadow"/>
<feBlend mode="normal" in="SourceGraphic" in2="effect1_dropShadow" result="shape"/>
</filter>
</defs>
</svg>
