<svg width="1452" height="799" viewBox="0 0 1452 799" fill="none" xmlns="http://www.w3.org/2000/svg">
<mask id="mask0" mask-type="alpha" maskUnits="userSpaceOnUse" x="6" y="25" width="1440" height="776">
<rect x="6" y="25" width="1440" height="776" fill="#E5F0F4"/>
</mask>
<g mask="url(#mask0)">
</g>
<g clip-path="url(#clip0)">
<path opacity="0.1" d="M623.623 782.56C681.721 782.56 728.819 775.551 728.819 766.905C728.819 758.259 681.721 751.249 623.623 751.249C565.525 751.249 518.427 758.259 518.427 766.905C518.427 775.551 565.525 782.56 623.623 782.56Z" fill="#49B8AF"/>
<path opacity="0.1" d="M1195.45 783C1267.95 783 1326.72 775.991 1326.72 767.345C1326.72 758.699 1267.95 751.69 1195.45 751.69C1122.96 751.69 1064.19 758.699 1064.19 767.345C1064.19 775.991 1122.96 783 1195.45 783Z" fill="#49B8AF"/>
<path opacity="0.1" d="M241.942 338.312H351.51V476.688H249.963C249.693 478.109 249.434 479.539 249.153 480.97H351.51V592.567C351.327 592.517 351.165 592.457 350.992 592.397C348.099 591.336 345.227 590.216 342.355 589.016L340.52 588.245C337.641 586.985 334.762 585.651 331.883 584.244C330.879 583.754 329.875 583.244 328.882 582.723C312.899 574.428 298.38 563.916 285.827 551.553C285.46 551.223 285.115 550.873 284.748 550.553C282.999 548.792 281.282 547.012 279.62 545.191L277.784 543.19C275.819 540.96 273.919 538.669 272.073 536.348C271.803 536.008 271.544 535.668 271.264 535.348C263.755 525.702 257.521 515.257 252.694 504.237C252.543 503.907 252.414 503.547 252.273 503.237C250.791 499.703 249.477 496.135 248.333 492.533C247.836 491.023 247.361 489.532 246.951 487.962C246.8 487.502 246.67 487.052 246.552 486.602C240.419 464.424 239.696 441.387 239.696 418.509C239.696 415.838 239.696 413.157 239.696 410.506C239.696 401.253 239.815 391.94 239.988 382.637C239.988 380.226 240.096 377.825 240.15 375.405C240.301 369.263 240.517 363.12 240.797 356.978C240.862 355.268 240.948 353.567 241.046 351.867C241.046 350.886 241.1 349.906 241.208 348.926C241.467 345.365 241.683 341.833 241.942 338.312Z" fill="#49B8AF"/>
<path opacity="0.1" d="M351.51 184.241H291.409C301.179 170.072 311.853 156.457 323.376 143.468C332.304 133.304 341.729 123.401 351.51 113.858V184.241Z" fill="#49B8AF"/>
<path opacity="0.1" d="M351.51 188.523V334.031H242.287C242.287 333.611 242.363 333.181 242.395 332.76C242.492 331.61 242.589 330.46 242.697 329.319C242.816 327.979 242.946 326.628 243.086 325.318C243.226 324.008 243.378 322.407 243.539 320.957C243.701 319.506 243.853 318.036 244.036 316.585C244.22 315.135 244.382 313.684 244.576 312.244C244.77 310.803 244.943 309.343 245.148 307.902C245.31 306.702 245.483 305.511 245.655 304.311C245.904 302.62 246.163 300.92 246.444 299.239C246.444 298.989 246.519 298.729 246.562 298.489C248.533 286.187 251.218 273.992 254.605 261.957C258.151 249.333 262.68 236.963 268.154 224.945C273.973 212.372 280.786 200.215 288.537 188.573L351.51 188.523Z" fill="#49B8AF"/>
<path opacity="0.1" d="M377.669 338.302V476.688H611.693V338.302H377.669ZM377.669 480.96V599.799C379.008 600.059 380.335 600.309 381.653 600.519C383.445 600.839 385.226 601.13 387.051 601.38C387.396 601.43 387.752 601.48 388.13 601.51C388.843 601.62 389.577 601.71 390.289 601.8C392.092 602.03 393.884 602.22 395.687 602.37C396.54 602.45 397.404 602.52 398.268 602.58L400.351 602.73C401.485 602.81 402.608 602.87 403.72 602.9C404.41 602.9 405.101 602.96 405.814 602.98C406.354 602.98 406.894 602.98 407.455 602.98C408.016 602.98 408.815 602.98 409.495 602.98C410.424 602.98 411.352 602.98 412.27 602.98H413.512C414.44 602.98 415.368 602.98 416.286 602.9H416.351C416.988 602.9 417.636 602.9 418.283 602.82C418.463 602.83 418.643 602.83 418.823 602.82C419.363 602.82 419.903 602.82 420.421 602.75H420.799L424.415 602.49C425.603 602.39 426.801 602.26 428.011 602.14L430.472 601.87C440.486 600.57 450.389 598.618 460.107 596.028C481.936 590.386 503.291 582.493 525.11 576.711C553.32 569.259 584.488 565.598 611.747 574.711V480.96H377.669ZM611.693 184.241V0.0100116C586.072 -0.247197 560.52 2.52953 535.657 8.27276C476.398 22.0673 423.228 51.9873 377.669 90.2V184.231H389.415V188.503H377.669V334.031H611.693V188.513H437.641V184.241H611.693ZM912.286 122.011C897.625 121.53 883.051 117.229 869.869 110.587C844.66 97.8825 824.526 78.266 802.027 61.7105C755.28 27.229 697.306 6.42214 637.831 1.26043V184.241H971.912L972.744 183.431L912.286 122.011ZM942.72 117.009L974.989 149.82V108.406C964.182 109.646 954.714 112.597 942.763 116.969L942.72 117.009ZM974.989 629.309V480.96H906.23C906.046 480.329 905.862 479.689 905.647 479.049C905.852 479.689 906.024 480.329 906.219 480.96H637.874V588.245C640.422 589.996 642.937 591.836 645.431 593.707C648.119 595.708 650.775 597.818 653.442 599.889L656.13 601.95C657.414 602.95 658.71 603.951 660.016 604.891C662.607 606.838 665.224 608.759 667.865 610.653C669.171 611.653 670.51 612.553 671.838 613.494C692.919 628.428 715.158 641.906 738.374 653.817C743.577 656.485 748.828 659.089 754.125 661.63C757.655 663.3 761.207 664.961 764.77 666.571C770.125 668.992 775.523 671.326 780.964 673.574C831.129 694.439 884.175 708.757 938.585 716.118C950.669 717.772 962.801 719.072 974.978 720.019V629.299H976.058L974.989 629.309ZM637.874 188.513V334.031H975.032V188.513H637.874ZM637.874 338.302V476.688H975.032V338.302H637.874ZM1001.2 108.226V154.421L1042.39 112.547C1028.74 110.507 1015.01 109.05 1001.2 108.176V108.226ZM1001.2 338.352V476.688H1329.13V338.302L1001.2 338.352ZM1327.93 640.293L1329.09 480.96H1001.2V721.61C1022.32 722.432 1043.48 722.198 1064.57 720.909H1064.94C1075.02 720.322 1085.05 719.469 1095.03 718.349H1095.26C1148.51 712.605 1200.59 699.73 1249.86 680.126L1327.93 640.293ZM1392.36 361.09C1391.13 358.399 1389.85 355.728 1388.54 353.087C1386.1 348.086 1383.52 343.224 1380.86 338.362H1355.28V476.688H1419.97C1419.94 437.515 1409.24 397.502 1392.39 361.04L1392.36 361.09ZM1355.28 481.01V618.055C1373.5 601.87 1388.9 583.354 1399.98 562.187C1413.32 536.698 1419.42 509.099 1419.91 480.99L1355.28 481.01ZM1355.28 298.029V334.041H1378.47C1371.45 321.644 1363.72 309.606 1355.31 297.979L1355.28 298.029ZM1132.88 135.375C1131.17 134.775 1129.47 134.165 1127.75 133.574C1109.65 127.38 1091.15 122.228 1072.36 118.149L1009.33 182.241L1008.12 183.431L1008.93 184.251H1233.25C1202.01 164.325 1168.33 147.902 1132.91 135.325L1132.88 135.375ZM1239.83 188.563H1005.8L1001.2 192.464V334.031H1041.51H1041.58H1329.17V265.458C1303.16 236.304 1273.13 210.435 1239.86 188.513L1239.83 188.563Z" fill="#49B8AF"/>
<path opacity="0.1" d="M351.51 261.917V334.031H242.287C242.287 333.611 242.363 333.181 242.395 332.761C242.492 331.61 242.589 330.46 242.697 329.319C242.816 327.979 242.946 326.628 243.086 325.318C243.226 324.008 243.378 322.407 243.539 320.957C243.701 319.506 243.853 318.036 244.036 316.585C244.22 315.135 244.382 313.684 244.576 312.244C244.77 310.803 244.943 309.343 245.148 307.902C245.31 306.702 245.483 305.511 245.655 304.311C245.904 302.621 246.163 300.92 246.444 299.239C246.444 298.989 246.519 298.729 246.562 298.489C248.533 286.187 251.218 273.992 254.605 261.957L351.51 261.917Z" fill="#49B8AF"/>
<path opacity="0.1" d="M241.942 338.312H351.51V476.688H249.963C249.693 478.109 249.434 479.539 249.153 480.97H351.51V592.567C351.327 592.517 351.165 592.457 350.992 592.397C348.099 591.336 345.227 590.216 342.355 589.016L340.52 588.245C337.641 586.985 334.762 585.651 331.883 584.244C330.879 583.754 329.875 583.244 328.882 582.723C312.899 574.428 298.38 563.916 285.827 551.553C285.46 551.223 285.115 550.873 284.748 550.553C282.999 548.792 281.282 547.012 279.62 545.191L277.784 543.19C275.819 540.96 273.919 538.669 272.073 536.348C271.803 536.008 271.544 535.668 271.264 535.348C263.755 525.702 257.521 515.257 252.694 504.237C252.543 503.907 252.414 503.547 252.273 503.237C250.791 499.703 249.477 496.135 248.333 492.533C247.836 491.023 247.361 489.532 246.951 487.962C246.8 487.502 246.67 487.052 246.552 486.602C240.419 464.424 239.696 441.387 239.696 418.509C239.696 415.838 239.696 413.157 239.696 410.506C239.696 401.253 239.815 391.94 239.988 382.637C239.988 380.226 240.096 377.825 240.15 375.405C240.301 369.263 240.517 363.12 240.797 356.978C240.862 355.268 240.948 353.567 241.046 351.867C241.046 350.886 241.1 349.906 241.208 348.926C241.467 345.365 241.683 341.833 241.942 338.312Z" fill="#49B8AF"/>
<path opacity="0.1" d="M460.053 209.35V334.031H377.669V209.35H389.415V167.135H437.63V209.35H460.053Z" fill="#49B8AF"/>
<path opacity="0.1" d="M460.053 338.302H377.68V476.678H460.053V338.302Z" fill="#49B8AF"/>
<path opacity="0.1" d="M377.669 480.97H460.053V596.008C450.335 598.595 440.432 600.544 430.418 601.84L427.957 602.12C426.747 602.25 425.549 602.36 424.361 602.47C423.174 602.58 421.943 602.66 420.745 602.73H420.367C419.849 602.73 419.287 602.79 418.78 602.8H418.229C417.582 602.8 416.934 602.86 416.286 602.88C415.368 602.93 414.451 602.94 413.512 602.95C413.112 602.95 412.734 602.95 412.335 602.95C411.406 602.95 410.489 602.95 409.56 602.95H407.52C406.969 602.95 406.44 602.95 405.868 602.95L403.784 602.88C402.705 602.88 401.539 602.77 400.416 602.7L398.343 602.56L395.763 602.34C393.949 602.19 392.146 602 390.365 601.77L388.206 601.49L387.126 601.35C385.323 601.09 383.542 600.809 381.728 600.489C380.4 600.279 379.083 600.019 377.744 599.769L377.669 480.97Z" fill="#49B8AF"/>
<path opacity="0.1" d="M975.033 194.625H907.104V334.021H975.033V194.625Z" fill="#49B8AF"/>
<path opacity="0.1" d="M975.043 338.302V476.688H637.874V416.998H817.465V452.21H907.104V338.302H975.043Z" fill="#49B8AF"/>
<path opacity="0.1" d="M976.112 629.339H975.032V720.119C962.869 719.165 950.741 717.868 938.65 716.228C884.213 708.843 831.145 694.495 780.964 673.594C766.476 667.552 752.282 660.956 738.384 653.807C715.169 641.89 692.927 628.413 671.838 613.484C666.541 609.722 661.312 605.874 656.151 601.94C652.578 599.209 649.026 596.408 645.431 593.687C642.937 591.816 640.422 589.976 637.874 588.215V480.97H906.208C906.025 480.329 905.841 479.689 905.647 479.059C905.852 479.689 906.046 480.329 906.23 480.97H975.032V629.279C975.4 629.289 975.756 629.319 976.112 629.339Z" fill="#49B8AF"/>
<path opacity="0.1" d="M1152.19 184.241H1107.93V171.497H1127.77V133.534C1129.49 134.114 1131.21 134.711 1132.91 135.325V171.497H1152.19V184.241Z" fill="#49B8AF"/>
<path opacity="0.1" d="M1258.84 334.031H1041.54C1041.54 334.031 1041.54 334.031 1041.61 334.081L1041.51 334.031H1001.2V194.635H1012.62V297.669H1064.82V236.649H1107.94V188.523H1152.21V236.689H1195.32V297.709H1258.84V334.031Z" fill="#49B8AF"/>
<path opacity="0.1" d="M1001.2 338.302V476.688H1258.84V338.302H1001.2ZM1328.77 639.582L1329.13 530.046H1258.84V481.03H1001.2V721.61C1022.32 722.432 1043.48 722.198 1064.57 720.909H1064.94C1075.02 720.323 1085.05 719.469 1095.03 718.349H1095.26C1148.51 712.605 1200.59 699.73 1249.86 680.126" fill="#49B8AF"/>
<path opacity="0.1" d="M1359.86 480.97H1419.96C1419.43 509.069 1413.34 536.668 1400.02 562.157C1388.93 583.334 1373.52 601.85 1355.32 618.025V529.996H1359.86V480.97Z" fill="#49B8AF"/>
<path opacity="0.1" d="M1419.99 476.688H1359.86V361.04H1392.39C1409.24 397.502 1419.94 437.515 1419.99 476.688Z" fill="#49B8AF"/>
<path opacity="0.1" d="M975.043 233.377H938.65V277.082H975.043V233.377Z" fill="#49B8AF"/>
<path opacity="0.1" d="M975.043 323.968H938.65V334.031H975.043V323.968Z" fill="#49B8AF"/>
<path opacity="0.1" d="M975.043 338.302H938.65V367.662H975.043V338.302Z" fill="#49B8AF"/>
<path opacity="0.1" d="M975.043 414.558H938.65V458.262H975.043V414.558Z" fill="#49B8AF"/>
<path opacity="0.1" d="M975.043 505.148H938.65V548.852H975.043V505.148Z" fill="#49B8AF"/>
<path opacity="0.1" d="M975.032 629.279C975.4 629.279 975.756 629.279 976.112 629.339H975.032V639.492H938.65V595.738H975.032V629.279Z" fill="#49B8AF"/>
<path opacity="0.1" d="M975.033 686.308V720.069C962.869 719.115 950.742 717.818 938.65 716.178V686.308H975.033Z" fill="#49B8AF"/>
<path opacity="0.1" d="M793.843 473.477H637.874V476.688H793.843V473.477Z" fill="#49B8AF"/>
<path opacity="0.1" d="M793.843 480.96H637.874V493.264H793.843V480.96Z" fill="#49B8AF"/>
<path opacity="0.1" d="M793.843 533.597H637.874V553.384H793.843V533.597Z" fill="#49B8AF"/>
<path opacity="0.1" d="M793.833 593.717V613.504H671.838C666.541 609.756 661.308 605.908 656.141 601.96C652.567 599.229 649.026 596.428 645.42 593.717H793.833Z" fill="#49B8AF"/>
<path opacity="0.1" d="M793.833 653.827V673.594H780.953C766.479 667.545 752.29 660.946 738.384 653.797L793.833 653.827Z" fill="#49B8AF"/>
<path opacity="0.1" d="M1095.29 351.717H1064.59V380.166H1095.29V351.717Z" fill="#49B8AF"/>
<path opacity="0.1" d="M430.494 219.163H399.79V247.612H430.494V219.163Z" fill="#49B8AF"/>
<path opacity="0.1" d="M430.494 285.245H399.79V313.694H430.494V285.245Z" fill="#49B8AF"/>
<path opacity="0.1" d="M430.494 351.327H399.79V379.776H430.494V351.327Z" fill="#49B8AF"/>
<path opacity="0.1" d="M430.494 417.399H399.79V445.848H430.494V417.399Z" fill="#49B8AF"/>
<path opacity="0.1" d="M430.494 483.481H399.79V511.93H430.494V483.481Z" fill="#49B8AF"/>
<path opacity="0.1" d="M430.494 549.562H399.79V578.012H430.494V549.562Z" fill="#49B8AF"/>
<path opacity="0.1" d="M1212.5 351.717H1181.8V380.166H1212.5V351.717Z" fill="#49B8AF"/>
<path opacity="0.1" d="M1095.29 421.89H1064.59V450.34H1095.29V421.89Z" fill="#49B8AF"/>
<path opacity="0.1" d="M1212.5 421.89H1181.8V450.34H1212.5V421.89Z" fill="#49B8AF"/>
<path opacity="0.1" d="M1095.29 492.053H1064.59V520.503H1095.29V492.053Z" fill="#49B8AF"/>
<path opacity="0.1" d="M1212.5 492.053H1181.8V520.503H1212.5V492.053Z" fill="#49B8AF"/>
<path opacity="0.1" d="M1095.29 562.227H1064.59V590.676H1095.29V562.227Z" fill="#49B8AF"/>
<path opacity="0.1" d="M1212.5 562.227H1181.8V590.676H1212.5V562.227Z" fill="#49B8AF"/>
<path opacity="0.1" d="M1095.29 632.4H1064.59V660.849H1095.29V632.4Z" fill="#49B8AF"/>
<path opacity="0.1" d="M1212.5 632.4H1181.8V660.849H1212.5V632.4Z" fill="#49B8AF"/>
<path opacity="0.1" d="M1064.59 720.909V702.563H1095.28V718.299L1064.59 720.909Z" fill="#49B8AF"/>
<path opacity="0.1" d="M246.433 298.469V314.745H351.51V298.469H246.433ZM256.905 313.724H248.333V299.469H256.97L256.905 313.724ZM267.366 313.724H258.729V299.469H267.366V313.724ZM277.806 313.724H269.169V299.469H277.806V313.724ZM288.267 313.724H279.641V299.469H288.278L288.267 313.724ZM298.718 313.724H290.081V299.469H298.718V313.724ZM309.179 313.724H300.542V299.469H309.179V313.724ZM319.64 313.724H311.004V299.469H319.64V313.724ZM330.091 313.724H321.454V299.469H330.091V313.724ZM340.541 313.724H331.905V299.469H340.541V313.724ZM350.992 313.724H342.355V299.469H350.992V313.724Z" fill="#49B8AF"/>
<path opacity="0.1" d="M246.433 345.825V362.1H351.51V345.825H246.433ZM256.905 361.07H248.333V346.855H256.97L256.905 361.07ZM267.366 361.07H258.729V346.855H267.366V361.07ZM277.806 361.07H269.169V346.855H277.806V361.07ZM288.267 361.07H279.641V346.855H288.278L288.267 361.07ZM298.718 361.07H290.081V346.855H298.718V361.07ZM309.179 361.07H300.542V346.855H309.179V361.07ZM319.64 361.07H311.004V346.855H319.64V361.07ZM330.091 361.07H321.454V346.855H330.091V361.07ZM340.541 361.07H331.905V346.855H340.541V361.07ZM350.992 361.07H342.355V346.855H350.992V361.07Z" fill="#49B8AF"/>
<path opacity="0.1" d="M246.433 393.201V409.506H351.51V393.201H246.433ZM256.905 408.446H248.333V394.221H256.97L256.905 408.446ZM267.366 408.446H258.729V394.221H267.366V408.446ZM277.806 408.446H269.169V394.221H277.806V408.446ZM288.267 408.446H279.641V394.221H288.278L288.267 408.446ZM298.718 408.446H290.081V394.221H298.718V408.446ZM309.179 408.446H300.542V394.221H309.179V408.446ZM319.64 408.446H311.004V394.221H319.64V408.446ZM330.091 408.446H321.454V394.221H330.091V408.446ZM340.541 408.446H331.905V394.221H340.541V408.446ZM350.992 408.446H342.355V394.221H350.992V408.446Z" fill="#49B8AF"/>
<path opacity="0.1" d="M246.433 440.576V456.832H351.51V440.576H246.433ZM256.905 455.821H248.333V441.587H256.97L256.905 455.821ZM267.366 455.821H258.729V441.587H267.366V455.821ZM277.806 455.821H269.169V441.587H277.806V455.821ZM288.267 455.821H279.641V441.587H288.278L288.267 455.821ZM298.718 455.821H290.081V441.587H298.718V455.821ZM309.179 455.821H300.542V441.587H309.179V455.821ZM319.64 455.821H311.004V441.587H319.64V455.821ZM330.091 455.821H321.454V441.587H330.091V455.821ZM340.541 455.821H331.905V441.587H340.541V455.821ZM350.992 455.821H342.355V441.587H350.992V455.821Z" fill="#49B8AF"/>
<path opacity="0.1" d="M246.886 487.942C247.307 489.473 247.782 491.003 248.279 492.514V488.962H256.916V503.187H252.295C252.435 503.517 252.576 503.877 252.716 504.187H351.51V487.942H246.886ZM267.399 503.187H258.762V488.962H267.399V503.187ZM277.838 503.187H269.202V488.962H277.838V503.187ZM288.3 503.187H279.641V488.962H288.278L288.3 503.187ZM298.75 503.187H290.113V488.962H298.75V503.187ZM309.211 503.187H300.575V488.962H309.211V503.187ZM319.673 503.187H311.036V488.962H319.673V503.187ZM330.123 503.187H321.487V488.962H330.123V503.187ZM340.574 503.187H331.937V488.962H340.574V503.187ZM351.024 503.187H342.388V488.962H351.024V503.187Z" fill="#49B8AF"/>
<path opacity="0.1" d="M271.285 535.318C271.555 535.638 271.814 535.998 272.095 536.318H277.806V543.15C278.421 543.831 279.026 544.511 279.652 545.151V536.278H288.289V550.553H284.791C285.136 550.883 285.471 551.233 285.871 551.553H351.543V535.318H271.285ZM298.718 550.553H290.081V536.338H298.718V550.553ZM309.179 550.553H300.542V536.338H309.179V550.553ZM319.64 550.553H311.004V536.338H319.64V550.553ZM330.091 550.553H321.454V536.338H330.091V550.553ZM340.541 550.553H331.905V536.338H340.541V550.553ZM350.992 550.553H342.355V536.338H350.992V550.553Z" fill="#49B8AF"/>
<path opacity="0.1" d="M328.925 582.683C329.907 583.204 330.911 583.684 331.926 584.204V583.704H340.563V588.205L342.398 588.996V583.704H351.035V592.357C351.201 592.433 351.374 592.493 351.553 592.537V582.683H328.925Z" fill="#49B8AF"/>
<path opacity="0.1" d="M1041.54 334.031H1041.6H1041.54ZM975.033 629.269H976.112H975.033ZM905.647 479.049C905.852 479.689 906.025 480.33 906.219 480.96C906.046 480.33 905.863 479.689 905.647 479.049ZM1041.54 334.001H1041.6H1041.54ZM389.458 184.211V188.483H437.684V184.211H389.458ZM975.033 629.269H976.112H975.033ZM905.647 479.049C905.852 479.689 906.025 480.33 906.219 480.96C906.046 480.33 905.863 479.689 905.647 479.049ZM1041.54 334.001H1041.6H1041.54ZM975.033 629.239H976.112H975.033ZM905.647 479.049C905.852 479.689 906.025 480.33 906.219 480.96C906.046 480.33 905.863 479.689 905.647 479.049Z" fill="#49B8AF"/>
<path d="M725.343 379.796C725.343 379.796 721.089 379.246 721.089 373.504C721.089 367.762 718.045 357.039 718.045 357.039C718.045 356.989 715.411 338.362 711.772 335.401C708.134 332.44 703.459 315.055 703.459 315.055C703.459 315.055 702.66 305.622 701.03 303.591C699.4 301.56 697.198 296.589 693.948 289.496C690.699 282.404 677.15 277.492 677.15 277.492C677.15 277.492 652.653 264.328 645.712 260.036C645.081 259.684 644.491 259.271 643.952 258.806C642.743 257.335 637.474 257.305 637.474 257.305C636.924 254.084 636.395 250.383 636.222 247.032C636.222 246.672 636.222 246.312 636.168 245.952C643.909 241.712 649.739 235.028 652.589 227.125C652.718 226.745 652.826 226.345 652.945 225.965C653.409 225.823 653.836 225.594 654.198 225.291C654.561 224.987 654.851 224.618 655.05 224.204C655.676 222.914 655.687 221.404 656.464 220.203C657.371 218.783 659.099 218.022 660.459 216.952C663.892 214.251 664.777 209.7 664.615 205.558C664.507 202.207 663.924 198.826 664.151 195.495L664.216 194.655C664.281 194.154 664.356 193.654 664.453 193.174C664.982 190.693 666.138 188.353 666.785 185.892C667.433 183.431 667.498 180.66 665.986 178.539C663.773 175.428 659.163 174.808 655.115 174.488C650.527 174.128 646.424 174.598 643.488 171.067C642.113 169.221 640.567 167.491 638.867 165.895C638.262 165.375 632.389 162.054 632.389 161.834C626.657 159.374 620.16 158.912 614.09 160.533C611.046 161.354 608.174 162.694 605.086 163.364C598.425 164.825 590.76 163.244 585.103 166.775C581.951 168.776 580.061 171.957 578.291 175.058C576.851 177.612 575.39 180.163 573.908 182.711C571.522 186.902 569.092 191.163 568.088 195.805C567.877 196.815 567.747 197.838 567.7 198.866V198.916C567.7 199.286 567.7 199.656 567.7 200.026V200.497C567.7 200.847 567.7 201.187 567.765 201.497C567.829 201.807 567.819 201.907 567.851 202.117C567.883 202.327 567.937 202.797 568.002 203.117C568.067 203.438 568.196 203.998 568.326 204.438C568.38 204.628 568.456 204.808 568.52 204.988C568.628 205.328 568.758 205.658 568.898 205.988C568.974 206.158 569.049 206.339 569.136 206.509C569.298 206.859 569.492 207.199 569.686 207.509C569.773 207.649 569.837 207.779 569.924 207.909C570.225 208.374 570.557 208.822 570.917 209.25C573.227 211.92 576.628 213.621 579.144 216.122C579.144 216.222 579.144 216.322 579.144 216.412C579.144 216.692 579.144 216.962 579.144 217.242C579.277 222.82 580.879 228.282 583.811 233.155C586.742 238.028 590.914 242.163 595.964 245.201C595.964 245.582 596.018 245.972 596.039 246.352C596.25 249.321 596.21 252.301 595.921 255.265C595.481 254.785 594.931 254.403 594.31 254.147C593.69 253.89 593.015 253.767 592.336 253.784C591.872 253.763 591.408 253.8 590.954 253.894L590.857 253.824V253.914C588.482 254.455 585.556 256.745 582.76 263.257C582.76 263.257 574.253 272.14 567.775 271.77C561.298 271.4 544.899 281.013 544.899 281.013C544.899 281.013 528.899 290.637 525.466 300.44C523.547 305.999 521.246 311.438 518.578 316.725L498.8 354.488L495.151 384.448C495.151 384.448 497.17 397.772 496.77 399.803C496.371 401.833 505.072 420.15 505.072 420.15C505.072 420.15 533.822 466.955 545.568 469.356L546.41 468.806C546.913 469.049 547.446 469.234 547.997 469.356L550.415 467.775C550.561 469.537 550.499 471.308 550.232 473.057C548.613 477.679 550.836 507.839 553.665 513.751C556.494 519.663 555.49 597.178 555.49 597.178L555.09 604.021C555.09 604.021 555.09 604.241 555.187 604.621L555.09 606.241L555.382 606.381C555.684 608.552 555.586 610.754 555.09 612.894C554.075 615.895 553.665 624.377 553.665 624.377C553.665 624.377 545.579 672.273 549.411 681.896C553.244 691.52 556.504 702.063 556.504 702.063C556.504 702.063 560.553 714.067 556.699 716.118C552.845 718.169 541.887 721.61 544.143 726.611C546.194 731.233 553.978 743.617 555.133 745.428L555.036 746.378L553.449 762.313C553.706 764.417 554.322 766.47 555.274 768.395C557.012 771.866 560.391 775.468 566.815 775.077C567.894 775.007 569.146 774.887 570.356 774.737C582.112 773.277 596.59 768.415 596.59 768.415C595.838 767.973 595.149 767.445 594.539 766.845C593.961 766.326 593.503 765.704 593.193 765.016C592.883 764.328 592.727 763.589 592.736 762.843C592.908 759.942 587.046 746.118 585.589 742.717C585.362 742.226 585.243 741.946 585.243 741.946C585.243 741.946 598.609 729.002 596.385 717.528C596.385 717.528 581.594 709.526 586.463 705.134C591.332 700.743 600.034 688.129 600.034 688.129C600.034 688.129 600.433 640.963 600.034 633.921C599.617 629.033 599.867 624.116 600.779 619.286C600.941 618.555 601.135 617.845 601.34 617.145C608.074 618.076 614.872 618.554 621.68 618.575C624.163 618.575 626.689 618.575 629.237 618.435C629.237 619.102 629.269 619.822 629.334 620.596C629.896 632.28 630.943 652.767 631.796 660.379C633.005 671.293 639.687 700.703 639.687 700.703C639.687 700.703 626.937 708.285 641.911 726.971C641.911 726.971 641.911 733.744 640.918 734.724C639.858 737.929 639.003 741.189 638.36 744.487C637.733 748.008 637.474 751.57 638.489 753.42C640.918 757.842 655.493 757.482 655.493 757.482L655.849 757.422C658.601 757.158 661.381 757.403 664.03 758.143C666.678 758.884 669.141 760.104 671.277 761.733C676.815 765.854 697.835 764.044 709.214 762.733C713.672 762.213 716.652 761.733 716.652 761.733C716.797 761.265 716.848 760.777 716.803 760.292C716.684 757.702 714.493 752.02 699.638 746.948C699.638 746.948 685.668 738.245 685.862 730.663H685.57H683.951C685.128 730.603 685.884 730.663 685.884 730.663C685.884 730.663 680.41 712.156 682.645 710.656C684.88 709.155 678.186 688.649 678.186 688.649C678.186 688.649 674.353 654.237 674.148 651.826C674.157 649.758 674.495 647.702 675.152 645.724L674.148 626.858C674.148 626.858 673.954 620.586 674.148 618.545C674.116 616.774 673.96 615.007 673.684 613.254C673.587 612.553 673.49 611.823 673.382 611.103C678.618 609.873 682.019 608.732 682.019 608.732L681.414 543.06C685.862 535.058 686.682 517.502 686.661 505.048C686.661 497.045 686.272 491.123 686.272 491.123L692.35 481.93C692.35 481.93 693.754 470.926 691.53 468.516C690.547 467.425 690.99 466.295 691.8 465.365C692.22 465.056 692.664 464.775 693.128 464.524C693.128 464.524 693.063 464.434 692.987 464.304C693.412 463.976 693.863 463.678 694.337 463.414C694.337 463.414 692.178 460.313 694.11 459.002C695.924 460.143 697.543 461.003 698.774 461.703C698.688 462.434 698.601 462.854 698.601 462.854L699.119 461.853C700.307 462.474 701.03 462.854 701.03 462.854C701.03 462.854 710.552 445.278 710.347 442.687C710.142 440.096 716.825 429.183 716.825 429.183C716.825 429.183 717.635 423.451 721.284 421.05C724.933 418.649 724.112 401.253 724.112 401.253C724.112 401.253 725.127 392.19 727.556 388.489C729.985 384.788 725.343 379.796 725.343 379.796ZM543.15 372.084L543.333 376.275C542.254 374.664 541.476 373.504 541.476 373.504L543.15 372.084Z" fill="url(#paint0_linear)"/>
<path d="M701.548 455.261L699.217 464.464C699.217 464.464 680.539 455.631 677.171 444.408C673.803 433.184 682.807 428.922 682.807 428.922L700.21 435.755L701.548 455.261Z" fill="white"/>
<path opacity="0.1" d="M701.548 455.261L699.217 464.464C699.217 464.464 680.539 455.631 677.171 444.408C673.803 433.184 682.807 428.922 682.807 428.922L700.21 435.755L701.548 455.261Z" fill="black"/>
<path d="M596.73 768.475C596.73 768.475 579.457 774.357 567.581 775.097C561.276 775.487 557.962 771.906 556.256 768.455C555.324 766.537 554.723 764.494 554.475 762.403L556.019 746.548L556.839 738.105L582.069 732.033L585.643 742.156L585.977 742.927C587.413 746.308 593.168 760.062 592.995 762.933C592.988 763.668 593.141 764.397 593.445 765.076C593.749 765.755 594.198 766.37 594.765 766.885C595.345 767.49 596.005 768.025 596.73 768.475Z" fill="white"/>
<path d="M714.72 760.413C714.763 760.894 714.712 761.379 714.568 761.843C714.568 761.843 677.625 767.555 670.067 761.843C667.937 760.174 665.453 758.937 662.776 758.21C660.099 757.483 657.287 757.282 654.521 757.622C654.521 757.622 640.227 757.982 637.841 753.62C636.848 751.79 637.107 748.238 637.723 744.737C638.35 741.457 639.187 738.213 640.227 735.024L640.799 734.604L644.2 732.073L684.016 730.983H684.318C684.124 738.525 697.835 747.178 697.835 747.178C712.398 752.18 714.547 757.832 714.72 760.413Z" fill="white"/>
<path opacity="0.1" d="M714.72 760.413C714.757 760.894 714.703 761.379 714.558 761.843C714.558 761.843 677.625 767.555 670.067 761.843C667.938 760.176 665.456 758.939 662.781 758.212C660.106 757.485 657.296 757.284 654.532 757.622C654.532 757.622 640.227 757.982 637.852 753.62C636.859 751.78 637.107 748.238 637.723 744.737C643.229 745.247 651.919 746.518 655.331 749.549C660.491 754.16 669.236 758.762 674.602 759.122C678.801 759.372 703.924 760.112 714.72 760.413Z" fill="black"/>
<path opacity="0.1" d="M596.73 768.475C596.73 768.475 579.457 774.357 567.581 775.097C561.276 775.487 557.962 771.906 556.267 768.445C560.661 769.816 566.761 771.256 569.967 769.936C573.767 768.375 587.241 767.365 594.798 766.935C595.373 767.518 596.022 768.035 596.73 768.475Z" fill="black"/>
<path d="M622.36 294.468C608.109 289.336 589.778 272.38 594.355 264.458C595.372 262.459 595.976 260.301 596.136 258.096C596.431 255.102 596.474 252.092 596.266 249.093C595.945 244.18 595.307 239.29 594.355 234.448C594.355 234.448 638.845 235.378 636.254 241.45C635.499 243.231 635.38 246.322 635.585 249.783C635.79 253.244 636.33 257.155 636.891 260.467C637.669 265.008 638.446 268.469 638.446 268.469C638.446 268.469 635.725 272 634.128 272.19C632.53 272.38 642.808 301.78 622.36 294.468Z" fill="#CF6F80"/>
<path opacity="0.1" d="M585.945 742.927L585.61 743.267C572.31 728.362 556.224 746.938 556.224 746.938L555.986 746.548L556.807 738.105L582.037 732.033L585.61 742.156L585.945 742.927Z" fill="black"/>
<path opacity="0.1" d="M684.329 732.033C684.329 732.033 674.613 731.843 669.43 736.084C664.248 740.326 639.202 737.005 640.281 736.084C640.601 735.628 640.794 735.106 640.843 734.564L644.243 732.033L684.059 730.943C684.21 731.613 684.329 732.033 684.329 732.033Z" fill="black"/>
<path d="M602.495 614.984C601.772 616.642 601.222 618.36 600.854 620.116C599.954 624.923 599.704 629.816 600.109 634.681C600.509 641.683 600.109 688.609 600.109 688.609C600.109 688.609 591.57 701.123 586.809 705.534C582.048 709.946 596.525 717.868 596.525 717.868C598.684 729.272 585.6 742.156 585.6 742.156C572.299 727.251 556.213 745.838 556.213 745.838C556.213 745.838 547.468 731.833 545.287 726.831C543.107 721.83 553.827 718.369 557.595 716.338C561.363 714.307 557.411 702.333 557.411 702.333C557.411 702.333 554.226 691.84 550.448 682.267C546.669 672.693 554.615 625.038 554.615 625.038C554.615 625.038 555.025 616.575 556.008 613.624C556.503 611.494 556.602 609.302 556.299 607.142C556.235 606.411 556.159 605.801 556.105 605.391C556.051 604.981 556.008 604.791 556.008 604.791L556.159 604.551L561.557 595.228C561.557 595.228 605.086 609.112 602.495 614.984Z" fill="#49B8AF"/>
<path d="M684.329 730.933C684.329 730.933 674.612 730.743 669.43 734.934C664.248 739.125 639.202 735.854 640.281 734.934C641.361 734.014 641.275 727.202 641.275 727.202C626.581 708.615 639.115 701.073 639.115 701.073C639.115 701.073 632.551 671.813 631.364 660.959C630.533 653.377 629.507 633 628.956 621.366C628.719 616.365 628.578 612.923 628.578 612.923L640.584 610.683L642.127 610.393L671.082 605.011C671.082 605.011 671.881 610.013 672.421 614.104C672.69 615.851 672.841 617.611 672.874 619.376C672.68 621.376 672.874 627.638 672.874 627.638L673.857 646.415C673.215 648.384 672.884 650.429 672.874 652.487C673.069 654.877 676.836 689.109 676.836 689.109C676.836 689.109 683.39 709.536 681.155 711.006C678.92 712.477 684.329 730.933 684.329 730.933Z" fill="#49B8AF"/>
<path opacity="0.1" d="M636.254 241.45C635.499 243.231 635.38 246.322 635.585 249.783C629.626 253.108 622.775 254.808 615.82 254.688C608.865 254.567 602.087 252.632 596.266 249.103C595.945 244.187 595.307 239.293 594.355 234.448C594.355 234.448 638.845 235.358 636.254 241.45Z" fill="black"/>
<path d="M653.452 219.343C653.461 222.948 652.849 226.53 651.639 229.956C648.934 237.633 643.387 244.176 635.98 248.429C628.572 252.683 619.78 254.373 611.157 253.201C602.535 252.029 594.637 248.07 588.86 242.025C583.082 235.979 579.798 228.236 579.586 220.163C579.586 219.883 579.586 219.623 579.586 219.343C579.502 214.799 580.396 210.285 582.215 206.065C584.033 201.844 586.741 198.001 590.179 194.76C593.617 191.519 597.718 188.945 602.241 187.188C606.764 185.431 611.62 184.526 616.525 184.526C621.429 184.526 626.285 185.431 630.808 187.188C635.332 188.945 639.432 191.519 642.87 194.76C646.309 198.001 649.016 201.844 650.835 206.065C652.654 210.285 653.547 214.799 653.463 219.343H653.452Z" fill="#CF6F80"/>
<path opacity="0.1" d="M622.36 294.468C608.109 289.336 589.778 272.38 594.355 264.458C595.372 262.459 595.976 260.301 596.136 258.096L615.645 272.951L627.715 282.124L636.891 260.476C637.669 265.018 638.446 268.479 638.446 268.479C638.446 268.479 635.725 272.01 634.128 272.2C632.53 272.39 642.808 301.78 622.36 294.468Z" fill="black"/>
<path d="M672.81 360.12L656.518 613.704L635.272 614.994L580.255 467.955L589.281 293.387L591.181 256.505L615.645 275.121L627.725 284.294L637.172 262.017L654.737 276.202L672.81 360.12Z" fill="#49B8AF"/>
<path opacity="0.1" d="M602.495 614.984C601.772 616.642 601.222 618.36 600.854 620.116C585.394 617.904 570.379 613.558 556.31 607.222L556.019 607.082L556.116 605.471L556.17 604.631L561.568 595.308C561.568 595.308 605.086 609.112 602.495 614.984Z" fill="black"/>
<path opacity="0.1" d="M640.832 620.156C636.88 620.779 632.894 621.199 628.892 621.416C628.654 616.415 628.514 612.974 628.514 612.974L640.519 610.733L640.832 620.156Z" fill="black"/>
<path opacity="0.1" d="M672.356 614.154C664.68 616.005 652.826 618.085 642.214 616.785L642.063 610.443L671.017 605.061C671.017 605.061 671.816 610.013 672.356 614.154Z" fill="black"/>
<path opacity="0.1" d="M642.019 617.945C597.756 624.948 557.217 604.871 557.217 604.871L557.606 598.069C557.606 598.069 558.61 520.953 555.824 515.041C553.039 509.129 550.869 479.149 552.445 474.548C554.021 469.946 546.691 400.943 546.691 400.943L545.503 372.934L502.039 356.619L521.471 319.086C524.096 313.824 526.354 308.411 528.23 302.881C531.609 293.137 547.295 283.564 547.295 283.564C547.295 283.564 563.381 274.001 569.74 274.361C576.099 274.721 584.434 265.898 584.434 265.898C590.587 251.364 596.158 257.946 596.158 257.946C596.158 258.636 596.158 257.946 595.856 260.096C593.697 276.052 630.77 326.468 631.299 327.359L634.829 407.045L638.403 507.889L642.019 617.945Z" fill="black"/>
<path d="M640.832 617.945C596.568 624.948 556.019 604.871 556.019 604.871L556.418 598.069C556.418 598.069 557.422 520.953 554.626 515.041C551.83 509.129 549.671 479.149 551.258 474.548C552.845 469.946 545.503 400.943 545.503 400.943L544.305 372.934L500.819 356.558L520.251 319.026C522.87 313.762 525.128 308.349 527.01 302.821C530.378 293.077 546.075 283.504 546.075 283.504C546.075 283.504 562.161 273.941 568.51 274.301C574.858 274.661 583.203 265.838 583.203 265.838C589.367 251.303 596.158 257.886 596.158 257.886C596.158 258.576 595.51 258.886 595.856 260.036C600.606 275.512 629.582 326.408 630.111 327.299L633.685 406.985L637.258 507.829L640.832 617.945Z" fill="white"/>
<path opacity="0.1" d="M628.902 329.569C624.141 327.729 598.922 301.05 598.922 301.05V294.978C598.004 292.977 592.552 294.198 588.126 295.598L590.026 258.716L592.185 260.376C596.914 275.842 628.352 328.679 628.902 329.569Z" fill="black"/>
<path d="M630.101 327.359C625.329 325.518 600.109 298.839 600.109 298.839V292.767C599.192 290.767 593.74 291.987 589.313 293.387L591.224 256.505L593.383 258.166C598.123 273.631 629.572 326.478 630.101 327.359Z" fill="white"/>
<path opacity="0.1" d="M557.217 460.413C557.811 460.413 587.996 457.472 587.996 457.472C587.996 457.472 606.274 490.773 605.076 498.876C603.877 506.978 601.707 514.151 594.355 512.88C587.003 511.61 554.788 513.881 554.788 513.881L557.217 460.413Z" fill="black"/>
<path d="M556.019 458.202C556.612 458.202 586.798 455.261 586.798 455.261C586.798 455.261 605.065 488.572 603.877 496.665C602.69 504.758 600.498 511.94 593.157 510.67C585.815 509.399 553.589 511.67 553.589 511.67L556.019 458.202Z" fill="white"/>
<path d="M578.766 442.567C578.766 442.567 606.468 456.361 607.062 460.573C607.656 464.784 592.962 458.732 589.788 458.002C587.699 457.536 585.573 457.228 583.43 457.082L562.259 457.612L578.766 442.567Z" fill="#CF6F80"/>
<path opacity="0.1" d="M621.172 331.29C622.782 331.29 624.087 330.081 624.087 328.589C624.087 327.097 622.782 325.888 621.172 325.888C619.562 325.888 618.257 327.097 618.257 328.589C618.257 330.081 619.562 331.29 621.172 331.29Z" fill="black"/>
<path d="M621.172 330.19C622.782 330.19 624.087 328.98 624.087 327.489C624.087 325.997 622.782 324.788 621.172 324.788C619.562 324.788 618.257 325.997 618.257 327.489C618.257 328.98 619.562 330.19 621.172 330.19Z" fill="#3F3D56"/>
<path opacity="0.1" d="M626.538 448.209C628.148 448.209 629.453 447 629.453 445.508C629.453 444.016 628.148 442.807 626.538 442.807C624.928 442.807 623.623 444.016 623.623 445.508C623.623 447 624.928 448.209 626.538 448.209Z" fill="black"/>
<path d="M626.538 447.098C628.148 447.098 629.453 445.889 629.453 444.398C629.453 442.906 628.148 441.697 626.538 441.697C624.928 441.697 623.623 442.906 623.623 444.398C623.623 445.889 624.928 447.098 626.538 447.098Z" fill="#3F3D56"/>
<path opacity="0.1" d="M624.076 389.749C625.686 389.749 626.991 388.54 626.991 387.049C626.991 385.557 625.686 384.348 624.076 384.348C622.467 384.348 621.162 385.557 621.162 387.049C621.162 388.54 622.467 389.749 624.076 389.749Z" fill="black"/>
<path d="M624.076 388.649C625.686 388.649 626.991 387.44 626.991 385.948C626.991 384.457 625.686 383.247 624.076 383.247C622.467 383.247 621.162 384.457 621.162 385.948C621.162 387.44 622.467 388.649 624.076 388.649Z" fill="#3F3D56"/>
<path d="M691.271 456.522C691.271 456.522 693.257 459.282 691.271 460.573C689.284 461.863 691.465 464.984 691.465 464.984C691.465 464.984 686.51 467.675 688.69 470.096C690.871 472.517 689.489 483.451 689.489 483.451L683.53 492.594C683.53 492.594 683.886 498.485 683.908 506.448C683.908 518.872 683.12 536.338 678.758 544.301L679.363 609.632C679.363 609.632 658.494 616.695 641.026 614.544L638.435 509.709C638.435 509.709 642.214 450.259 643.606 438.856C644.421 432.935 644.753 426.966 644.6 421C644.6 421 644.006 403.154 642.009 394.871C642.009 394.871 639.849 358.989 639.633 349.056C639.536 344.304 639.806 330.44 640.109 317.255C640.443 302.841 640.821 289.246 640.821 289.246L636.88 260.356C636.88 260.356 640.821 259.986 642.009 261.457C642.541 261.917 643.119 262.329 643.736 262.687C650.537 266.949 674.569 280.053 674.569 280.053C674.569 280.053 687.87 284.955 691.055 291.977C694.24 298.999 696.453 303.981 697.997 305.982C699.54 307.982 700.382 317.385 700.382 317.385C700.382 317.385 704.96 334.691 708.533 337.622C712.107 340.553 714.72 359.199 714.72 359.199L683.141 382.207C683.141 382.207 680.367 420.48 679.773 421.96C679.179 423.441 691.271 456.522 691.271 456.522Z" fill="white"/>
<path d="M692.469 456.522C692.469 456.522 694.445 459.283 692.469 460.573C690.493 461.863 692.653 464.984 692.653 464.984C692.653 464.984 687.73 467.705 689.889 470.126C692.048 472.547 690.688 483.481 690.688 483.481L684.728 492.624C684.728 492.624 685.085 498.516 685.117 506.478C685.117 518.902 684.329 536.368 679.967 544.331L680.561 609.662C680.561 609.662 659.66 616.725 642.214 614.574L639.634 509.739C639.634 509.739 643.412 450.29 644.805 438.886C645.621 432.965 645.949 426.996 645.787 421.03C645.787 421.03 645.193 403.184 643.207 394.901C643.207 394.901 641.048 359.019 640.821 349.086C640.724 344.334 641.005 330.47 641.296 317.285C641.631 302.871 642.009 289.276 642.009 289.276L636.805 259.996C636.805 259.996 642.009 259.996 643.207 261.487C643.734 261.953 644.313 262.365 644.934 262.717C651.736 266.979 675.778 280.083 675.778 280.083C675.778 280.083 689.068 284.985 692.253 292.007C695.438 299.029 697.651 304.011 699.206 306.012C700.76 308.012 701.581 317.415 701.581 317.415C701.581 317.415 706.158 334.721 709.732 337.652C713.305 340.583 715.886 359.189 715.886 359.189L684.307 382.197C684.307 382.197 681.533 420.47 680.928 421.95C680.324 423.431 692.469 456.522 692.469 456.522Z" fill="white"/>
<path opacity="0.1" d="M654.651 297.769L657.501 305.471L642.494 319.476C642.829 305.071 643.207 291.467 643.207 291.467L638.003 262.187C638.003 262.187 643.207 262.187 644.405 263.677C644.931 264.142 645.51 264.551 646.133 264.898L658.894 299.009L654.651 297.769Z" fill="black"/>
<path d="M653.452 295.558L656.313 303.261L641.307 317.265C641.642 302.851 642.019 289.256 642.019 289.256L636.805 259.976C636.805 259.976 642.019 259.976 643.207 261.467C643.737 261.93 644.315 262.342 644.934 262.697L657.706 296.799L653.452 295.558Z" fill="white"/>
<path opacity="0.1" d="M653.452 219.343C653.461 222.948 652.849 226.53 651.639 229.956C651.435 229.986 651.226 229.977 651.026 229.931C650.826 229.884 650.638 229.801 650.473 229.686C650.192 220.683 645.409 212.231 639.526 205.038C637.874 202.867 635.871 200.943 633.588 199.336C631.279 197.73 628.408 196.977 625.534 197.226C622.295 197.636 619.434 199.676 616.163 199.936C611.845 200.267 607.98 197.496 603.694 197.356C601.951 197.371 600.232 197.73 598.652 198.41C597.071 199.09 595.665 200.074 594.528 201.297C592.276 203.765 590.603 206.64 589.616 209.74C587.918 214.44 586.994 219.35 586.874 224.305C586.82 227.105 586.528 230.617 583.721 231.637C583.932 229.577 583.68 227.499 582.979 225.534C582.279 223.569 581.145 221.761 579.651 220.223L579.586 220.163C579.586 219.883 579.586 219.623 579.586 219.343C579.502 214.799 580.396 210.285 582.215 206.065C584.033 201.844 586.741 198.001 590.179 194.76C593.617 191.519 597.718 188.945 602.241 187.188C606.764 185.431 611.62 184.526 616.525 184.526C621.429 184.526 626.285 185.431 630.808 187.188C635.332 188.945 639.432 191.519 642.87 194.76C646.309 198.001 649.016 201.844 650.835 206.065C652.654 210.285 653.547 214.799 653.463 219.343H653.452Z" fill="black"/>
<path d="M631.817 164.995C626.207 162.55 619.826 162.087 613.874 163.694C610.884 164.515 608.066 165.845 605.032 166.515C598.555 167.966 590.998 166.395 585.438 169.906C582.35 171.907 580.493 175.068 578.766 178.139L574.447 185.762C572.094 189.933 569.719 194.174 568.736 198.766C567.754 203.358 568.348 208.499 571.489 212.19C573.778 214.881 577.157 216.572 579.64 219.103C581.128 220.642 582.256 222.45 582.955 224.412C583.653 226.374 583.907 228.449 583.7 230.507C586.517 229.506 586.787 225.985 586.852 223.184C586.972 218.229 587.897 213.319 589.594 208.619C590.579 205.519 592.253 202.643 594.506 200.176C595.645 198.954 597.051 197.971 598.631 197.291C600.212 196.612 601.93 196.252 603.672 196.235C607.991 196.375 611.866 199.136 616.141 198.806C619.38 198.556 622.252 196.505 625.512 196.105C628.387 195.853 631.26 196.606 633.566 198.216C635.849 199.821 637.848 201.744 639.493 203.918C645.388 211.11 650.17 219.543 650.451 228.566C651.671 229.396 653.431 228.316 654.035 227.035C654.64 225.755 654.662 224.254 655.428 223.034C656.313 221.624 658.008 220.873 659.336 219.813C662.705 217.122 663.547 212.591 663.417 208.479C663.288 204.368 662.424 200.197 663.266 196.155C663.773 193.674 664.918 191.354 665.544 188.903C666.17 186.452 666.246 183.701 664.767 181.59C662.607 178.489 658.062 177.879 654.1 177.589C649.598 177.229 645.571 177.689 642.7 174.178C641.352 172.346 639.834 170.625 638.165 169.036C637.593 168.516 631.817 165.215 631.817 164.995Z" fill="#512E4E"/>
<path opacity="0.1" d="M514.476 375.945L503.194 356.618L499.62 386.438C499.62 386.438 501.607 399.683 501.207 401.713C500.808 403.744 509.348 421.95 509.348 421.95C509.348 421.95 537.557 468.506 549.077 470.906L587.996 445.138L577.675 432.994C577.675 432.994 574.102 431.703 573.206 432.994C573.206 432.994 554.043 402.444 552.056 400.233C550.07 398.022 550.459 393.611 550.459 393.611C550.459 393.611 547.479 390.67 548.472 387.909C549.465 385.148 542.718 375.575 542.718 375.575L548.872 370.243L514.476 375.945Z" fill="black"/>
<path d="M503.788 354.418L500.808 356.618L497.234 386.438C497.234 386.438 499.221 399.683 498.821 401.713C498.422 403.744 506.972 421.95 506.972 421.95C506.972 421.95 535.171 468.506 546.691 470.906L585.621 445.138L575.289 432.994C575.289 432.994 571.716 431.703 570.82 432.994C570.82 432.994 551.657 402.444 549.67 400.233C547.684 398.022 548.083 393.611 548.083 393.611C548.083 393.611 545.104 390.67 546.097 387.909C547.09 385.148 540.332 375.575 540.332 375.575L546.486 370.243L503.788 354.418Z" fill="white"/>
<path opacity="0.1" d="M688.69 471.236C690.85 473.667 689.489 484.581 689.489 484.581L683.53 493.724C683.53 493.724 683.886 499.626 683.908 507.578L673.889 510.479C672.984 510.742 672.024 510.799 671.089 510.647C670.155 510.496 669.273 510.139 668.518 509.608C667.763 509.076 667.155 508.385 666.747 507.592C666.338 506.798 666.141 505.926 666.17 505.048L667.897 453.421L691.271 461.703C689.284 462.984 691.465 466.125 691.465 466.125C691.465 466.125 686.51 468.806 688.69 471.236Z" fill="black"/>
<path d="M689.889 470.126C692.048 472.557 690.688 483.481 690.688 483.481L684.728 492.624C684.728 492.624 685.085 498.516 685.117 506.478L674.915 509.429C674.028 509.685 673.088 509.74 672.174 509.591C671.259 509.441 670.397 509.092 669.657 508.571C668.918 508.051 668.324 507.374 667.924 506.598C667.524 505.821 667.33 504.967 667.358 504.107L669.096 452.32L692.48 460.603C690.483 461.883 692.663 465.014 692.663 465.014C692.663 465.014 687.73 467.705 689.889 470.126Z" fill="white"/>
<path d="M697.63 445.518C697.63 445.518 696.043 454.911 692.07 455.461C688.097 456.011 686.315 470.656 682.353 470.136C678.391 469.616 681.015 456.522 681.155 453.981C681.295 451.44 676.836 440.916 680.172 438.526C683.508 436.135 694.067 438.526 694.067 438.526L697.63 445.518Z" fill="#CF6F80"/>
<path opacity="0.1" d="M706.083 373.184L713.575 359.179C713.575 359.179 716.555 369.853 716.555 375.555C716.555 381.257 720.722 381.817 720.722 381.817C720.722 381.817 725.289 386.818 722.881 390.46C720.474 394.101 719.502 403.164 719.502 403.164C719.502 403.164 720.29 420.46 716.717 422.85C713.143 425.241 712.398 430.953 712.398 430.953C712.398 430.953 705.834 441.807 706.04 444.387C706.245 446.968 696.906 464.444 696.906 464.444C696.906 464.444 701.473 442.727 674.861 433.344C674.861 433.344 674.656 425.971 676.642 423.951C678.629 421.93 681.727 421.01 679.784 410.796C677.841 400.583 679.222 388.379 679.222 385.928C679.222 383.477 685.182 368.192 685.182 368.192L706.083 373.184Z" fill="black"/>
<path d="M709.322 357.179L715.864 359.179C715.864 359.179 718.854 369.853 718.854 375.555C718.854 381.257 723.022 381.817 723.022 381.817C723.022 381.817 727.588 386.818 725.181 390.46C722.773 394.101 721.813 403.164 721.813 403.164C721.813 403.164 722.601 420.46 719.027 422.85C715.454 425.241 714.655 430.953 714.655 430.953C714.655 430.953 708.102 441.807 708.307 444.388C708.512 446.968 699.163 464.444 699.163 464.444C699.163 464.444 703.74 442.727 677.117 433.344C677.117 433.344 676.923 425.971 678.909 423.951C680.896 421.93 683.994 421.01 682.051 410.796C680.108 400.583 681.49 388.379 681.49 385.928C681.49 383.477 687.449 368.192 687.449 368.192L709.322 357.179Z" fill="white"/>
<path opacity="0.1" d="M564.817 720.169C564.817 720.169 575.246 714.097 582.091 718.509C588.936 722.92 564.817 720.169 564.817 720.169Z" fill="black"/>
<path opacity="0.1" d="M645.852 701.393C645.852 701.393 655.083 700.293 662.834 708.025C670.586 715.758 645.852 701.393 645.852 701.393Z" fill="black"/>
<g opacity="0.1">
<path opacity="0.1" d="M659.358 217.622C658.03 218.683 656.324 219.443 655.439 220.853C654.683 222.064 654.661 223.554 654.057 224.855C653.452 226.155 651.693 227.215 650.473 226.395C650.192 217.392 645.399 208.939 639.515 201.737C637.87 199.563 635.87 197.64 633.588 196.035C631.277 194.425 628.401 193.673 625.523 193.924C622.284 194.335 619.434 196.375 616.163 196.625C611.845 196.965 607.969 194.194 603.683 194.054C601.941 194.071 600.223 194.431 598.644 195.113C597.065 195.794 595.662 196.781 594.528 198.006C592.274 200.469 590.601 203.341 589.616 206.439C587.919 211.139 586.995 216.049 586.874 221.003C586.809 223.794 586.528 227.275 583.743 228.316C583.808 229.055 583.808 229.798 583.743 230.537C586.55 229.536 586.83 226.015 586.895 223.214C587.015 218.259 587.94 213.349 589.637 208.649C590.623 205.549 592.296 202.673 594.549 200.206C595.686 198.985 597.09 198.001 598.669 197.322C600.247 196.642 601.964 196.282 603.704 196.265C608.023 196.405 611.909 199.166 616.185 198.836C619.423 198.586 622.295 196.535 625.545 196.135C628.423 195.883 631.299 196.636 633.609 198.246C635.892 199.851 637.891 201.774 639.536 203.948C645.42 211.14 650.214 219.573 650.494 228.596C651.714 229.426 653.474 228.346 654.079 227.065C654.683 225.785 654.705 224.284 655.46 223.064C656.346 221.654 658.051 220.903 659.379 219.843C662.748 217.152 663.59 212.621 663.46 208.509C663.46 208.379 663.46 208.249 663.46 208.129C663.255 211.69 662.229 215.322 659.358 217.622Z" fill="black"/>
<path opacity="0.1" d="M579.662 216.912C577.179 214.381 573.789 212.691 571.511 210.01C569.593 207.636 568.497 204.78 568.369 201.817C568.029 205.519 569.145 209.21 571.511 212.21C573.789 214.901 577.179 216.592 579.662 219.123C582.046 221.598 583.477 224.736 583.732 228.046C583.897 226.032 583.622 224.007 582.922 222.094C582.223 220.181 581.114 218.418 579.662 216.912Z" fill="black"/>
<path opacity="0.1" d="M665.565 186.712C664.928 189.163 663.795 191.494 663.277 193.964C662.97 195.615 662.858 197.293 662.942 198.966C662.978 198.013 663.09 197.063 663.277 196.125C663.795 193.644 664.928 191.324 665.565 188.873C665.937 187.521 666.057 186.121 665.922 184.731C665.855 185.399 665.736 186.061 665.565 186.712Z" fill="black"/>
</g>
<path opacity="0.1" d="M370.295 760.843C428.393 760.843 475.491 753.834 475.491 745.187C475.491 736.541 428.393 729.532 370.295 729.532C312.197 729.532 265.099 736.541 265.099 745.187C265.099 753.834 312.197 760.843 370.295 760.843Z" fill="#49B8AF"/>
<path d="M373.685 445.288H366.916V586.505H373.685V445.288Z" fill="#535461"/>
<path d="M416.221 586.075L415.8 592.437L415.196 601.44L414.947 605.181L414.354 614.184L414.094 617.925L413.49 626.928L406.667 729.032C406.37 733.425 404.278 737.549 400.816 740.563C397.355 743.577 392.783 745.256 388.033 745.258H352.557C347.808 745.256 343.238 743.577 339.778 740.562C336.318 737.548 334.228 733.424 333.934 729.032L327.144 626.858L326.539 617.855L326.291 614.114L325.686 605.111L325.438 601.37L324.833 592.367L324.401 586.005C324.326 584.78 324.522 583.554 324.977 582.402C325.431 581.251 326.135 580.197 327.045 579.306C327.955 578.415 329.052 577.706 330.268 577.222C331.484 576.738 332.794 576.489 334.118 576.491H406.678C407.996 576.502 409.299 576.763 410.504 577.258C411.71 577.753 412.793 578.471 413.688 579.369C414.582 580.267 415.268 581.326 415.704 582.479C416.14 583.632 416.316 584.856 416.221 586.075Z" fill="#3F3D56"/>
<path d="M415.8 592.437L415.196 601.41H325.395L324.79 592.437H415.8Z" fill="#9D9CB5"/>
<path d="M414.947 605.151L414.354 614.134H326.248L325.643 605.151H414.947Z" fill="#9D9CB5"/>
<path d="M414.094 617.885L413.501 626.858H327.1L326.496 617.885H414.094Z" fill="#9D9CB5"/>
<path d="M314.458 498.215C353.874 524.644 370.328 565.978 370.328 565.978C370.328 565.978 322.825 564.467 283.398 538.039C243.971 511.61 227.551 470.286 227.551 470.286C227.551 470.286 275.031 471.787 314.458 498.215Z" fill="#49B8AF"/>
<path d="M227.518 470.286C227.518 470.286 276.834 495.645 292.65 516.642C308.467 537.638 370.328 565.978 370.328 565.978" stroke="#535461" stroke-width="2" stroke-miterlimit="10"/>
<path d="M339.904 444.978C361.356 459.352 370.328 481.85 370.328 481.85C370.328 481.85 344.471 481.03 323.009 466.655C301.546 452.28 292.596 429.773 292.596 429.773C292.596 429.773 318.442 430.593 339.904 444.978Z" fill="#49B8AF"/>
<path d="M292.596 429.773C292.596 429.773 319.435 443.577 328.04 455.001C336.644 466.425 370.328 481.85 370.328 481.85" stroke="#535461" stroke-width="2" stroke-miterlimit="10"/>
<path d="M401.474 480.71C376.827 505.808 371.612 538.609 371.612 538.609C371.612 538.609 406.365 530.706 430.99 505.598C455.616 480.49 460.852 447.699 460.852 447.699C460.852 447.699 426.121 455.611 401.474 480.71Z" fill="#49B8AF"/>
<path d="M460.874 447.709C460.874 447.709 428.766 473.437 420.604 491.163C412.443 508.889 371.612 538.609 371.612 538.609" stroke="#535461" stroke-width="2" stroke-miterlimit="10"/>
<path d="M1306.24 471.877C1306.24 471.877 1288.42 389.709 1295.24 379.486C1295.24 379.486 1295.49 369.983 1295.08 357.869C1295.08 357.409 1295.08 356.948 1295.08 356.478C1296.28 357.22 1297.53 357.888 1298.83 358.479C1305.11 361.472 1312.33 362.335 1319.23 360.92L1313.83 355.348C1312.54 354.017 1311.19 352.577 1310.91 350.816C1310.63 349.056 1311.4 347.485 1312.07 345.915C1317.2 333.911 1317.47 318.816 1307.59 309.653C1299.25 301.95 1297.22 292.007 1288.16 284.975C1281.54 279.823 1277.9 272.27 1274.47 264.968C1271.57 258.796 1268.64 252.574 1266.98 246.032C1265.68 240.92 1265.16 235.628 1263.38 230.637C1261.6 225.645 1258.27 220.793 1253.05 218.563C1251.19 217.772 1249.13 217.322 1247.44 216.272C1245.21 214.881 1243.87 212.621 1242.27 210.64C1234.09 200.637 1206.73 206.529 1193.77 210.59C1190.25 211.613 1186.99 213.287 1184.18 215.512L1184.3 215.331C1184.4 215.181 1184.52 215.031 1184.63 214.881C1183.21 215.944 1181.98 217.21 1181 218.633C1179.11 221.403 1178.32 224.635 1176.74 227.636C1174.84 231.187 1164.28 241.1 1168.82 245.091C1169.14 245.359 1169.5 245.576 1169.9 245.732C1171.61 246.39 1173.49 246.564 1175.3 246.232L1175.1 246.662C1173.55 250.183 1172.76 253.952 1172.76 257.756C1172.76 274.191 1187.39 287.515 1205.45 287.515C1208.85 287.518 1212.22 287.036 1215.46 286.085C1215.53 286.465 1215.6 286.845 1215.68 287.225C1215.68 287.375 1215.73 287.525 1215.75 287.675L1215.18 288.416C1215.15 288.37 1215.12 288.327 1215.08 288.286L1198.13 310.233C1195.54 311.924 1180.62 321.927 1179.78 329.429C1178.89 337.642 1178.01 347.255 1178.01 347.255L1177.89 349.316C1177.15 349.889 1176.28 350.307 1175.35 350.54C1174.42 350.774 1173.44 350.816 1172.49 350.666C1167.2 349.866 1167.2 368.672 1167.2 368.672C1167.2 368.672 1163.68 371.673 1161.26 369.072C1158.85 366.472 1152.45 375.285 1152.45 375.285L1112.4 376.885L1111.48 376.935L1109.32 370.743C1109.09 370.09 1108.59 369.548 1107.93 369.235C1107.27 368.923 1106.5 368.864 1105.79 369.072C1105.63 369.123 1105.46 369.187 1105.31 369.263L1105.16 369.343L1104.88 369.523L1104.74 369.643C1104.66 369.708 1104.59 369.778 1104.52 369.853L1104.39 369.993L1104.33 370.053C1104.08 370.372 1103.91 370.741 1103.84 371.13C1103.78 371.52 1103.81 371.918 1103.94 372.294L1105.79 377.605C1098.06 379.046 1090.16 383.107 1096.61 394.291L1063.94 388.699L1074.51 396.922L1129.07 407.355C1128.35 408.556 1128.82 410.296 1131.08 412.747C1140.79 423.32 1158.5 426.191 1165.62 426.932C1167.51 430.832 1169.86 434.523 1172.63 437.935L1172.02 448.469C1172.02 448.469 1153.98 528.756 1150.67 532.827C1152.34 531.076 1153.87 529.214 1155.24 527.255C1150 543.75 1142.68 566.328 1140.76 569.709C1137.67 575.111 1134.81 596.968 1138.33 598.369C1139.41 598.799 1142.5 598.589 1146.9 598.279V600.089L1146.71 668.702C1146.71 668.702 1147.6 710.786 1145.17 714.797C1142.74 718.809 1142.09 727.221 1142.09 727.221C1142.09 727.221 1132.37 743.817 1124.68 750.489C1124.62 750.541 1124.57 750.588 1124.5 750.629L1124.27 749.069C1124.27 749.069 1115.01 759.892 1094.54 759.282C1094.54 759.282 1082.23 766.704 1100.49 767.105C1118.76 767.505 1142.09 766.504 1142.09 766.504C1142.09 766.504 1158.38 743.497 1172.03 746.498V763.934H1176.21V746.218C1178.14 745.036 1179.8 743.502 1181.08 741.708C1182.36 739.915 1183.23 737.899 1183.64 735.784C1184 733.604 1183.74 731.375 1182.88 729.318C1182.03 727.26 1180.61 725.444 1178.76 724.05C1177.94 723.356 1177.27 722.511 1176.81 721.568C1176.35 720.624 1176.11 719.603 1176.1 718.569L1175.95 718.689C1175.95 718.338 1175.85 717.978 1175.81 717.608C1174.61 708.605 1173.11 690.029 1178.41 676.284C1185.67 657.438 1187.88 631.189 1182.59 615.564C1180.88 610.57 1179.48 605.49 1178.39 600.349C1178.26 599.699 1178.14 599.079 1178.03 598.499C1181.65 598.952 1185.23 599.62 1188.75 600.499C1201 603.63 1227.81 604.211 1250.7 604.04C1250.75 604.621 1250.82 605.231 1250.89 605.841C1251.3 610.083 1252.15 614.277 1253.44 618.365C1256.31 626.368 1257.63 661.65 1257.63 661.65C1257.63 661.65 1261.33 690.659 1259.31 702.463C1258.23 709.025 1257.15 715.618 1256.54 722.24V722.37C1256.54 722.37 1250.47 738.375 1246.03 747.068C1245.93 747.288 1245.81 747.508 1245.7 747.718C1244.52 747.818 1243.35 748.057 1242.23 748.428C1242.23 748.428 1236.28 759.432 1230.36 761.253C1224.43 763.073 1226.4 769.065 1239.82 766.865C1253.23 764.664 1273.5 762.863 1273.5 762.863L1274.37 751.64L1278.5 746.858L1277.42 758.052L1281.81 757.251L1281.23 743.637L1287.98 735.814C1287.98 735.814 1296.13 729.092 1284.01 715.868V716.158C1283.88 715.968 1283.77 715.768 1283.63 715.577V715.517C1281.62 712.637 1280.02 707.265 1282.94 697.732C1288.24 680.506 1291.31 664.871 1291.31 664.871C1291.31 664.871 1303.12 622.987 1288.93 603.17H1289.55C1288.1 600.382 1287.07 597.419 1286.5 594.367C1286.42 594.007 1286.36 593.637 1286.3 593.257C1296.81 592.697 1307.12 590.936 1315.53 587.135C1315.49 587.095 1310.43 487.702 1306.24 471.877ZM1172.88 402.554V402.754L1170.72 402.854L1172.88 402.554ZM1165.47 403.504C1165.12 403.577 1164.79 403.724 1164.5 403.934C1163.57 405.151 1162.99 406.565 1162.81 408.045L1159.44 407.345C1159.44 407.345 1157.07 406.875 1153.67 406.345L1152.07 404.844C1156.49 404.504 1161.09 404.004 1165.47 403.504Z" fill="url(#paint1_linear)"/>
<path d="M1276.92 743.777L1275.64 757.952L1279.94 757.151L1279.3 741.776L1276.92 743.777Z" fill="#1D2366"/>
<path d="M1178.64 676.475C1173.45 690.179 1174.92 708.675 1176.09 717.658C1176.52 720.979 1176.92 723 1176.92 723C1176.92 723 1169.16 739.386 1168.51 740.006C1167.86 740.626 1145.66 753.18 1145.66 753.18L1130.15 761.573C1130.15 761.573 1114.41 755.181 1121.96 752.98C1123.5 752.407 1124.89 751.53 1126.03 750.409C1133.58 743.757 1143.07 727.222 1143.07 727.222C1143.07 727.222 1143.72 718.829 1146.09 714.837C1148.47 710.846 1147.61 668.902 1147.61 668.902L1147.79 600.529V591.616L1177.32 591.817C1177.5 594.842 1177.93 597.851 1178.59 600.82C1179.65 605.943 1181.02 611.006 1182.7 615.985C1187.91 631.58 1185.75 657.698 1178.64 676.475Z" fill="#FFB0B1"/>
<path opacity="0.1" d="M1176.92 723C1176.92 723 1169.16 739.386 1168.51 740.006C1167.86 740.626 1145.66 753.18 1145.66 753.18L1130.15 761.573C1130.15 761.573 1114.41 755.181 1121.96 752.98C1123.5 752.407 1124.89 751.529 1126.03 750.409L1126.69 754.781L1131.87 754.581L1176.13 717.678C1176.52 720.979 1176.92 723 1176.92 723Z" fill="black"/>
<path d="M1176.38 718.609L1131.87 755.761L1126.69 755.961L1125.61 748.959C1125.61 748.959 1116.57 759.742 1096.47 759.142C1096.47 759.142 1084.4 766.535 1102.28 766.935C1120.17 767.335 1143.02 766.334 1143.02 766.334C1143.02 766.334 1158.97 743.327 1172.33 746.328V763.704H1176.43V746.168C1178.34 744.978 1179.97 743.443 1181.22 741.655C1182.47 739.867 1183.32 737.863 1183.71 735.764C1184.06 733.602 1183.81 731.391 1182.98 729.345C1182.14 727.299 1180.76 725.486 1178.95 724.08C1178.14 723.379 1177.49 722.531 1177.05 721.59C1176.61 720.649 1176.38 719.635 1176.38 718.609Z" fill="#1D2366"/>
<path d="M1281.02 697.842C1278.15 707.345 1279.72 712.697 1281.68 715.568V715.628C1284.2 719.172 1285.95 723.137 1286.84 727.301L1287.01 728.202L1266.76 755.561L1255.77 759.562C1255.77 759.562 1238.1 753.97 1241.33 752.37C1242.14 751.98 1243.4 749.899 1244.85 747.028C1249.16 738.375 1255.12 722.41 1255.12 722.41V722.28C1255.75 715.688 1256.74 709.115 1257.84 702.573C1259.82 690.799 1256.19 661.9 1256.19 661.9C1256.19 661.9 1254.9 626.758 1252.09 618.765C1250.82 614.702 1249.98 610.534 1249.57 606.321C1248.99 601.32 1248.86 597.198 1248.86 597.198C1248.86 597.198 1260.5 582.193 1281.83 598.399C1283.54 599.691 1285.04 601.2 1286.29 602.88C1301.03 622.307 1289.16 665.101 1289.16 665.101C1289.16 665.101 1286.19 680.666 1281.02 697.842Z" fill="#FFB0B1"/>
<path opacity="0.1" d="M1287.05 728.202L1266.79 755.561L1255.8 759.562C1255.8 759.562 1238.13 753.97 1241.36 752.37C1242.17 751.98 1243.43 749.899 1244.88 747.028C1252.36 746.968 1256.24 753.57 1256.24 753.57L1265.71 752.17C1265.71 752.17 1278.22 729.402 1281.02 728.012C1283.83 726.621 1281.46 717.618 1281.46 717.618V715.328C1281.53 715.408 1281.6 715.498 1281.68 715.578V715.638C1284.2 719.182 1285.95 723.147 1286.84 727.312L1287.05 728.202Z" fill="black"/>
<path d="M1256.88 754.16C1256.88 754.16 1251.49 744.977 1241.14 748.369C1241.14 748.369 1235.32 759.372 1229.5 761.153C1223.69 762.933 1225.63 768.935 1238.78 766.745C1251.93 764.554 1271.75 762.743 1271.75 762.743L1272.61 751.55L1285.98 735.774C1285.98 735.774 1293.95 729.082 1282.09 715.908V718.199C1282.09 718.199 1284.47 727.201 1281.66 728.592C1278.85 729.982 1266.39 752.76 1266.39 752.76L1256.88 754.16Z" fill="#1D2366"/>
<path opacity="0.1" d="M1177.35 591.796C1177.54 594.822 1177.96 597.831 1178.62 600.799C1166.47 599.149 1155.19 599.969 1147.79 600.509V591.596L1177.35 591.796Z" fill="black"/>
<path opacity="0.1" d="M1287.49 605.371C1287.49 605.371 1270.22 606.151 1249.62 606.311C1249.03 601.31 1248.91 597.188 1248.91 597.188C1248.91 597.188 1260.54 582.183 1281.88 598.389C1283.58 599.681 1285.08 601.19 1286.33 602.87C1286.67 603.723 1287.06 604.558 1287.49 605.371Z" fill="black"/>
<path d="M1287.49 603.57C1287.49 603.57 1211.83 606.962 1188.77 600.97C1165.71 594.978 1142.86 600.169 1139.41 598.779C1135.97 597.388 1138.76 575.611 1141.79 570.219C1144.81 564.827 1161.39 510.299 1161.39 510.299L1177.35 433.214L1194.16 428.922L1195.35 428.612L1224.64 421.13L1246.1 415.638C1246.1 415.638 1288.77 570.019 1285.11 581.403C1283.79 585.762 1283.57 590.348 1284.49 594.797C1285.05 597.836 1286.06 600.788 1287.49 603.57Z" fill="#1D2366"/>
<path d="M1121.73 380.496C1121.73 380.496 1106.61 395.501 1118.06 403.864C1129.5 412.227 1137.03 404.664 1137.03 404.664L1121.73 380.496Z" fill="#C7DAF5"/>
<path opacity="0.1" d="M1121.73 380.496C1121.73 380.496 1106.61 395.501 1118.06 403.864C1129.5 412.227 1137.03 404.664 1137.03 404.664L1121.73 380.496Z" fill="black"/>
<path d="M1243.84 281.844C1243.84 281.844 1242.07 283.404 1239.4 285.705C1235.6 288.996 1229.98 293.808 1224.99 297.839C1218.08 303.411 1212.38 307.502 1214.42 304.011C1216.46 300.52 1216.07 294.438 1215.06 288.746C1214.98 288.366 1214.92 287.986 1214.84 287.616C1214 283.435 1212.89 279.306 1211.51 275.251C1211.51 275.251 1222.67 261.887 1228.85 256.615C1231.15 254.615 1232.75 253.794 1232.85 255.185C1232.96 257.055 1234.47 261.187 1236.35 265.568C1236.4 265.708 1236.46 265.838 1236.52 265.978C1237.77 268.979 1239.19 272.06 1240.43 274.721C1242.33 278.803 1243.84 281.844 1243.84 281.844Z" fill="#FFB0B1"/>
<path opacity="0.1" d="M1236.52 265.978C1235.47 271.206 1232.93 276.078 1229.15 280.083C1225.38 284.088 1220.51 287.08 1215.06 288.746C1214.2 284.179 1213.01 279.671 1211.51 275.251C1211.51 275.251 1232.53 250.093 1232.85 255.185C1232.93 257.115 1234.57 261.397 1236.52 265.978Z" fill="black"/>
<path opacity="0.1" d="M1212.97 295.468L1215.69 291.917C1215.69 291.917 1217.49 302.1 1224.12 297.609C1230.75 293.117 1231.07 331.41 1231.07 331.41L1223.96 429.973L1172.55 427.122L1174 379.496L1179.82 355.488L1194.21 320.586L1202.77 309.053L1212.97 295.468Z" fill="black"/>
<path d="M1231.07 332.02L1224.59 421.14L1223.91 430.583L1195.25 428.992L1194.17 428.932L1172.58 427.732L1174.03 380.096L1179.85 356.088L1194.24 321.187L1202.81 309.653L1213 296.018L1215.72 292.477C1215.72 292.477 1217.52 302.66 1224.15 298.169L1224.29 298.079C1230.77 294.278 1231.07 332.02 1231.07 332.02Z" fill="#1D2366"/>
<path d="M1180.58 347.745C1180.58 347.745 1178 352.747 1172.82 351.937C1167.63 351.127 1167.64 369.943 1167.64 369.943C1167.64 369.943 1164.2 372.944 1161.82 370.343C1159.45 367.742 1153.19 376.535 1153.19 376.535L1113.96 378.136C1113.96 378.136 1131.41 385.528 1127.99 407.895C1127.99 407.895 1187.26 404.494 1189.2 399.303C1191.15 394.111 1180.58 347.745 1180.58 347.745Z" fill="white"/>
<path opacity="0.03" d="M1180.58 347.745C1180.58 347.745 1178 352.747 1172.82 351.937C1167.63 351.127 1167.64 369.943 1167.64 369.943C1167.64 369.943 1164.2 372.944 1161.82 370.343C1159.45 367.742 1153.19 376.535 1153.19 376.535L1113.96 378.136C1113.96 378.136 1131.41 385.528 1127.99 407.895C1127.99 407.895 1187.26 404.494 1189.2 399.303C1191.15 394.111 1180.58 347.745 1180.58 347.745Z" fill="black"/>
<path d="M1066.56 389.889L1076.9 398.072L1162.04 414.648L1151.48 404.664L1066.56 389.889Z" fill="white"/>
<path d="M1213.13 298.619C1211.71 300.62 1207.66 310.863 1204.29 319.806C1201.47 327.259 1199.11 333.811 1199.11 333.811C1199.11 333.811 1193.62 366.962 1190.81 372.954C1188 378.946 1189.53 402.314 1189.53 402.314L1179.07 460.023C1179.07 460.023 1174.33 489.783 1167.01 507.559C1159.78 525.054 1151.74 533.257 1151.49 533.517C1154.73 529.456 1172.38 449.489 1172.38 449.489L1178.21 348.636C1178.21 348.636 1179.07 339.053 1179.93 330.86C1180.79 322.667 1198.28 311.484 1198.28 311.484L1215.15 289.266C1216.84 291.367 1215.71 295.028 1213.13 298.619Z" fill="white"/>
<path d="M1169.16 428.232C1169.16 428.232 1144.32 427.232 1132.3 413.847C1120.27 400.463 1160.1 408.506 1160.1 408.506L1170.45 410.706L1169.16 428.232Z" fill="#FFB0B1"/>
<path opacity="0.1" d="M1285.11 581.413C1283.79 585.772 1283.57 590.358 1284.49 594.807C1257.4 596.588 1228.43 589.806 1228.43 589.806C1223.03 594.407 1208.81 601.19 1208.81 601.19L1201.06 512.16C1196.1 500.156 1194.16 437.265 1194.16 437.265C1194.16 437.265 1194.6 433.974 1195.24 429.042C1195.24 428.922 1195.24 428.792 1195.29 428.672C1197.22 414.898 1201.06 389.039 1202.94 385.548C1205.53 380.746 1194.97 367.972 1194.97 367.972L1199.77 330.01L1200.36 325.428C1210.48 321.237 1218.24 307.852 1218.24 307.852L1224.2 298.179C1230.68 294.328 1231.02 332.07 1231.02 332.07L1224.54 421.19L1246 415.698C1246 415.698 1288.77 570.029 1285.11 581.413Z" fill="black"/>
<path d="M1312.91 587.565C1283.39 601.15 1229.72 588.565 1229.72 588.565C1224.32 593.167 1210.1 599.949 1210.1 599.949L1202.34 510.92C1197.4 498.916 1195.45 436.025 1195.45 436.025C1195.45 436.025 1201.69 389.099 1204.29 384.308C1205.04 382.907 1204.67 380.826 1203.78 378.586C1199.37 367.92 1197.75 356.441 1199.05 345.085L1201.12 328.769L1201.69 324.198C1211.83 319.996 1219.59 306.612 1219.59 306.612L1224.99 297.849L1234.92 281.704L1239.63 274.061L1240.43 274.731L1246.53 279.853C1246.53 279.853 1249.12 281.854 1253.01 284.855C1261.46 291.457 1276.07 303.081 1283.6 310.193C1290.23 316.455 1292.33 340.813 1292.93 359.149C1293.33 371.223 1293.09 380.686 1293.09 380.686C1286.41 390.88 1303.89 472.717 1303.89 472.717C1307.96 488.532 1312.91 587.565 1312.91 587.565Z" fill="white"/>
<path opacity="0.03" d="M1256.24 306.412C1256.24 306.412 1235.97 342.154 1238.33 355.738C1240.68 369.323 1247.37 384.698 1244.14 388.289C1243.04 389.649 1241.6 390.754 1239.96 391.516C1238.31 392.277 1236.49 392.676 1234.65 392.68C1231.42 392.88 1222.78 398.472 1222.78 399.072C1222.78 399.673 1214.8 399.673 1207.66 402.474C1200.53 405.274 1189.99 406.865 1189.99 406.865C1189.99 406.865 1169.48 406.265 1167.57 408.065C1165.66 409.866 1163.69 420.64 1167.78 429.232C1171.88 437.825 1176.42 444.237 1179.85 445.408C1183.29 446.578 1205.07 439.816 1222.75 438.215C1240.42 436.615 1259.6 423.641 1259.6 423.641C1259.6 423.641 1280.73 416.638 1284.43 404.864C1288.14 393.09 1279.91 328.379 1279.91 328.379C1279.91 328.379 1273.69 298.219 1256.24 306.412Z" fill="black"/>
<path opacity="0.03" d="M1253.64 303.411C1253.64 303.411 1233.38 339.163 1235.76 352.737C1238.13 366.312 1244.8 381.697 1241.56 385.298C1240.46 386.66 1239.03 387.766 1237.38 388.528C1235.74 389.29 1233.92 389.687 1232.09 389.689C1228.85 389.889 1220.21 395.481 1220.21 396.082C1220.21 396.682 1212.23 396.682 1205.1 399.473C1197.96 402.264 1187.42 403.864 1187.42 403.864C1187.42 403.864 1166.91 403.264 1165.01 405.064C1163.11 406.865 1161.12 417.649 1165.23 426.232C1169.33 434.814 1173.86 441.237 1177.3 442.407C1180.73 443.577 1202.51 436.815 1220.19 435.225C1237.86 433.634 1257.05 420.64 1257.05 420.64C1257.05 420.64 1278.16 413.637 1281.82 401.873C1285.48 390.11 1277.3 325.378 1277.3 325.378C1277.3 325.378 1271.1 295.228 1253.64 303.411Z" fill="black"/>
<path d="M1255.6 304.611C1255.6 304.611 1235.33 340.363 1237.71 353.938C1240.08 367.512 1246.76 382.897 1243.53 386.488C1242.42 387.854 1240.99 388.962 1239.34 389.726C1237.7 390.49 1235.88 390.888 1234.04 390.89C1230.8 391.09 1222.16 396.682 1222.16 397.272C1222.16 397.862 1214.2 397.872 1207.05 400.673C1199.9 403.474 1189.38 405.065 1189.38 405.065C1189.38 405.065 1168.86 404.464 1166.95 406.265C1165.04 408.066 1163.08 418.849 1167.17 427.432C1171.26 436.015 1175.81 442.437 1179.24 443.607C1182.67 444.778 1204.46 438.015 1222.13 436.415C1239.8 434.814 1258.99 421.84 1258.99 421.84C1258.99 421.84 1280.12 414.838 1283.82 403.064C1287.52 391.29 1279.35 326.578 1279.35 326.578C1279.35 326.578 1273.05 296.468 1255.6 304.611Z" fill="white"/>
<path opacity="0.1" d="M1255.16 400.503C1255.16 400.503 1238.96 397.502 1244.6 402.504C1250.23 407.505 1250.2 411.887 1257.1 411.687C1264 411.487 1255.16 400.503 1255.16 400.503Z" fill="black"/>
<path opacity="0.1" d="M1282.52 508.119C1282.52 508.119 1275.2 512.71 1289.21 523.294C1303.21 533.877 1282.52 508.119 1282.52 508.119Z" fill="black"/>
<path opacity="0.1" d="M1268.55 545.861C1268.55 546.462 1265.96 567.869 1275.66 573.22C1285.35 578.572 1268.55 545.861 1268.55 545.861Z" fill="black"/>
<path d="M1114.62 378.086C1106.81 378.336 1089.92 380.546 1098.68 395.681C1106.42 409.076 1119.43 400.123 1126.75 393.331C1124.96 386.998 1120.62 381.541 1114.62 378.086Z" fill="#FFB0B1"/>
<path d="M1126.85 393.21L1127.17 392.9L1126.85 393.21Z" fill="#FFB0B1"/>
<path opacity="0.1" d="M1253.01 285.465C1244.72 290.716 1237.76 295.148 1236.4 296.068C1232.69 298.619 1225.61 313.594 1221.04 321.237C1217.4 327.389 1205.58 328.969 1201.12 329.359L1201.69 324.788C1211.83 320.586 1219.59 307.202 1219.59 307.202L1239.63 274.651L1246.53 280.463C1246.53 280.463 1249.12 282.464 1253.01 285.465Z" fill="black"/>
<path d="M1253.01 284.865C1244.72 290.116 1237.76 294.548 1236.4 295.478C1232.69 298.019 1225.61 312.994 1221.04 320.636C1217.4 326.789 1205.58 328.369 1201.12 328.759L1201.69 324.188C1211.83 319.986 1219.59 306.602 1219.59 306.602L1239.63 274.051L1246.53 279.843C1246.53 279.843 1249.12 281.824 1253.01 284.865Z" fill="#DCE7FF"/>
<path d="M1237.05 259.376C1237.06 265.381 1235.09 271.245 1231.42 276.192C1227.08 282.04 1220.62 286.253 1213.21 288.066C1205.81 289.88 1197.94 289.173 1191.05 286.075C1184.16 282.977 1178.7 277.693 1175.65 271.181C1172.6 264.669 1172.18 257.361 1174.45 250.582C1176.72 243.804 1181.54 238.005 1188.03 234.238C1194.52 230.47 1202.26 228.983 1209.83 230.047C1217.4 231.111 1224.31 234.655 1229.31 240.036C1234.3 245.417 1237.05 252.279 1237.05 259.376Z" fill="#FFB0B1"/>
<path opacity="0.1" d="M1292.93 359.159C1288.55 356.66 1284.98 353.106 1282.6 348.876C1280.8 345.575 1279.6 341.764 1276.52 339.423C1273.75 337.322 1270.04 336.812 1266.59 335.872C1255.23 332.761 1245.71 323.157 1245.35 312.194C1245.18 307.032 1246.92 301.88 1246.13 296.769C1245.68 293.876 1244.44 291.137 1242.52 288.816C1241.57 287.706 1240.53 286.665 1239.4 285.705C1237.89 284.384 1236.31 283.104 1234.92 281.704C1234.05 280.836 1233.29 279.88 1232.66 278.853C1232.14 278.012 1231.73 277.123 1231.42 276.202C1229.26 270.08 1231.22 262.817 1228.85 256.625L1228.72 256.285C1227.82 254.084 1226 251.884 1223.46 251.714C1220.92 251.544 1218.75 253.494 1216.33 254.365C1211.27 256.185 1205.81 253.084 1201.59 249.923C1197.37 246.762 1192.6 243.151 1187.24 243.851C1183.69 244.321 1180.88 246.562 1177.61 247.722C1176.87 247.987 1176.11 248.191 1175.33 248.332C1178.1 241.935 1183.19 236.631 1189.72 233.332C1196.25 230.032 1203.81 228.942 1211.12 230.25C1218.42 231.558 1225 235.182 1229.74 240.499C1234.47 245.816 1237.05 252.494 1237.05 259.386C1237.05 261.467 1236.82 263.543 1236.35 265.578C1236.4 265.718 1236.46 265.848 1236.52 265.988C1237.77 268.989 1239.19 272.07 1240.43 274.731L1246.53 279.853C1246.53 279.853 1249.12 281.854 1253.01 284.855C1261.46 291.457 1276.07 303.081 1283.6 310.193C1290.23 316.475 1292.31 340.823 1292.93 359.159Z" fill="black"/>
<path d="M1177.23 229.446C1178.77 226.535 1179.54 223.274 1181.39 220.513C1184.1 216.512 1188.83 213.951 1193.68 212.401C1206.37 208.349 1233.18 202.467 1241.19 212.401C1242.76 214.401 1244.07 216.622 1246.25 218.002C1247.91 219.053 1249.92 219.503 1251.74 220.293C1256.85 222.514 1260.11 227.356 1261.85 232.297C1263.59 237.239 1264.11 242.541 1265.38 247.632C1267.01 254.164 1269.87 260.356 1272.72 266.509C1276.08 273.771 1279.64 281.303 1286.12 286.435C1294.96 293.438 1296.91 303.351 1305.12 311.033C1314.84 320.156 1314.52 335.211 1309.51 347.165C1308.86 348.736 1308.11 350.376 1308.37 352.047C1308.63 353.718 1309.97 355.238 1311.23 356.568L1316.54 362.12C1303.98 364.931 1289.76 358.849 1283.91 348.176C1282.1 344.875 1280.9 341.073 1277.82 338.723C1275.05 336.622 1271.34 336.122 1267.9 335.181C1256.54 332.06 1247.02 322.447 1246.66 311.484C1246.49 306.332 1248.22 301.18 1247.44 296.078C1247 293.166 1245.75 290.409 1243.82 288.076C1240.85 284.485 1236.37 282.074 1233.95 278.072C1229.86 271.38 1232.97 262.687 1230.02 255.505C1229.12 253.304 1227.3 251.103 1224.77 250.933C1222.23 250.763 1220.06 252.714 1217.63 253.584C1212.58 255.405 1207.11 252.314 1202.89 249.143C1198.67 245.972 1193.91 242.371 1188.53 243.081C1184.98 243.541 1182.19 245.782 1178.91 246.952C1176.5 247.812 1171.6 248.583 1169.48 246.692C1165.01 242.881 1175.36 233.007 1177.23 229.446Z" fill="#591D4B"/>
<path opacity="0.1" d="M1286.91 344.875C1285.09 341.573 1283.91 337.772 1280.82 335.431C1278.05 333.331 1274.34 332.821 1270.89 331.88C1259.54 328.769 1250.02 319.156 1249.65 308.192C1249.48 303.041 1251.22 297.879 1250.44 292.777C1249.99 289.884 1248.74 287.146 1246.82 284.825C1243.84 281.233 1239.36 278.823 1236.95 274.821C1232.86 268.139 1235.97 259.446 1233.01 252.254C1232.12 250.063 1230.29 247.862 1227.77 247.682C1225.24 247.502 1223.05 249.473 1220.63 250.343C1215.58 252.164 1210.1 249.063 1205.89 245.902C1201.68 242.741 1196.9 239.129 1191.54 239.83C1187.98 240.3 1185.18 242.541 1181.92 243.701C1179.5 244.561 1174.59 245.342 1172.47 243.451C1168.02 239.45 1178.37 229.596 1180.23 226.055C1181.78 223.134 1182.54 219.883 1184.4 217.122C1184.5 216.972 1184.6 216.822 1184.71 216.672C1183.32 217.738 1182.12 219.001 1181.16 220.413C1179.31 223.174 1178.55 226.415 1177 229.346C1175.14 232.887 1164.78 242.771 1169.24 246.742C1171.4 248.643 1176.26 247.862 1178.68 247.002C1181.92 245.832 1184.74 243.591 1188.3 243.131C1193.69 242.421 1198.44 246.032 1202.66 249.193C1206.87 252.354 1212.37 255.455 1217.4 253.634C1219.82 252.764 1221.94 250.803 1224.53 250.983C1227.12 251.163 1228.85 253.354 1229.79 255.555C1232.73 262.737 1229.62 271.43 1233.72 278.122C1236.13 282.054 1240.61 284.515 1243.58 288.126C1245.51 290.459 1246.76 293.216 1247.2 296.128C1247.99 301.23 1246.25 306.382 1246.42 311.533C1246.78 322.537 1256.3 332.11 1267.66 335.231C1271.08 336.172 1274.82 336.672 1277.58 338.773C1280.68 341.123 1281.9 344.925 1283.67 348.226C1289.52 358.899 1303.74 364.981 1316.3 362.17L1313.8 359.549C1302.91 359.699 1291.88 353.958 1286.91 344.875Z" fill="black"/>
<path opacity="0.1" d="M1212.48 299.219C1211.07 301.22 1207.02 311.463 1203.64 320.406C1200.47 319.266 1197.6 311.994 1197.6 311.994L1214.47 289.766C1216.19 291.967 1215.06 295.618 1212.48 299.219Z" fill="black"/>
<path d="M1213.13 298.619C1211.71 300.62 1207.66 310.863 1204.29 319.806C1201.12 318.676 1198.25 311.393 1198.25 311.393L1215.11 289.176C1216.84 291.367 1215.71 295.028 1213.13 298.619Z" fill="#DCE7FF"/>
<path d="M1115.08 400.813L1105.73 373.494C1105.62 373.174 1105.58 372.837 1105.61 372.503C1105.64 372.168 1105.74 371.842 1105.9 371.544C1106.07 371.245 1106.3 370.98 1106.58 370.764C1106.85 370.548 1107.18 370.384 1107.52 370.283C1108.22 370.082 1108.97 370.143 1109.62 370.454C1110.26 370.765 1110.75 371.301 1110.98 371.944L1120.32 399.233L1119.4 404.944L1115.08 400.813Z" fill="#BE8B87"/>
<path opacity="0.1" d="M1106.61 371.093C1107.31 370.889 1108.07 370.949 1108.72 371.26C1109.37 371.571 1109.86 372.109 1110.08 372.754L1119.43 400.043L1118.73 404.324L1119.41 404.985L1120.34 399.273L1110.93 371.984C1110.71 371.341 1110.22 370.805 1109.57 370.494C1108.93 370.183 1108.17 370.122 1107.48 370.323C1106.89 370.499 1106.39 370.851 1106.04 371.323C1106.23 371.232 1106.42 371.155 1106.61 371.093Z" fill="white"/>
<path d="M1115.08 400.813L1120.33 399.273L1119.56 403.954L1119.4 404.984L1117.86 403.504L1115.08 400.813Z" fill="#EFC8C4"/>
<path d="M1117.86 403.504C1117.95 403.397 1118.07 403.309 1118.2 403.244C1118.27 403.199 1118.36 403.176 1118.45 403.176C1118.54 403.176 1118.63 403.199 1118.71 403.244C1118.78 403.326 1118.84 403.417 1118.89 403.514C1118.96 403.624 1119.06 403.719 1119.17 403.79C1119.29 403.861 1119.42 403.907 1119.56 403.924L1119.4 404.924L1117.86 403.504Z" fill="#727A9C"/>
<path d="M1105.67 383.197C1105.67 383.197 1124.43 383.097 1120.01 390.49C1115.6 397.882 1108.7 398.772 1108.7 398.772L1105.67 383.197Z" fill="#FFB0B1"/>
</g>
<path d="M6 797V647.002C6 645.896 6.89651 645.001 8.00177 645.002L573.938 645.499C574.602 645.5 575.223 645.171 575.596 644.621L593.348 618.437C594.14 617.268 595.862 617.267 596.657 618.434L618.905 651.125C619.277 651.672 619.896 652 620.558 652H632H639.5H647H661.86C662.814 652 663.635 651.327 663.822 650.392L668.834 625.33C669.248 623.259 672.172 623.16 672.725 625.198L679.599 650.524C679.836 651.395 680.627 652 681.529 652H690.476C691.119 652 691.723 652.309 692.099 652.831L697.186 659.898C698.289 661.429 700.705 660.722 700.807 658.837L708.486 516.961C708.621 514.482 712.256 514.419 712.476 516.893L730.564 720.689C730.779 723.114 734.32 723.123 734.548 720.7L740.83 653.813C740.926 652.785 741.789 652 742.821 652H767.899C768.584 652 769.222 651.649 769.589 651.07L792.372 615.072C793.142 613.856 794.904 613.826 795.715 615.015L815.904 644.626C816.277 645.173 816.896 645.5 817.558 645.499L1444 645.002C1445.1 645.001 1446 645.896 1446 647.002V797C1446 798.105 1445.1 799 1444 799H8C6.89543 799 6 798.105 6 797Z" fill="#E5F0F4"/>
<g filter="url(#filter0_d)">
<path d="M6 644.508L574.542 644.991L595 612L620.5 650.5H633H640.5H647H662L671 625L681.5 650H691.5L699 659L710.5 516L732.5 722.5L741 650L768.5 650.5L794 614L816.526 644.991L1446 644.508" stroke="#4687A3" stroke-width="4" stroke-linecap="round" stroke-linejoin="round"/>
</g>
<defs>
<filter id="filter0_d" x="0" y="514" width="1452" height="218.5" filterUnits="userSpaceOnUse" color-interpolation-filters="sRGB">
<feFlood flood-opacity="0" result="BackgroundImageFix"/>
<feColorMatrix in="SourceAlpha" type="matrix" values="0 0 0 0 0 0 0 0 0 0 0 0 0 0 0 0 0 0 127 0"/>
<feOffset dy="4"/>
<feGaussianBlur stdDeviation="2"/>
<feColorMatrix type="matrix" values="0 0 0 0 0 0 0 0 0 0 0 0 0 0 0 0 0 0 0.25 0"/>
<feBlend mode="normal" in2="BackgroundImageFix" result="effect1_dropShadow"/>
<feBlend mode="normal" in="SourceGraphic" in2="effect1_dropShadow" result="shape"/>
</filter>
<linearGradient id="paint0_linear" x1="611.693" y1="775.127" x2="611.693" y2="159.583" gradientUnits="userSpaceOnUse">
<stop stop-color="#808080" stop-opacity="0.25"/>
<stop offset="0.54" stop-color="#808080" stop-opacity="0.12"/>
<stop offset="1" stop-color="#808080" stop-opacity="0.1"/>
</linearGradient>
<linearGradient id="paint1_linear" x1="241210" y1="464436" x2="241210" y2="148472" gradientUnits="userSpaceOnUse">
<stop stop-color="#808080" stop-opacity="0.25"/>
<stop offset="0.54" stop-color="#808080" stop-opacity="0.12"/>
<stop offset="1" stop-color="#808080" stop-opacity="0.1"/>
</linearGradient>
<clipPath id="clip0">
<rect x="227" width="1193" height="783" fill="white"/>
</clipPath>
</defs>
</svg>
