<svg width="343" height="113" viewBox="0 0 343 113" fill="none" xmlns="http://www.w3.org/2000/svg">
<path d="M172.663 13.5L162.358 45H154.528L147.598 23.67L140.443 45H132.658L122.308 13.5H129.868L136.978 35.64L144.403 13.5H151.153L158.353 35.82L165.688 13.5H172.663ZM184.201 20.43C187.951 20.43 190.831 21.33 192.841 23.13C194.851 24.9 195.856 27.585 195.856 31.185V45H189.286V41.985C187.966 44.235 185.506 45.36 181.906 45.36C180.046 45.36 178.426 45.045 177.046 44.415C175.696 43.785 174.661 42.915 173.941 41.805C173.221 40.695 172.861 39.435 172.861 38.025C172.861 35.775 173.701 34.005 175.381 32.715C177.091 31.425 179.716 30.78 183.256 30.78H188.836C188.836 29.25 188.371 28.08 187.441 27.27C186.511 26.43 185.116 26.01 183.256 26.01C181.966 26.01 180.691 26.22 179.431 26.64C178.201 27.03 177.151 27.57 176.281 28.26L173.761 23.355C175.081 22.425 176.656 21.705 178.486 21.195C180.346 20.685 182.251 20.43 184.201 20.43ZM183.661 40.635C184.861 40.635 185.926 40.365 186.856 39.825C187.786 39.255 188.446 38.43 188.836 37.35V34.875H184.021C181.141 34.875 179.701 35.82 179.701 37.71C179.701 38.61 180.046 39.33 180.736 39.87C181.456 40.38 182.431 40.635 183.661 40.635ZM202.209 11.61H209.229V45H202.209V11.61ZM226.139 35.505L222.764 38.835V45H215.744V11.61H222.764V30.51L233.024 20.79H241.394L231.314 31.05L242.294 45H233.789L226.139 35.505ZM243.365 29.52H256.1V35.145H243.365V29.52ZM261.623 20.79H268.643V45H261.623V20.79ZM265.133 17.415C263.843 17.415 262.793 17.04 261.983 16.29C261.173 15.54 260.768 14.61 260.768 13.5C260.768 12.39 261.173 11.46 261.983 10.71C262.793 9.96 263.843 9.585 265.133 9.585C266.423 9.585 267.473 9.945 268.283 10.665C269.093 11.385 269.498 12.285 269.498 13.365C269.498 14.535 269.093 15.51 268.283 16.29C267.473 17.04 266.423 17.415 265.133 17.415ZM289.873 20.43C292.873 20.43 295.288 21.33 297.118 23.13C298.978 24.93 299.908 27.6 299.908 31.14V45H292.888V32.22C292.888 30.3 292.468 28.875 291.628 27.945C290.788 26.985 289.573 26.505 287.983 26.505C286.213 26.505 284.803 27.06 283.753 28.17C282.703 29.25 282.178 30.87 282.178 33.03V45H275.158V20.79H281.863V23.625C282.793 22.605 283.948 21.825 285.328 21.285C286.708 20.715 288.223 20.43 289.873 20.43ZM314.417 45.36C312.407 45.36 310.442 45.12 308.522 44.64C306.602 44.13 305.072 43.5 303.932 42.75L306.272 37.71C307.352 38.4 308.657 38.97 310.187 39.42C311.717 39.84 313.217 40.05 314.687 40.05C317.657 40.05 319.142 39.315 319.142 37.845C319.142 37.155 318.737 36.66 317.927 36.36C317.117 36.06 315.872 35.805 314.192 35.595C312.212 35.295 310.577 34.95 309.287 34.56C307.997 34.17 306.872 33.48 305.912 32.49C304.982 31.5 304.517 30.09 304.517 28.26C304.517 26.73 304.952 25.38 305.822 24.21C306.722 23.01 308.012 22.08 309.692 21.42C311.402 20.76 313.412 20.43 315.722 20.43C317.432 20.43 319.127 20.625 320.807 21.015C322.517 21.375 323.927 21.885 325.037 22.545L322.697 27.54C320.567 26.34 318.242 25.74 315.722 25.74C314.222 25.74 313.097 25.95 312.347 26.37C311.597 26.79 311.222 27.33 311.222 27.99C311.222 28.74 311.627 29.265 312.437 29.565C313.247 29.865 314.537 30.15 316.307 30.42C318.287 30.75 319.907 31.11 321.167 31.5C322.427 31.86 323.522 32.535 324.452 33.525C325.382 34.515 325.847 35.895 325.847 37.665C325.847 39.165 325.397 40.5 324.497 41.67C323.597 42.84 322.277 43.755 320.537 44.415C318.827 45.045 316.787 45.36 314.417 45.36ZM170.136 49.5L159.831 81H152.001L145.071 59.67L137.916 81H130.131L119.781 49.5H127.341L134.451 71.64L141.876 49.5H148.626L155.826 71.82L163.161 49.5H170.136ZM195.624 68.985C195.624 69.075 195.579 69.705 195.489 70.875H177.174C177.504 72.375 178.284 73.56 179.514 74.43C180.744 75.3 182.274 75.735 184.104 75.735C185.364 75.735 186.474 75.555 187.434 75.195C188.424 74.805 189.339 74.205 190.179 73.395L193.914 77.445C191.634 80.055 188.304 81.36 183.924 81.36C181.194 81.36 178.779 80.835 176.679 79.785C174.579 78.705 172.959 77.22 171.819 75.33C170.679 73.44 170.109 71.295 170.109 68.895C170.109 66.525 170.664 64.395 171.774 62.505C172.914 60.585 174.459 59.1 176.409 58.05C178.389 56.97 180.594 56.43 183.024 56.43C185.394 56.43 187.539 56.94 189.459 57.96C191.379 58.98 192.879 60.45 193.959 62.37C195.069 64.26 195.624 66.465 195.624 68.985ZM183.069 61.74C181.479 61.74 180.144 62.19 179.064 63.09C177.984 63.99 177.324 65.22 177.084 66.78H189.009C188.769 65.25 188.109 64.035 187.029 63.135C185.949 62.205 184.629 61.74 183.069 61.74ZM200.298 47.61H207.318V81H200.298V47.61ZM225.533 81.36C222.953 81.36 220.628 80.835 218.558 79.785C216.518 78.705 214.913 77.22 213.743 75.33C212.603 73.44 212.033 71.295 212.033 68.895C212.033 66.495 212.603 64.35 213.743 62.46C214.913 60.57 216.518 59.1 218.558 58.05C220.628 56.97 222.953 56.43 225.533 56.43C228.083 56.43 230.303 56.97 232.193 58.05C234.113 59.1 235.508 60.615 236.378 62.595L230.933 65.52C229.673 63.3 227.858 62.19 225.488 62.19C223.658 62.19 222.143 62.79 220.943 63.99C219.743 65.19 219.143 66.825 219.143 68.895C219.143 70.965 219.743 72.6 220.943 73.8C222.143 75 223.658 75.6 225.488 75.6C227.888 75.6 229.703 74.49 230.933 72.27L236.378 75.24C235.508 77.16 234.113 78.66 232.193 79.74C230.303 80.82 228.083 81.36 225.533 81.36ZM251.632 81.36C249.082 81.36 246.787 80.835 244.747 79.785C242.737 78.705 241.162 77.22 240.022 75.33C238.882 73.44 238.312 71.295 238.312 68.895C238.312 66.495 238.882 64.35 240.022 62.46C241.162 60.57 242.737 59.1 244.747 58.05C246.787 56.97 249.082 56.43 251.632 56.43C254.182 56.43 256.462 56.97 258.472 58.05C260.482 59.1 262.057 60.57 263.197 62.46C264.337 64.35 264.907 66.495 264.907 68.895C264.907 71.295 264.337 73.44 263.197 75.33C262.057 77.22 260.482 78.705 258.472 79.785C256.462 80.835 254.182 81.36 251.632 81.36ZM251.632 75.6C253.432 75.6 254.902 75 256.042 73.8C257.212 72.57 257.797 70.935 257.797 68.895C257.797 66.855 257.212 65.235 256.042 64.035C254.902 62.805 253.432 62.19 251.632 62.19C249.832 62.19 248.347 62.805 247.177 64.035C246.007 65.235 245.422 66.855 245.422 68.895C245.422 70.935 246.007 72.57 247.177 73.8C248.347 75 249.832 75.6 251.632 75.6ZM300.604 56.43C303.634 56.43 306.034 57.33 307.804 59.13C309.604 60.9 310.504 63.57 310.504 67.14V81H303.484V68.22C303.484 66.3 303.079 64.875 302.269 63.945C301.489 62.985 300.364 62.505 298.894 62.505C297.244 62.505 295.939 63.045 294.979 64.125C294.019 65.175 293.539 66.75 293.539 68.85V81H286.519V68.22C286.519 64.41 284.989 62.505 281.929 62.505C280.309 62.505 279.019 63.045 278.059 64.125C277.099 65.175 276.619 66.75 276.619 68.85V81H269.599V56.79H276.304V59.58C277.204 58.56 278.299 57.78 279.589 57.24C280.909 56.7 282.349 56.43 283.909 56.43C285.619 56.43 287.164 56.775 288.544 57.465C289.924 58.125 291.034 59.1 291.874 60.39C292.864 59.13 294.109 58.155 295.609 57.465C297.139 56.775 298.804 56.43 300.604 56.43ZM340.775 68.985C340.775 69.075 340.73 69.705 340.64 70.875H322.325C322.655 72.375 323.435 73.56 324.665 74.43C325.895 75.3 327.425 75.735 329.255 75.735C330.515 75.735 331.625 75.555 332.585 75.195C333.575 74.805 334.49 74.205 335.33 73.395L339.065 77.445C336.785 80.055 333.455 81.36 329.075 81.36C326.345 81.36 323.93 80.835 321.83 79.785C319.73 78.705 318.11 77.22 316.97 75.33C315.83 73.44 315.26 71.295 315.26 68.895C315.26 66.525 315.815 64.395 316.925 62.505C318.065 60.585 319.61 59.1 321.56 58.05C323.54 56.97 325.745 56.43 328.175 56.43C330.545 56.43 332.69 56.94 334.61 57.96C336.53 58.98 338.03 60.45 339.11 62.37C340.22 64.26 340.775 66.465 340.775 68.985ZM328.22 61.74C326.63 61.74 325.295 62.19 324.215 63.09C323.135 63.99 322.475 65.22 322.235 66.78H334.16C333.92 65.25 333.26 64.035 332.18 63.135C331.1 62.205 329.78 61.74 328.22 61.74Z" fill="#49B8AF"/>
<path d="M109.097 92.28V97.78H116.337V99.06H109.097V105H107.617V91H117.217V92.28H109.097ZM120.338 96.54C120.671 95.8333 121.165 95.3 121.818 94.94C122.485 94.58 123.305 94.4 124.278 94.4V95.78L123.938 95.76C122.831 95.76 121.965 96.1 121.338 96.78C120.711 97.46 120.398 98.4133 120.398 99.64V105H118.978V94.48H120.338V96.54ZM135.111 100.18H126.311C126.391 101.273 126.811 102.16 127.571 102.84C128.331 103.507 129.291 103.84 130.451 103.84C131.105 103.84 131.705 103.727 132.251 103.5C132.798 103.26 133.271 102.913 133.671 102.46L134.471 103.38C134.005 103.94 133.418 104.367 132.711 104.66C132.018 104.953 131.251 105.1 130.411 105.1C129.331 105.1 128.371 104.873 127.531 104.42C126.705 103.953 126.058 103.313 125.591 102.5C125.125 101.687 124.891 100.767 124.891 99.74C124.891 98.7133 125.111 97.7933 125.551 96.98C126.005 96.1667 126.618 95.5333 127.391 95.08C128.178 94.6267 129.058 94.4 130.031 94.4C131.005 94.4 131.878 94.6267 132.651 95.08C133.425 95.5333 134.031 96.1667 134.471 96.98C134.911 97.78 135.131 98.7 135.131 99.74L135.111 100.18ZM130.031 95.62C129.018 95.62 128.165 95.9467 127.471 96.6C126.791 97.24 126.405 98.08 126.311 99.12H133.771C133.678 98.08 133.285 97.24 132.591 96.6C131.911 95.9467 131.058 95.62 130.031 95.62ZM146.382 100.18H137.582C137.662 101.273 138.082 102.16 138.842 102.84C139.602 103.507 140.562 103.84 141.722 103.84C142.375 103.84 142.975 103.727 143.522 103.5C144.068 103.26 144.542 102.913 144.942 102.46L145.742 103.38C145.275 103.94 144.688 104.367 143.982 104.66C143.288 104.953 142.522 105.1 141.682 105.1C140.602 105.1 139.642 104.873 138.802 104.42C137.975 103.953 137.328 103.313 136.862 102.5C136.395 101.687 136.162 100.767 136.162 99.74C136.162 98.7133 136.382 97.7933 136.822 96.98C137.275 96.1667 137.888 95.5333 138.662 95.08C139.448 94.6267 140.328 94.4 141.302 94.4C142.275 94.4 143.148 94.6267 143.922 95.08C144.695 95.5333 145.302 96.1667 145.742 96.98C146.182 97.78 146.402 98.7 146.402 99.74L146.382 100.18ZM141.302 95.62C140.288 95.62 139.435 95.9467 138.742 96.6C138.062 97.24 137.675 98.08 137.582 99.12H145.042C144.948 98.08 144.555 97.24 143.862 96.6C143.182 95.9467 142.328 95.62 141.302 95.62ZM159.306 105.12C157.92 105.12 156.666 104.813 155.546 104.2C154.44 103.587 153.566 102.74 152.926 101.66C152.3 100.567 151.986 99.3467 151.986 98C151.986 96.6533 152.3 95.44 152.926 94.36C153.566 93.2667 154.446 92.4133 155.566 91.8C156.686 91.1867 157.94 90.88 159.326 90.88C160.366 90.88 161.326 91.0533 162.206 91.4C163.086 91.7467 163.833 92.2533 164.446 92.92L163.506 93.86C162.413 92.7533 161.033 92.2 159.366 92.2C158.26 92.2 157.253 92.4533 156.346 92.96C155.44 93.4667 154.726 94.16 154.206 95.04C153.7 95.92 153.446 96.9067 153.446 98C153.446 99.0933 153.7 100.08 154.206 100.96C154.726 101.84 155.44 102.533 156.346 103.04C157.253 103.547 158.26 103.8 159.366 103.8C161.046 103.8 162.426 103.24 163.506 102.12L164.446 103.06C163.833 103.727 163.08 104.24 162.186 104.6C161.306 104.947 160.346 105.12 159.306 105.12ZM166.501 90.16H167.921V105H166.501V90.16ZM171.073 94.48H172.493V105H171.073V94.48ZM171.793 92.18C171.499 92.18 171.253 92.08 171.053 91.88C170.853 91.68 170.753 91.44 170.753 91.16C170.753 90.8933 170.853 90.66 171.053 90.46C171.253 90.26 171.499 90.16 171.793 90.16C172.086 90.16 172.333 90.26 172.533 90.46C172.733 90.6467 172.833 90.8733 172.833 91.14C172.833 91.4333 172.733 91.68 172.533 91.88C172.333 92.08 172.086 92.18 171.793 92.18ZM181.004 94.4C182.324 94.4 183.37 94.7867 184.144 95.56C184.93 96.32 185.324 97.4333 185.324 98.9V105H183.904V99.04C183.904 97.9467 183.63 97.1133 183.084 96.54C182.537 95.9667 181.757 95.68 180.744 95.68C179.61 95.68 178.71 96.02 178.044 96.7C177.39 97.3667 177.064 98.2933 177.064 99.48V105H175.644V94.48H177.004V96.42C177.39 95.78 177.924 95.2867 178.604 94.94C179.297 94.58 180.097 94.4 181.004 94.4ZM188.379 94.48H189.799V105H188.379V94.48ZM189.099 92.18C188.806 92.18 188.559 92.08 188.359 91.88C188.159 91.68 188.059 91.44 188.059 91.16C188.059 90.8933 188.159 90.66 188.359 90.46C188.559 90.26 188.806 90.16 189.099 90.16C189.392 90.16 189.639 90.26 189.839 90.46C190.039 90.6467 190.139 90.8733 190.139 91.14C190.139 91.4333 190.039 91.68 189.839 91.88C189.639 92.08 189.392 92.18 189.099 92.18ZM197.31 105.1C196.27 105.1 195.337 104.873 194.51 104.42C193.697 103.967 193.057 103.333 192.59 102.52C192.123 101.693 191.89 100.767 191.89 99.74C191.89 98.7133 192.123 97.7933 192.59 96.98C193.057 96.1667 193.697 95.5333 194.51 95.08C195.337 94.6267 196.27 94.4 197.31 94.4C198.217 94.4 199.023 94.58 199.73 94.94C200.45 95.2867 201.017 95.8 201.43 96.48L200.37 97.2C200.023 96.68 199.583 96.2933 199.05 96.04C198.517 95.7733 197.937 95.64 197.31 95.64C196.55 95.64 195.863 95.8133 195.25 96.16C194.65 96.4933 194.177 96.9733 193.83 97.6C193.497 98.2267 193.33 98.94 193.33 99.74C193.33 100.553 193.497 101.273 193.83 101.9C194.177 102.513 194.65 102.993 195.25 103.34C195.863 103.673 196.55 103.84 197.31 103.84C197.937 103.84 198.517 103.713 199.05 103.46C199.583 103.207 200.023 102.82 200.37 102.3L201.43 103.02C201.017 103.7 200.45 104.22 199.73 104.58C199.01 104.927 198.203 105.1 197.31 105.1ZM203.97 102.92C204.277 102.92 204.53 103.027 204.73 103.24C204.93 103.44 205.03 103.693 205.03 104C205.03 104.16 205.003 104.333 204.95 104.52C204.91 104.707 204.843 104.92 204.75 105.16L203.91 107.92H202.95L203.63 105.02C203.417 104.953 203.243 104.833 203.11 104.66C202.977 104.473 202.91 104.253 202.91 104C202.91 103.693 203.01 103.44 203.21 103.24C203.41 103.027 203.663 102.92 203.97 102.92ZM221.883 103.72V105H211.983V91H221.583V92.28H213.463V97.26H220.703V98.52H213.463V103.72H221.883ZM229.622 94.4C230.942 94.4 231.988 94.7867 232.762 95.56C233.548 96.32 233.942 97.4333 233.942 98.9V105H232.522V99.04C232.522 97.9467 232.248 97.1133 231.702 96.54C231.155 95.9667 230.375 95.68 229.362 95.68C228.228 95.68 227.328 96.02 226.662 96.7C226.008 97.3667 225.682 98.2933 225.682 99.48V105H224.262V94.48H225.622V96.42C226.008 95.78 226.542 95.2867 227.222 94.94C227.915 94.58 228.715 94.4 229.622 94.4ZM242.537 104.36C242.27 104.6 241.937 104.787 241.537 104.92C241.15 105.04 240.743 105.1 240.317 105.1C239.33 105.1 238.57 104.833 238.037 104.3C237.503 103.767 237.237 103.013 237.237 102.04V95.68H235.357V94.48H237.237V92.18H238.657V94.48H241.857V95.68H238.657V101.96C238.657 102.587 238.81 103.067 239.117 103.4C239.437 103.72 239.89 103.88 240.477 103.88C240.77 103.88 241.05 103.833 241.317 103.74C241.597 103.647 241.837 103.513 242.037 103.34L242.537 104.36ZM244.322 94.48H245.742V105H244.322V94.48ZM245.042 92.18C244.748 92.18 244.502 92.08 244.302 91.88C244.102 91.68 244.002 91.44 244.002 91.16C244.002 90.8933 244.102 90.66 244.302 90.46C244.502 90.26 244.748 90.16 245.042 90.16C245.335 90.16 245.582 90.26 245.782 90.46C245.982 90.6467 246.082 90.8733 246.082 91.14C246.082 91.4333 245.982 91.68 245.782 91.88C245.582 92.08 245.335 92.18 245.042 92.18ZM250.253 96.54C250.586 95.8333 251.08 95.3 251.733 94.94C252.4 94.58 253.22 94.4 254.193 94.4V95.78L253.853 95.76C252.746 95.76 251.88 96.1 251.253 96.78C250.626 97.46 250.313 98.4133 250.313 99.64V105H248.893V94.48H250.253V96.54ZM265.026 100.18H256.226C256.306 101.273 256.726 102.16 257.486 102.84C258.246 103.507 259.206 103.84 260.366 103.84C261.02 103.84 261.62 103.727 262.166 103.5C262.713 103.26 263.186 102.913 263.586 102.46L264.386 103.38C263.92 103.94 263.333 104.367 262.626 104.66C261.933 104.953 261.166 105.1 260.326 105.1C259.246 105.1 258.286 104.873 257.446 104.42C256.62 103.953 255.973 103.313 255.506 102.5C255.04 101.687 254.806 100.767 254.806 99.74C254.806 98.7133 255.026 97.7933 255.466 96.98C255.92 96.1667 256.533 95.5333 257.306 95.08C258.093 94.6267 258.973 94.4 259.946 94.4C260.92 94.4 261.793 94.6267 262.566 95.08C263.34 95.5333 263.946 96.1667 264.386 96.98C264.826 97.78 265.046 98.7 265.046 99.74L265.026 100.18ZM259.946 95.62C258.933 95.62 258.08 95.9467 257.386 96.6C256.706 97.24 256.32 98.08 256.226 99.12H263.686C263.593 98.08 263.2 97.24 262.506 96.6C261.826 95.9467 260.973 95.62 259.946 95.62ZM267.137 90.16H268.557V105H267.137V90.16ZM280.548 94.48L275.288 106.26C274.861 107.247 274.368 107.947 273.808 108.36C273.248 108.773 272.574 108.98 271.788 108.98C271.281 108.98 270.808 108.9 270.368 108.74C269.928 108.58 269.548 108.34 269.228 108.02L269.888 106.96C270.421 107.493 271.061 107.76 271.808 107.76C272.288 107.76 272.694 107.627 273.028 107.36C273.374 107.093 273.694 106.64 273.988 106L274.448 104.98L269.748 94.48H271.228L275.188 103.42L279.148 94.48H280.548ZM290.482 105.1C289.469 105.1 288.555 104.873 287.742 104.42C286.929 103.953 286.289 103.313 285.822 102.5C285.355 101.687 285.122 100.767 285.122 99.74C285.122 98.7133 285.355 97.7933 285.822 96.98C286.289 96.1667 286.929 95.5333 287.742 95.08C288.555 94.6267 289.469 94.4 290.482 94.4C291.495 94.4 292.409 94.6267 293.222 95.08C294.035 95.5333 294.669 96.1667 295.122 96.98C295.589 97.7933 295.822 98.7133 295.822 99.74C295.822 100.767 295.589 101.687 295.122 102.5C294.669 103.313 294.035 103.953 293.222 104.42C292.409 104.873 291.495 105.1 290.482 105.1ZM290.482 103.84C291.229 103.84 291.895 103.673 292.482 103.34C293.082 102.993 293.549 102.507 293.882 101.88C294.215 101.253 294.382 100.54 294.382 99.74C294.382 98.94 294.215 98.2267 293.882 97.6C293.549 96.9733 293.082 96.4933 292.482 96.16C291.895 95.8133 291.229 95.64 290.482 95.64C289.735 95.64 289.062 95.8133 288.462 96.16C287.875 96.4933 287.409 96.9733 287.062 97.6C286.729 98.2267 286.562 98.94 286.562 99.74C286.562 100.54 286.729 101.253 287.062 101.88C287.409 102.507 287.875 102.993 288.462 103.34C289.062 103.673 289.735 103.84 290.482 103.84ZM303.281 94.4C304.601 94.4 305.648 94.7867 306.421 95.56C307.208 96.32 307.601 97.4333 307.601 98.9V105H306.181V99.04C306.181 97.9467 305.908 97.1133 305.361 96.54C304.814 95.9667 304.034 95.68 303.021 95.68C301.888 95.68 300.988 96.02 300.321 96.7C299.668 97.3667 299.341 98.2933 299.341 99.48V105H297.921V94.48H299.281V96.42C299.668 95.78 300.201 95.2867 300.881 94.94C301.574 94.58 302.374 94.4 303.281 94.4ZM310.656 90.16H312.076V105H310.656V90.16ZM315.227 94.48H316.647V105H315.227V94.48ZM315.947 92.18C315.654 92.18 315.407 92.08 315.207 91.88C315.007 91.68 314.907 91.44 314.907 91.16C314.907 90.8933 315.007 90.66 315.207 90.46C315.407 90.26 315.654 90.16 315.947 90.16C316.241 90.16 316.487 90.26 316.687 90.46C316.887 90.6467 316.987 90.8733 316.987 91.14C316.987 91.4333 316.887 91.68 316.687 91.88C316.487 92.08 316.241 92.18 315.947 92.18ZM325.158 94.4C326.478 94.4 327.525 94.7867 328.298 95.56C329.085 96.32 329.478 97.4333 329.478 98.9V105H328.058V99.04C328.058 97.9467 327.785 97.1133 327.238 96.54C326.692 95.9667 325.912 95.68 324.898 95.68C323.765 95.68 322.865 96.02 322.198 96.7C321.545 97.3667 321.218 98.2933 321.218 99.48V105H319.798V94.48H321.158V96.42C321.545 95.78 322.078 95.2867 322.758 94.94C323.452 94.58 324.252 94.4 325.158 94.4ZM341.733 100.18H332.933C333.013 101.273 333.433 102.16 334.193 102.84C334.953 103.507 335.913 103.84 337.073 103.84C337.726 103.84 338.326 103.727 338.873 103.5C339.419 103.26 339.893 102.913 340.293 102.46L341.093 103.38C340.626 103.94 340.039 104.367 339.333 104.66C338.639 104.953 337.873 105.1 337.033 105.1C335.953 105.1 334.993 104.873 334.153 104.42C333.326 103.953 332.679 103.313 332.213 102.5C331.746 101.687 331.513 100.767 331.513 99.74C331.513 98.7133 331.733 97.7933 332.173 96.98C332.626 96.1667 333.239 95.5333 334.013 95.08C334.799 94.6267 335.679 94.4 336.653 94.4C337.626 94.4 338.499 94.6267 339.273 95.08C340.046 95.5333 340.653 96.1667 341.093 96.98C341.533 97.78 341.753 98.7 341.753 99.74L341.733 100.18ZM336.653 95.62C335.639 95.62 334.786 95.9467 334.093 96.6C333.413 97.24 333.026 98.08 332.933 99.12H340.393C340.299 98.08 339.906 97.24 339.213 96.6C338.533 95.9467 337.679 95.62 336.653 95.62Z" fill="#2E4A56"/>
<path d="M85.8746 0H85.5927C74.3788 0 64.4614 5.93392 58.7567 14.6901C53.052 5.93392 43.1346 0 31.9206 0H31.6388C23.223 0.0801995 15.179 3.47843 9.25466 9.45621C3.33036 15.434 0.00456854 23.5083 0 31.9244C0 42.3755 4.57727 57.2046 13.5026 69.4069C30.5076 92.6578 58.7567 113 58.7567 113C58.7567 113 87.0057 92.6616 104.007 69.4069C112.936 57.2046 117.51 42.3755 117.51 31.9244C117.505 23.5089 114.18 15.4352 108.256 9.45753C102.333 3.47985 94.2897 0.0811835 85.8746 0ZM81.8422 71.1957C80.5651 71.1909 79.3193 70.8 78.2683 70.0743C77.2174 69.3486 76.4104 68.3221 75.9534 67.1296H69.2491C68.8076 67.1268 68.378 66.9863 68.0202 66.7276C67.6625 66.4689 67.3945 66.1049 67.2536 65.6865L65.1942 59.482L58.6778 82.2519C58.5509 82.6902 58.2852 83.0755 57.9206 83.3499C57.5561 83.6244 57.1123 83.7731 56.6559 83.7738H56.5244C56.0483 83.7508 55.5945 83.5651 55.2388 83.2477C54.8831 82.9304 54.6471 82.5006 54.5702 82.0301L47.8547 41.6389L42.9467 65.5399C42.8341 65.994 42.5728 66.3972 42.2043 66.6853C41.8358 66.9735 41.3814 67.1299 40.9136 67.1296H31.4697C31.1866 67.1415 30.904 67.0961 30.6389 66.9961C30.3738 66.896 30.1317 66.7433 29.9271 66.5472C29.7226 66.3512 29.5598 66.1157 29.4486 65.8551C29.3374 65.5945 29.2801 65.3141 29.2801 65.0307C29.2801 64.7474 29.3374 64.4669 29.4486 64.2063C29.5598 63.9457 29.7226 63.7103 29.9271 63.5142C30.1317 63.3181 30.3738 63.1654 30.6389 63.0654C30.904 62.9653 31.1866 62.9199 31.4697 62.9319H39.2601L46.2124 30.797C46.3265 30.3219 46.6021 29.9012 46.9921 29.6068C47.3821 29.3124 47.8622 29.1626 48.3504 29.183C48.8386 29.2034 49.3046 29.3928 49.6686 29.7187C50.0326 30.0446 50.2722 30.4869 50.3462 30.9699L57.2046 72.1728L63.0446 51.8006C63.1662 51.3715 63.4233 50.9933 63.7775 50.7224C64.1317 50.4515 64.5641 50.3024 65.01 50.2974H65.0514C65.493 50.2975 65.9234 50.4371 66.281 50.6962C66.6387 50.9554 66.9054 51.3208 67.0431 51.7405L70.7673 62.9431H75.8707C76.2336 61.8408 76.8939 60.8601 77.7789 60.1093C78.6639 59.3586 79.7392 58.8669 80.8859 58.6886C82.0327 58.5104 83.2064 58.6524 84.2776 59.0991C85.3487 59.5458 86.2756 60.2797 86.956 61.2199C87.6364 62.1601 88.0437 63.27 88.1331 64.4271C88.2225 65.5842 87.9905 66.7435 87.4627 67.7771C86.9348 68.8106 86.1317 69.6783 85.1418 70.2842C84.152 70.8901 83.014 71.2108 81.8535 71.2108L81.8422 71.1957Z" fill="#49B8AF"/>
</svg>
