<svg width="1244" height="408" viewBox="0 0 1244 408" fill="none" xmlns="http://www.w3.org/2000/svg">
<g filter="url(#filter0_bf)">
<circle cx="626" cy="204" r="200" fill="#49B8AF" fill-opacity="0.2"/>
</g>
<g filter="url(#filter1_df)">
<ellipse cx="622.52" cy="202.88" rx="180.878" ry="180.88" fill="#49B8AF"/>
</g>
<path d="M668.805 180.744H672V220.413H668.805V180.744Z" fill="#2E4A56"/>
<path d="M581.204 186.805H581.755V194.188H581.204C579.987 194.188 579 193.201 579 191.984V189.009C579 187.791 579.987 186.805 581.204 186.805Z" fill="#2E4A56"/>
<path d="M647.318 207.08L647.207 194.188L667.372 180.744L667.152 220.413L647.318 207.08Z" fill="#2E4A56"/>
<path d="M583.297 181.695V201.669V221.084C583.297 224.782 586.295 227.779 589.992 227.779H638.309C642.006 227.779 645.004 224.782 645.004 221.084V181.695C645.004 177.997 642.006 175 638.309 175H589.992C586.295 175 583.297 177.997 583.297 181.695Z" fill="#2E4A56"/>
<path d="M600.09 179.019L597.846 179.842L595.377 181.413L593.431 183.808C592.858 186.204 592.855 187.546 593.431 189.943C594.923 194.034 595.974 196.244 598.22 200.044C603.875 207.859 607.76 211.849 616.177 218.15C621.013 221.642 624.111 222.92 630.318 223.986C632.018 223.887 632.778 223.684 633.835 223.088C635.932 221.42 636.689 220.212 637.725 217.851C638.065 216.79 638.036 216.217 637.576 215.232L627.924 208.947C627.052 208.459 626.654 208.385 626.128 208.648L620.965 211.342C620.117 211.503 619.641 211.494 618.796 211.117C613.149 206.963 610.431 204.318 606.301 199.071C605.227 197.471 605.134 196.571 605.552 196.078L607.722 192.636C608.574 191.468 608.58 190.812 608.246 189.644L602.036 180.066C601.568 179.164 601.146 178.925 600.09 179.019Z" fill="#E5F0F4"/>
<g filter="url(#filter2_d)">
<path d="M187.867 196.778L130.823 274H256.656L314.819 196.778L256.656 119H130.823L187.867 196.778Z" fill="#376E73"/>
</g>
<g filter="url(#filter3_d)">
<path d="M1057.04 196.5L1114.22 274H987.672L929.181 196.778L987.672 119H1114.22L1057.04 196.5Z" fill="#5792AC"/>
</g>
<g filter="url(#filter4_d)">
<path d="M314.69 196.778L256.606 274H384.468L441.642 196.778L384.468 119H256.606L314.69 196.778Z" fill="#3F8E8D"/>
</g>
<g filter="url(#filter5_d)">
<path d="M929.633 196.778L987.914 274H860.572L803.398 196.778L860.572 119H987.914L929.633 196.778Z" fill="#6FA2B8"/>
</g>
<g filter="url(#filter6_d)">
<path d="M441.791 196.778L384.468 274H510.917L564.306 197L510.917 119H384.468L441.791 196.778Z" fill="#46A9A2"/>
</g>
<g filter="url(#filter7_d)">
<path d="M803.375 196.778L860.572 274H734.402L682.812 196.778L734.402 119H860.572L803.375 196.778Z" fill="#89B3C5"/>
</g>
<g filter="url(#filter8_d)">
<path d="M187.997 196.5L130.603 274H81.5C38.6979 274 4 239.302 4 196.5C4 153.698 38.6979 119 81.5 119H130.603L187.997 196.5Z" fill="#2E4A56"/>
</g>
<g filter="url(#filter9_d)">
<path d="M1057.04 196.5L1114.11 274H1162.5C1205.3 274 1240 239.302 1240 196.5C1240 153.698 1205.3 119 1162.5 119H1114.11L1057.04 196.5Z" fill="#4687A3"/>
</g>
<path d="M40.1461 187C42.0061 187 43.6161 187.31 44.9761 187.93C46.3561 188.55 47.4161 189.43 48.1561 190.57C48.8961 191.71 49.2661 193.06 49.2661 194.62C49.2661 196.16 48.8961 197.51 48.1561 198.67C47.4161 199.81 46.3561 200.69 44.9761 201.31C43.6161 201.91 42.0061 202.21 40.1461 202.21H35.9161V208H31.0561V187H40.1461ZM39.8761 198.25C41.3361 198.25 42.4461 197.94 43.2061 197.32C43.9661 196.68 44.3461 195.78 44.3461 194.62C44.3461 193.44 43.9661 192.54 43.2061 191.92C42.4461 191.28 41.3361 190.96 39.8761 190.96H35.9161V198.25H39.8761ZM56.9758 193.99C57.5358 193.21 58.2858 192.62 59.2258 192.22C60.1858 191.82 61.2858 191.62 62.5258 191.62V195.94C62.0058 195.9 61.6558 195.88 61.4758 195.88C60.1358 195.88 59.0858 196.26 58.3258 197.02C57.5658 197.76 57.1858 198.88 57.1858 200.38V208H52.5058V191.86H56.9758V193.99ZM72.942 208.24C71.242 208.24 69.712 207.89 68.352 207.19C67.012 206.47 65.962 205.48 65.202 204.22C64.442 202.96 64.062 201.53 64.062 199.93C64.062 198.33 64.442 196.9 65.202 195.64C65.962 194.38 67.012 193.4 68.352 192.7C69.712 191.98 71.242 191.62 72.942 191.62C74.642 191.62 76.162 191.98 77.502 192.7C78.842 193.4 79.892 194.38 80.652 195.64C81.412 196.9 81.792 198.33 81.792 199.93C81.792 201.53 81.412 202.96 80.652 204.22C79.892 205.48 78.842 206.47 77.502 207.19C76.162 207.89 74.642 208.24 72.942 208.24ZM72.942 204.4C74.142 204.4 75.122 204 75.882 203.2C76.662 202.38 77.052 201.29 77.052 199.93C77.052 198.57 76.662 197.49 75.882 196.69C75.122 195.87 74.142 195.46 72.942 195.46C71.742 195.46 70.752 195.87 69.972 196.69C69.192 197.49 68.802 198.57 68.802 199.93C68.802 201.29 69.192 202.38 69.972 203.2C70.752 204 71.742 204.4 72.942 204.4ZM100.601 191.86L93.7908 208H88.9608L82.1808 191.86H87.0108L91.4808 202.84L96.1008 191.86H100.601ZM102.61 191.86H107.29V208H102.61V191.86ZM104.95 189.61C104.09 189.61 103.39 189.36 102.85 188.86C102.31 188.36 102.04 187.74 102.04 187C102.04 186.26 102.31 185.64 102.85 185.14C103.39 184.64 104.09 184.39 104.95 184.39C105.81 184.39 106.51 184.63 107.05 185.11C107.59 185.59 107.86 186.19 107.86 186.91C107.86 187.69 107.59 188.34 107.05 188.86C106.51 189.36 105.81 189.61 104.95 189.61ZM128.174 185.74V208H123.704V206.14C122.544 207.54 120.864 208.24 118.664 208.24C117.144 208.24 115.764 207.9 114.524 207.22C113.304 206.54 112.344 205.57 111.644 204.31C110.944 203.05 110.594 201.59 110.594 199.93C110.594 198.27 110.944 196.81 111.644 195.55C112.344 194.29 113.304 193.32 114.524 192.64C115.764 191.96 117.144 191.62 118.664 191.62C120.724 191.62 122.334 192.27 123.494 193.57V185.74H128.174ZM119.474 204.4C120.654 204.4 121.634 204 122.414 203.2C123.194 202.38 123.584 201.29 123.584 199.93C123.584 198.57 123.194 197.49 122.414 196.69C121.634 195.87 120.654 195.46 119.474 195.46C118.274 195.46 117.284 195.87 116.504 196.69C115.724 197.49 115.334 198.57 115.334 199.93C115.334 201.29 115.724 202.38 116.504 203.2C117.284 204 118.274 204.4 119.474 204.4ZM148.415 199.99C148.415 200.05 148.385 200.47 148.325 201.25H136.115C136.335 202.25 136.855 203.04 137.675 203.62C138.495 204.2 139.515 204.49 140.735 204.49C141.575 204.49 142.315 204.37 142.955 204.13C143.615 203.87 144.225 203.47 144.785 202.93L147.275 205.63C145.755 207.37 143.535 208.24 140.615 208.24C138.795 208.24 137.185 207.89 135.785 207.19C134.385 206.47 133.305 205.48 132.545 204.22C131.785 202.96 131.405 201.53 131.405 199.93C131.405 198.35 131.775 196.93 132.515 195.67C133.275 194.39 134.305 193.4 135.605 192.7C136.925 191.98 138.395 191.62 140.015 191.62C141.595 191.62 143.025 191.96 144.305 192.64C145.585 193.32 146.585 194.3 147.305 195.58C148.045 196.84 148.415 198.31 148.415 199.99ZM140.045 195.16C138.985 195.16 138.095 195.46 137.375 196.06C136.655 196.66 136.215 197.48 136.055 198.52H144.005C143.845 197.5 143.405 196.69 142.685 196.09C141.965 195.47 141.085 195.16 140.045 195.16ZM156.101 193.99C156.661 193.21 157.411 192.62 158.351 192.22C159.311 191.82 160.411 191.62 161.651 191.62V195.94C161.131 195.9 160.781 195.88 160.601 195.88C159.261 195.88 158.211 196.26 157.451 197.02C156.691 197.76 156.311 198.88 156.311 200.38V208H151.631V191.86H156.101V193.99Z" fill="#E5F0F4"/>
<path d="M207.653 189H210.893V200.36H217.913V203H207.653V189ZM224.646 203.16C223.512 203.16 222.492 202.927 221.586 202.46C220.692 201.98 219.992 201.32 219.486 200.48C218.979 199.64 218.726 198.687 218.726 197.62C218.726 196.553 218.979 195.6 219.486 194.76C219.992 193.92 220.692 193.267 221.586 192.8C222.492 192.32 223.512 192.08 224.646 192.08C225.779 192.08 226.792 192.32 227.686 192.8C228.579 193.267 229.279 193.92 229.786 194.76C230.292 195.6 230.546 196.553 230.546 197.62C230.546 198.687 230.292 199.64 229.786 200.48C229.279 201.32 228.579 201.98 227.686 202.46C226.792 202.927 225.779 203.16 224.646 203.16ZM224.646 200.6C225.446 200.6 226.099 200.333 226.606 199.8C227.126 199.253 227.386 198.527 227.386 197.62C227.386 196.713 227.126 195.993 226.606 195.46C226.099 194.913 225.446 194.64 224.646 194.64C223.846 194.64 223.186 194.913 222.666 195.46C222.146 195.993 221.886 196.713 221.886 197.62C221.886 198.527 222.146 199.253 222.666 199.8C223.186 200.333 223.846 200.6 224.646 200.6ZM243.831 192.24V201.2C243.831 203.173 243.318 204.64 242.291 205.6C241.264 206.56 239.764 207.04 237.791 207.04C236.751 207.04 235.764 206.913 234.831 206.66C233.898 206.407 233.124 206.04 232.511 205.56L233.751 203.32C234.204 203.693 234.778 203.987 235.471 204.2C236.164 204.427 236.858 204.54 237.551 204.54C238.631 204.54 239.424 204.293 239.931 203.8C240.451 203.32 240.711 202.587 240.711 201.6V201.14C239.898 202.033 238.764 202.48 237.311 202.48C236.324 202.48 235.418 202.267 234.591 201.84C233.778 201.4 233.131 200.787 232.651 200C232.171 199.213 231.931 198.307 231.931 197.28C231.931 196.253 232.171 195.347 232.651 194.56C233.131 193.773 233.778 193.167 234.591 192.74C235.418 192.3 236.324 192.08 237.311 192.08C238.871 192.08 240.058 192.593 240.871 193.62V192.24H243.831ZM237.931 199.92C238.758 199.92 239.431 199.68 239.951 199.2C240.484 198.707 240.751 198.067 240.751 197.28C240.751 196.493 240.484 195.86 239.951 195.38C239.431 194.887 238.758 194.64 237.931 194.64C237.104 194.64 236.424 194.887 235.891 195.38C235.358 195.86 235.091 196.493 235.091 197.28C235.091 198.067 235.358 198.707 235.891 199.2C236.424 199.68 237.104 199.92 237.931 199.92ZM246.835 192.24H249.955V203H246.835V192.24ZM248.395 190.74C247.822 190.74 247.355 190.573 246.995 190.24C246.635 189.907 246.455 189.493 246.455 189C246.455 188.507 246.635 188.093 246.995 187.76C247.355 187.427 247.822 187.26 248.395 187.26C248.968 187.26 249.435 187.42 249.795 187.74C250.155 188.06 250.335 188.46 250.335 188.94C250.335 189.46 250.155 189.893 249.795 190.24C249.435 190.573 248.968 190.74 248.395 190.74ZM259.491 192.08C260.824 192.08 261.897 192.48 262.711 193.28C263.537 194.08 263.951 195.267 263.951 196.84V203H260.831V197.32C260.831 196.467 260.644 195.833 260.271 195.42C259.897 194.993 259.357 194.78 258.651 194.78C257.864 194.78 257.237 195.027 256.771 195.52C256.304 196 256.071 196.72 256.071 197.68V203H252.951V192.24H255.931V193.5C256.344 193.047 256.857 192.7 257.471 192.46C258.084 192.207 258.757 192.08 259.491 192.08Z" fill="#E5F0F4"/>
<path d="M352.013 179V193H348.773V187.26H342.413V193H339.173V179H342.413V184.52H348.773V179H352.013ZM360.325 193.16C359.192 193.16 358.172 192.927 357.265 192.46C356.372 191.98 355.672 191.32 355.165 190.48C354.659 189.64 354.405 188.687 354.405 187.62C354.405 186.553 354.659 185.6 355.165 184.76C355.672 183.92 356.372 183.267 357.265 182.8C358.172 182.32 359.192 182.08 360.325 182.08C361.459 182.08 362.472 182.32 363.365 182.8C364.259 183.267 364.959 183.92 365.465 184.76C365.972 185.6 366.225 186.553 366.225 187.62C366.225 188.687 365.972 189.64 365.465 190.48C364.959 191.32 364.259 191.98 363.365 192.46C362.472 192.927 361.459 193.16 360.325 193.16ZM360.325 190.6C361.125 190.6 361.779 190.333 362.285 189.8C362.805 189.253 363.065 188.527 363.065 187.62C363.065 186.713 362.805 185.993 362.285 185.46C361.779 184.913 361.125 184.64 360.325 184.64C359.525 184.64 358.865 184.913 358.345 185.46C357.825 185.993 357.565 186.713 357.565 187.62C357.565 188.527 357.825 189.253 358.345 189.8C358.865 190.333 359.525 190.6 360.325 190.6ZM372.031 193.16C371.137 193.16 370.264 193.053 369.411 192.84C368.557 192.613 367.877 192.333 367.371 192L368.411 189.76C368.891 190.067 369.471 190.32 370.151 190.52C370.831 190.707 371.497 190.8 372.151 190.8C373.471 190.8 374.131 190.473 374.131 189.82C374.131 189.513 373.951 189.293 373.591 189.16C373.231 189.027 372.677 188.913 371.931 188.82C371.051 188.687 370.324 188.533 369.751 188.36C369.177 188.187 368.677 187.88 368.251 187.44C367.837 187 367.631 186.373 367.631 185.56C367.631 184.88 367.824 184.28 368.211 183.76C368.611 183.227 369.184 182.813 369.931 182.52C370.691 182.227 371.584 182.08 372.611 182.08C373.371 182.08 374.124 182.167 374.871 182.34C375.631 182.5 376.257 182.727 376.751 183.02L375.711 185.24C374.764 184.707 373.731 184.44 372.611 184.44C371.944 184.44 371.444 184.533 371.111 184.72C370.777 184.907 370.611 185.147 370.611 185.44C370.611 185.773 370.791 186.007 371.151 186.14C371.511 186.273 372.084 186.4 372.871 186.52C373.751 186.667 374.471 186.827 375.031 187C375.591 187.16 376.077 187.46 376.491 187.9C376.904 188.34 377.111 188.953 377.111 189.74C377.111 190.407 376.911 191 376.511 191.52C376.111 192.04 375.524 192.447 374.751 192.74C373.991 193.02 373.084 193.16 372.031 193.16ZM386.076 192.48C385.769 192.707 385.389 192.88 384.936 193C384.496 193.107 384.029 193.16 383.536 193.16C382.256 193.16 381.262 192.833 380.556 192.18C379.862 191.527 379.516 190.567 379.516 189.3V184.88H377.856V182.48H379.516V179.86H382.636V182.48H385.316V184.88H382.636V189.26C382.636 189.713 382.749 190.067 382.976 190.32C383.216 190.56 383.549 190.68 383.976 190.68C384.469 190.68 384.889 190.547 385.236 190.28L386.076 192.48ZM341.483 215L338.783 211.1H338.623H335.803V215H332.563V201H338.623C339.863 201 340.936 201.207 341.843 201.62C342.763 202.033 343.469 202.62 343.963 203.38C344.456 204.14 344.703 205.04 344.703 206.08C344.703 207.12 344.449 208.02 343.943 208.78C343.449 209.527 342.743 210.1 341.823 210.5L344.963 215H341.483ZM341.423 206.08C341.423 205.293 341.169 204.693 340.663 204.28C340.156 203.853 339.416 203.64 338.443 203.64H335.803V208.52H338.443C339.416 208.52 340.156 208.307 340.663 207.88C341.169 207.453 341.423 206.853 341.423 206.08ZM352.27 215.16C351.136 215.16 350.116 214.927 349.21 214.46C348.316 213.98 347.616 213.32 347.11 212.48C346.603 211.64 346.35 210.687 346.35 209.62C346.35 208.553 346.603 207.6 347.11 206.76C347.616 205.92 348.316 205.267 349.21 204.8C350.116 204.32 351.136 204.08 352.27 204.08C353.403 204.08 354.416 204.32 355.31 204.8C356.203 205.267 356.903 205.92 357.41 206.76C357.916 207.6 358.17 208.553 358.17 209.62C358.17 210.687 357.916 211.64 357.41 212.48C356.903 213.32 356.203 213.98 355.31 214.46C354.416 214.927 353.403 215.16 352.27 215.16ZM352.27 212.6C353.07 212.6 353.723 212.333 354.23 211.8C354.75 211.253 355.01 210.527 355.01 209.62C355.01 208.713 354.75 207.993 354.23 207.46C353.723 206.913 353.07 206.64 352.27 206.64C351.47 206.64 350.81 206.913 350.29 207.46C349.77 207.993 349.51 208.713 349.51 209.62C349.51 210.527 349.77 211.253 350.29 211.8C350.81 212.333 351.47 212.6 352.27 212.6ZM365.475 215.16C364.342 215.16 363.322 214.927 362.415 214.46C361.522 213.98 360.822 213.32 360.315 212.48C359.809 211.64 359.555 210.687 359.555 209.62C359.555 208.553 359.809 207.6 360.315 206.76C360.822 205.92 361.522 205.267 362.415 204.8C363.322 204.32 364.342 204.08 365.475 204.08C366.609 204.08 367.622 204.32 368.515 204.8C369.409 205.267 370.109 205.92 370.615 206.76C371.122 207.6 371.375 208.553 371.375 209.62C371.375 210.687 371.122 211.64 370.615 212.48C370.109 213.32 369.409 213.98 368.515 214.46C367.622 214.927 366.609 215.16 365.475 215.16ZM365.475 212.6C366.275 212.6 366.929 212.333 367.435 211.8C367.955 211.253 368.215 210.527 368.215 209.62C368.215 208.713 367.955 207.993 367.435 207.46C366.929 206.913 366.275 206.64 365.475 206.64C364.675 206.64 364.015 206.913 363.495 207.46C362.975 207.993 362.715 208.713 362.715 209.62C362.715 210.527 362.975 211.253 363.495 211.8C364.015 212.333 364.675 212.6 365.475 212.6ZM387.341 204.08C388.687 204.08 389.754 204.48 390.541 205.28C391.341 206.067 391.741 207.253 391.741 208.84V215H388.621V209.32C388.621 208.467 388.441 207.833 388.081 207.42C387.734 206.993 387.234 206.78 386.581 206.78C385.847 206.78 385.267 207.02 384.841 207.5C384.414 207.967 384.201 208.667 384.201 209.6V215H381.081V209.32C381.081 207.627 380.401 206.78 379.041 206.78C378.321 206.78 377.747 207.02 377.321 207.5C376.894 207.967 376.681 208.667 376.681 209.6V215H373.561V204.24H376.541V205.48C376.941 205.027 377.427 204.68 378.001 204.44C378.587 204.2 379.227 204.08 379.921 204.08C380.681 204.08 381.367 204.233 381.981 204.54C382.594 204.833 383.087 205.267 383.461 205.84C383.901 205.28 384.454 204.847 385.121 204.54C385.801 204.233 386.541 204.08 387.341 204.08Z" fill="#E5F0F4"/>
<path d="M477.311 175C478.551 175 479.624 175.207 480.531 175.62C481.451 176.033 482.158 176.62 482.651 177.38C483.144 178.14 483.391 179.04 483.391 180.08C483.391 181.107 483.144 182.007 482.651 182.78C482.158 183.54 481.451 184.127 480.531 184.54C479.624 184.94 478.551 185.14 477.311 185.14H474.491V189H471.251V175H477.311ZM477.131 182.5C478.104 182.5 478.844 182.293 479.351 181.88C479.858 181.453 480.111 180.853 480.111 180.08C480.111 179.293 479.858 178.693 479.351 178.28C478.844 177.853 478.104 177.64 477.131 177.64H474.491V182.5H477.131ZM485.584 178.24H488.704V189H485.584V178.24ZM487.144 176.74C486.571 176.74 486.104 176.573 485.744 176.24C485.384 175.907 485.204 175.493 485.204 175C485.204 174.507 485.384 174.093 485.744 173.76C486.104 173.427 486.571 173.26 487.144 173.26C487.717 173.26 488.184 173.42 488.544 173.74C488.904 174.06 489.084 174.46 489.084 174.94C489.084 175.46 488.904 175.893 488.544 176.24C488.184 176.573 487.717 176.74 487.144 176.74ZM498.24 178.08C499.573 178.08 500.646 178.48 501.46 179.28C502.286 180.08 502.7 181.267 502.7 182.84V189H499.58V183.32C499.58 182.467 499.393 181.833 499.02 181.42C498.646 180.993 498.106 180.78 497.4 180.78C496.613 180.78 495.986 181.027 495.52 181.52C495.053 182 494.82 182.72 494.82 183.68V189H491.7V178.24H494.68V179.5C495.093 179.047 495.606 178.7 496.22 178.46C496.833 178.207 497.506 178.08 498.24 178.08ZM516.845 178.24V187.2C516.845 189.173 516.332 190.64 515.305 191.6C514.278 192.56 512.778 193.04 510.805 193.04C509.765 193.04 508.778 192.913 507.845 192.66C506.912 192.407 506.138 192.04 505.525 191.56L506.765 189.32C507.218 189.693 507.792 189.987 508.485 190.2C509.178 190.427 509.872 190.54 510.565 190.54C511.645 190.54 512.438 190.293 512.945 189.8C513.465 189.32 513.725 188.587 513.725 187.6V187.14C512.912 188.033 511.778 188.48 510.325 188.48C509.338 188.48 508.432 188.267 507.605 187.84C506.792 187.4 506.145 186.787 505.665 186C505.185 185.213 504.945 184.307 504.945 183.28C504.945 182.253 505.185 181.347 505.665 180.56C506.145 179.773 506.792 179.167 507.605 178.74C508.432 178.3 509.338 178.08 510.325 178.08C511.885 178.08 513.072 178.593 513.885 179.62V178.24H516.845ZM510.945 185.92C511.772 185.92 512.445 185.68 512.965 185.2C513.498 184.707 513.765 184.067 513.765 183.28C513.765 182.493 513.498 181.86 512.965 181.38C512.445 180.887 511.772 180.64 510.945 180.64C510.118 180.64 509.438 180.887 508.905 181.38C508.372 181.86 508.105 182.493 508.105 183.28C508.105 184.067 508.372 184.707 508.905 185.2C509.438 185.68 510.118 185.92 510.945 185.92ZM463.149 197C464.389 197 465.462 197.207 466.369 197.62C467.289 198.033 467.995 198.62 468.489 199.38C468.982 200.14 469.229 201.04 469.229 202.08C469.229 203.107 468.982 204.007 468.489 204.78C467.995 205.54 467.289 206.127 466.369 206.54C465.462 206.94 464.389 207.14 463.149 207.14H460.329V211H457.089V197H463.149ZM462.969 204.5C463.942 204.5 464.682 204.293 465.189 203.88C465.695 203.453 465.949 202.853 465.949 202.08C465.949 201.293 465.695 200.693 465.189 200.28C464.682 199.853 463.942 199.64 462.969 199.64H460.329V204.5H462.969ZM475.664 200.08C477.331 200.08 478.611 200.48 479.504 201.28C480.397 202.067 480.844 203.26 480.844 204.86V211H477.924V209.66C477.337 210.66 476.244 211.16 474.644 211.16C473.817 211.16 473.097 211.02 472.484 210.74C471.884 210.46 471.424 210.073 471.104 209.58C470.784 209.087 470.624 208.527 470.624 207.9C470.624 206.9 470.997 206.113 471.744 205.54C472.504 204.967 473.671 204.68 475.244 204.68H477.724C477.724 204 477.517 203.48 477.104 203.12C476.691 202.747 476.071 202.56 475.244 202.56C474.671 202.56 474.104 202.653 473.544 202.84C472.997 203.013 472.531 203.253 472.144 203.56L471.024 201.38C471.611 200.967 472.311 200.647 473.124 200.42C473.951 200.193 474.797 200.08 475.664 200.08ZM475.424 209.06C475.957 209.06 476.431 208.94 476.844 208.7C477.257 208.447 477.551 208.08 477.724 207.6V206.5H475.584C474.304 206.5 473.664 206.92 473.664 207.76C473.664 208.16 473.817 208.48 474.124 208.72C474.444 208.947 474.877 209.06 475.424 209.06ZM490.708 210.48C490.401 210.707 490.021 210.88 489.568 211C489.128 211.107 488.661 211.16 488.168 211.16C486.888 211.16 485.894 210.833 485.188 210.18C484.494 209.527 484.148 208.567 484.148 207.3V202.88H482.488V200.48H484.148V197.86H487.268V200.48H489.948V202.88H487.268V207.26C487.268 207.713 487.381 208.067 487.608 208.32C487.848 208.56 488.181 208.68 488.608 208.68C489.101 208.68 489.521 208.547 489.868 208.28L490.708 210.48ZM492.559 200.24H495.679V211H492.559V200.24ZM494.119 198.74C493.546 198.74 493.079 198.573 492.719 198.24C492.359 197.907 492.179 197.493 492.179 197C492.179 196.507 492.359 196.093 492.719 195.76C493.079 195.427 493.546 195.26 494.119 195.26C494.692 195.26 495.159 195.42 495.519 195.74C495.879 196.06 496.059 196.46 496.059 196.94C496.059 197.46 495.879 197.893 495.519 198.24C495.159 198.573 494.692 198.74 494.119 198.74ZM509.215 205.66C509.215 205.7 509.195 205.98 509.155 206.5H501.015C501.161 207.167 501.508 207.693 502.055 208.08C502.601 208.467 503.281 208.66 504.095 208.66C504.655 208.66 505.148 208.58 505.575 208.42C506.015 208.247 506.421 207.98 506.795 207.62L508.455 209.42C507.441 210.58 505.961 211.16 504.015 211.16C502.801 211.16 501.728 210.927 500.795 210.46C499.861 209.98 499.141 209.32 498.635 208.48C498.128 207.64 497.875 206.687 497.875 205.62C497.875 204.567 498.121 203.62 498.615 202.78C499.121 201.927 499.808 201.267 500.675 200.8C501.555 200.32 502.535 200.08 503.615 200.08C504.668 200.08 505.621 200.307 506.475 200.76C507.328 201.213 507.995 201.867 508.475 202.72C508.968 203.56 509.215 204.54 509.215 205.66ZM503.635 202.44C502.928 202.44 502.335 202.64 501.855 203.04C501.375 203.44 501.081 203.987 500.975 204.68H506.275C506.168 204 505.875 203.46 505.395 203.06C504.915 202.647 504.328 202.44 503.635 202.44ZM517.932 200.08C519.265 200.08 520.339 200.48 521.152 201.28C521.979 202.08 522.392 203.267 522.392 204.84V211H519.272V205.32C519.272 204.467 519.085 203.833 518.712 203.42C518.339 202.993 517.799 202.78 517.092 202.78C516.305 202.78 515.679 203.027 515.212 203.52C514.745 204 514.512 204.72 514.512 205.68V211H511.392V200.24H514.372V201.5C514.785 201.047 515.299 200.7 515.912 200.46C516.525 200.207 517.199 200.08 517.932 200.08ZM532.26 210.48C531.953 210.707 531.573 210.88 531.12 211C530.68 211.107 530.213 211.16 529.72 211.16C528.44 211.16 527.447 210.833 526.74 210.18C526.047 209.527 525.7 208.567 525.7 207.3V202.88H524.04V200.48H525.7V197.86H528.82V200.48H531.5V202.88H528.82V207.26C528.82 207.713 528.933 208.067 529.16 208.32C529.4 208.56 529.733 208.68 530.16 208.68C530.653 208.68 531.073 208.547 531.42 208.28L532.26 210.48Z" fill="#E5F0F4"/>
<path d="M737.29 192.24C735.863 192.24 734.57 191.933 733.41 191.32C732.263 190.693 731.356 189.833 730.69 188.74C730.036 187.633 729.71 186.387 729.71 185C729.71 183.613 730.036 182.373 730.69 181.28C731.356 180.173 732.263 179.313 733.41 178.7C734.57 178.073 735.87 177.76 737.31 177.76C738.523 177.76 739.616 177.973 740.59 178.4C741.576 178.827 742.403 179.44 743.07 180.24L740.99 182.16C740.043 181.067 738.87 180.52 737.47 180.52C736.603 180.52 735.83 180.713 735.15 181.1C734.47 181.473 733.936 182 733.55 182.68C733.176 183.36 732.99 184.133 732.99 185C732.99 185.867 733.176 186.64 733.55 187.32C733.936 188 734.47 188.533 735.15 188.92C735.83 189.293 736.603 189.48 737.47 189.48C738.87 189.48 740.043 188.927 740.99 187.82L743.07 189.74C742.403 190.553 741.576 191.173 740.59 191.6C739.603 192.027 738.503 192.24 737.29 192.24ZM745.138 177.16H748.258V192H745.138V177.16ZM751.253 181.24H754.373V192H751.253V181.24ZM752.813 179.74C752.24 179.74 751.773 179.573 751.413 179.24C751.053 178.907 750.873 178.493 750.873 178C750.873 177.507 751.053 177.093 751.413 176.76C751.773 176.427 752.24 176.26 752.813 176.26C753.387 176.26 753.853 176.42 754.213 176.74C754.573 177.06 754.753 177.46 754.753 177.94C754.753 178.46 754.573 178.893 754.213 179.24C753.853 179.573 753.387 179.74 752.813 179.74ZM762.569 192.16C761.422 192.16 760.389 191.927 759.469 191.46C758.562 190.98 757.849 190.32 757.329 189.48C756.822 188.64 756.569 187.687 756.569 186.62C756.569 185.553 756.822 184.6 757.329 183.76C757.849 182.92 758.562 182.267 759.469 181.8C760.389 181.32 761.422 181.08 762.569 181.08C763.702 181.08 764.689 181.32 765.529 181.8C766.382 182.267 767.002 182.94 767.389 183.82L764.969 185.12C764.409 184.133 763.602 183.64 762.549 183.64C761.736 183.64 761.062 183.907 760.529 184.44C759.996 184.973 759.729 185.7 759.729 186.62C759.729 187.54 759.996 188.267 760.529 188.8C761.062 189.333 761.736 189.6 762.549 189.6C763.616 189.6 764.422 189.107 764.969 188.12L767.389 189.44C767.002 190.293 766.382 190.96 765.529 191.44C764.689 191.92 763.702 192.16 762.569 192.16ZM773.827 187.78L772.327 189.26V192H769.207V177.16H772.327V185.56L776.887 181.24H780.607L776.127 185.8L781.007 192H777.227L773.827 187.78ZM733.951 200H737.191V211.36H744.211V214H733.951V200ZM745.902 203.24H749.022V214H745.902V203.24ZM747.462 201.74C746.888 201.74 746.422 201.573 746.062 201.24C745.702 200.907 745.522 200.493 745.522 200C745.522 199.507 745.702 199.093 746.062 198.76C746.422 198.427 746.888 198.26 747.462 198.26C748.035 198.26 748.502 198.42 748.862 198.74C749.222 199.06 749.402 199.46 749.402 199.94C749.402 200.46 749.222 200.893 748.862 201.24C748.502 201.573 748.035 201.74 747.462 201.74ZM758.557 203.08C759.891 203.08 760.964 203.48 761.777 204.28C762.604 205.08 763.017 206.267 763.017 207.84V214H759.897V208.32C759.897 207.467 759.711 206.833 759.337 206.42C758.964 205.993 758.424 205.78 757.717 205.78C756.931 205.78 756.304 206.027 755.837 206.52C755.371 207 755.137 207.72 755.137 208.68V214H752.017V203.24H754.997V204.5C755.411 204.047 755.924 203.7 756.537 203.46C757.151 203.207 757.824 203.08 758.557 203.08ZM770.565 209.78L769.065 211.26V214H765.945V199.16H769.065V207.56L773.625 203.24H777.345L772.865 207.8L777.745 214H773.965L770.565 209.78Z" fill="#E5F0F4"/>
<path d="M851.424 185.78H854.384V191.46C853.624 192.033 852.744 192.473 851.744 192.78C850.744 193.087 849.737 193.24 848.724 193.24C847.27 193.24 845.964 192.933 844.804 192.32C843.644 191.693 842.73 190.833 842.064 189.74C841.41 188.633 841.084 187.387 841.084 186C841.084 184.613 841.41 183.373 842.064 182.28C842.73 181.173 843.65 180.313 844.824 179.7C845.997 179.073 847.317 178.76 848.784 178.76C850.01 178.76 851.124 178.967 852.124 179.38C853.124 179.793 853.964 180.393 854.644 181.18L852.564 183.1C851.564 182.047 850.357 181.52 848.944 181.52C848.05 181.52 847.257 181.707 846.564 182.08C845.87 182.453 845.33 182.98 844.944 183.66C844.557 184.34 844.364 185.12 844.364 186C844.364 186.867 844.557 187.64 844.944 188.32C845.33 189 845.864 189.533 846.544 189.92C847.237 190.293 848.024 190.48 848.904 190.48C849.837 190.48 850.677 190.28 851.424 189.88V185.78ZM867.813 187.66C867.813 187.7 867.793 187.98 867.753 188.5H859.613C859.76 189.167 860.107 189.693 860.653 190.08C861.2 190.467 861.88 190.66 862.693 190.66C863.253 190.66 863.747 190.58 864.173 190.42C864.613 190.247 865.02 189.98 865.393 189.62L867.053 191.42C866.04 192.58 864.56 193.16 862.613 193.16C861.4 193.16 860.327 192.927 859.393 192.46C858.46 191.98 857.74 191.32 857.233 190.48C856.727 189.64 856.473 188.687 856.473 187.62C856.473 186.567 856.72 185.62 857.213 184.78C857.72 183.927 858.407 183.267 859.273 182.8C860.153 182.32 861.133 182.08 862.213 182.08C863.267 182.08 864.22 182.307 865.073 182.76C865.927 183.213 866.593 183.867 867.073 184.72C867.567 185.56 867.813 186.54 867.813 187.66ZM862.233 184.44C861.527 184.44 860.933 184.64 860.453 185.04C859.973 185.44 859.68 185.987 859.573 186.68H864.873C864.767 186 864.473 185.46 863.993 185.06C863.513 184.647 862.927 184.44 862.233 184.44ZM876.93 192.48C876.624 192.707 876.244 192.88 875.79 193C875.35 193.107 874.884 193.16 874.39 193.16C873.11 193.16 872.117 192.833 871.41 192.18C870.717 191.527 870.37 190.567 870.37 189.3V184.88H868.71V182.48H870.37V179.86H873.49V182.48H876.17V184.88H873.49V189.26C873.49 189.713 873.604 190.067 873.83 190.32C874.07 190.56 874.404 190.68 874.83 190.68C875.324 190.68 875.744 190.547 876.09 190.28L876.93 192.48ZM884.766 179H888.006V193H884.766V179ZM897.748 182.08C899.082 182.08 900.155 182.48 900.968 183.28C901.795 184.08 902.208 185.267 902.208 186.84V193H899.088V187.32C899.088 186.467 898.902 185.833 898.528 185.42C898.155 184.993 897.615 184.78 896.908 184.78C896.122 184.78 895.495 185.027 895.028 185.52C894.562 186 894.328 186.72 894.328 187.68V193H891.208V182.24H894.188V183.5C894.602 183.047 895.115 182.7 895.728 182.46C896.342 182.207 897.015 182.08 897.748 182.08ZM851.186 201H854.426V212.36H861.446V215H851.186V201ZM863.136 204.24H866.256V215H863.136V204.24ZM864.696 202.74C864.123 202.74 863.656 202.573 863.296 202.24C862.936 201.907 862.756 201.493 862.756 201C862.756 200.507 862.936 200.093 863.296 199.76C863.656 199.427 864.123 199.26 864.696 199.26C865.269 199.26 865.736 199.42 866.096 199.74C866.456 200.06 866.636 200.46 866.636 200.94C866.636 201.46 866.456 201.893 866.096 202.24C865.736 202.573 865.269 202.74 864.696 202.74ZM875.792 204.08C877.125 204.08 878.198 204.48 879.012 205.28C879.838 206.08 880.252 207.267 880.252 208.84V215H877.132V209.32C877.132 208.467 876.945 207.833 876.572 207.42C876.198 206.993 875.658 206.78 874.952 206.78C874.165 206.78 873.538 207.027 873.072 207.52C872.605 208 872.372 208.72 872.372 209.68V215H869.252V204.24H872.232V205.5C872.645 205.047 873.158 204.7 873.772 204.46C874.385 204.207 875.058 204.08 875.792 204.08ZM893.837 209.66C893.837 209.7 893.817 209.98 893.777 210.5H885.637C885.784 211.167 886.13 211.693 886.677 212.08C887.224 212.467 887.904 212.66 888.717 212.66C889.277 212.66 889.77 212.58 890.197 212.42C890.637 212.247 891.044 211.98 891.417 211.62L893.077 213.42C892.064 214.58 890.584 215.16 888.637 215.16C887.424 215.16 886.35 214.927 885.417 214.46C884.484 213.98 883.764 213.32 883.257 212.48C882.75 211.64 882.497 210.687 882.497 209.62C882.497 208.567 882.744 207.62 883.237 206.78C883.744 205.927 884.43 205.267 885.297 204.8C886.177 204.32 887.157 204.08 888.237 204.08C889.29 204.08 890.244 204.307 891.097 204.76C891.95 205.213 892.617 205.867 893.097 206.72C893.59 207.56 893.837 208.54 893.837 209.66ZM888.257 206.44C887.55 206.44 886.957 206.64 886.477 207.04C885.997 207.44 885.704 207.987 885.597 208.68H890.897C890.79 208 890.497 207.46 890.017 207.06C889.537 206.647 888.95 206.44 888.257 206.44Z" fill="#E5F0F4"/>
<path d="M985.626 193.24C984.519 193.24 983.446 193.093 982.406 192.8C981.379 192.493 980.553 192.1 979.926 191.62L981.026 189.18C981.626 189.62 982.339 189.973 983.166 190.24C983.993 190.507 984.819 190.64 985.646 190.64C986.566 190.64 987.246 190.507 987.686 190.24C988.126 189.96 988.346 189.593 988.346 189.14C988.346 188.807 988.213 188.533 987.946 188.32C987.693 188.093 987.359 187.913 986.946 187.78C986.546 187.647 985.999 187.5 985.306 187.34C984.239 187.087 983.366 186.833 982.686 186.58C982.006 186.327 981.419 185.92 980.926 185.36C980.446 184.8 980.206 184.053 980.206 183.12C980.206 182.307 980.426 181.573 980.866 180.92C981.306 180.253 981.966 179.727 982.846 179.34C983.739 178.953 984.826 178.76 986.106 178.76C986.999 178.76 987.873 178.867 988.726 179.08C989.579 179.293 990.326 179.6 990.966 180L989.966 182.46C988.673 181.727 987.379 181.36 986.086 181.36C985.179 181.36 984.506 181.507 984.066 181.8C983.639 182.093 983.426 182.48 983.426 182.96C983.426 183.44 983.673 183.8 984.166 184.04C984.673 184.267 985.439 184.493 986.466 184.72C987.533 184.973 988.406 185.227 989.086 185.48C989.766 185.733 990.346 186.133 990.826 186.68C991.319 187.227 991.566 187.967 991.566 188.9C991.566 189.7 991.339 190.433 990.886 191.1C990.446 191.753 989.779 192.273 988.886 192.66C987.993 193.047 986.906 193.24 985.626 193.24ZM1004.2 187.66C1004.2 187.7 1004.18 187.98 1004.14 188.5H996C996.147 189.167 996.493 189.693 997.04 190.08C997.587 190.467 998.267 190.66 999.08 190.66C999.64 190.66 1000.13 190.58 1000.56 190.42C1001 190.247 1001.41 189.98 1001.78 189.62L1003.44 191.42C1002.43 192.58 1000.95 193.16 999 193.16C997.787 193.16 996.713 192.927 995.78 192.46C994.847 191.98 994.127 191.32 993.62 190.48C993.113 189.64 992.86 188.687 992.86 187.62C992.86 186.567 993.107 185.62 993.6 184.78C994.107 183.927 994.793 183.267 995.66 182.8C996.54 182.32 997.52 182.08 998.6 182.08C999.653 182.08 1000.61 182.307 1001.46 182.76C1002.31 183.213 1002.98 183.867 1003.46 184.72C1003.95 185.56 1004.2 186.54 1004.2 187.66ZM998.62 184.44C997.913 184.44 997.32 184.64 996.84 185.04C996.36 185.44 996.067 185.987 995.96 186.68H1001.26C1001.15 186 1000.86 185.46 1000.38 185.06C999.9 184.647 999.313 184.44 998.62 184.44ZM1006.38 178.16H1009.5V193H1006.38V178.16ZM1023.03 187.66C1023.03 187.7 1023.01 187.98 1022.97 188.5H1014.83C1014.98 189.167 1015.33 189.693 1015.87 190.08C1016.42 190.467 1017.1 190.66 1017.91 190.66C1018.47 190.66 1018.97 190.58 1019.39 190.42C1019.83 190.247 1020.24 189.98 1020.61 189.62L1022.27 191.42C1021.26 192.58 1019.78 193.16 1017.83 193.16C1016.62 193.16 1015.55 192.927 1014.61 192.46C1013.68 191.98 1012.96 191.32 1012.45 190.48C1011.95 189.64 1011.69 188.687 1011.69 187.62C1011.69 186.567 1011.94 185.62 1012.43 184.78C1012.94 183.927 1013.63 183.267 1014.49 182.8C1015.37 182.32 1016.35 182.08 1017.43 182.08C1018.49 182.08 1019.44 182.307 1020.29 182.76C1021.15 183.213 1021.81 183.867 1022.29 184.72C1022.79 185.56 1023.03 186.54 1023.03 187.66ZM1017.45 184.44C1016.75 184.44 1016.15 184.64 1015.67 185.04C1015.19 185.44 1014.9 185.987 1014.79 186.68H1020.09C1019.99 186 1019.69 185.46 1019.21 185.06C1018.73 184.647 1018.15 184.44 1017.45 184.44ZM1030.41 193.16C1029.26 193.16 1028.23 192.927 1027.31 192.46C1026.4 191.98 1025.69 191.32 1025.17 190.48C1024.66 189.64 1024.41 188.687 1024.41 187.62C1024.41 186.553 1024.66 185.6 1025.17 184.76C1025.69 183.92 1026.4 183.267 1027.31 182.8C1028.23 182.32 1029.26 182.08 1030.41 182.08C1031.54 182.08 1032.53 182.32 1033.37 182.8C1034.22 183.267 1034.84 183.94 1035.23 184.82L1032.81 186.12C1032.25 185.133 1031.44 184.64 1030.39 184.64C1029.58 184.64 1028.9 184.907 1028.37 185.44C1027.84 185.973 1027.57 186.7 1027.57 187.62C1027.57 188.54 1027.84 189.267 1028.37 189.8C1028.9 190.333 1029.58 190.6 1030.39 190.6C1031.46 190.6 1032.26 190.107 1032.81 189.12L1035.23 190.44C1034.84 191.293 1034.22 191.96 1033.37 192.44C1032.53 192.92 1031.54 193.16 1030.41 193.16ZM1044.22 192.48C1043.92 192.707 1043.54 192.88 1043.08 193C1042.64 193.107 1042.18 193.16 1041.68 193.16C1040.4 193.16 1039.41 192.833 1038.7 192.18C1038.01 191.527 1037.66 190.567 1037.66 189.3V184.88H1036V182.48H1037.66V179.86H1040.78V182.48H1043.46V184.88H1040.78V189.26C1040.78 189.713 1040.9 190.067 1041.12 190.32C1041.36 190.56 1041.7 190.68 1042.12 190.68C1042.62 190.68 1043.04 190.547 1043.38 190.28L1044.22 192.48ZM991.483 215L988.783 211.1H988.623H985.803V215H982.563V201H988.623C989.863 201 990.936 201.207 991.843 201.62C992.763 202.033 993.469 202.62 993.963 203.38C994.456 204.14 994.703 205.04 994.703 206.08C994.703 207.12 994.449 208.02 993.943 208.78C993.449 209.527 992.743 210.1 991.823 210.5L994.963 215H991.483ZM991.423 206.08C991.423 205.293 991.169 204.693 990.663 204.28C990.156 203.853 989.416 203.64 988.443 203.64H985.803V208.52H988.443C989.416 208.52 990.156 208.307 990.663 207.88C991.169 207.453 991.423 206.853 991.423 206.08ZM1002.27 215.16C1001.14 215.16 1000.12 214.927 999.21 214.46C998.316 213.98 997.616 213.32 997.11 212.48C996.603 211.64 996.35 210.687 996.35 209.62C996.35 208.553 996.603 207.6 997.11 206.76C997.616 205.92 998.316 205.267 999.21 204.8C1000.12 204.32 1001.14 204.08 1002.27 204.08C1003.4 204.08 1004.42 204.32 1005.31 204.8C1006.2 205.267 1006.9 205.92 1007.41 206.76C1007.92 207.6 1008.17 208.553 1008.17 209.62C1008.17 210.687 1007.92 211.64 1007.41 212.48C1006.9 213.32 1006.2 213.98 1005.31 214.46C1004.42 214.927 1003.4 215.16 1002.27 215.16ZM1002.27 212.6C1003.07 212.6 1003.72 212.333 1004.23 211.8C1004.75 211.253 1005.01 210.527 1005.01 209.62C1005.01 208.713 1004.75 207.993 1004.23 207.46C1003.72 206.913 1003.07 206.64 1002.27 206.64C1001.47 206.64 1000.81 206.913 1000.29 207.46C999.77 207.993 999.51 208.713 999.51 209.62C999.51 210.527 999.77 211.253 1000.29 211.8C1000.81 212.333 1001.47 212.6 1002.27 212.6ZM1015.48 215.16C1014.34 215.16 1013.32 214.927 1012.42 214.46C1011.52 213.98 1010.82 213.32 1010.32 212.48C1009.81 211.64 1009.56 210.687 1009.56 209.62C1009.56 208.553 1009.81 207.6 1010.32 206.76C1010.82 205.92 1011.52 205.267 1012.42 204.8C1013.32 204.32 1014.34 204.08 1015.48 204.08C1016.61 204.08 1017.62 204.32 1018.52 204.8C1019.41 205.267 1020.11 205.92 1020.62 206.76C1021.12 207.6 1021.38 208.553 1021.38 209.62C1021.38 210.687 1021.12 211.64 1020.62 212.48C1020.11 213.32 1019.41 213.98 1018.52 214.46C1017.62 214.927 1016.61 215.16 1015.48 215.16ZM1015.48 212.6C1016.28 212.6 1016.93 212.333 1017.44 211.8C1017.96 211.253 1018.22 210.527 1018.22 209.62C1018.22 208.713 1017.96 207.993 1017.44 207.46C1016.93 206.913 1016.28 206.64 1015.48 206.64C1014.68 206.64 1014.02 206.913 1013.5 207.46C1012.98 207.993 1012.72 208.713 1012.72 209.62C1012.72 210.527 1012.98 211.253 1013.5 211.8C1014.02 212.333 1014.68 212.6 1015.48 212.6ZM1037.34 204.08C1038.69 204.08 1039.75 204.48 1040.54 205.28C1041.34 206.067 1041.74 207.253 1041.74 208.84V215H1038.62V209.32C1038.62 208.467 1038.44 207.833 1038.08 207.42C1037.73 206.993 1037.23 206.78 1036.58 206.78C1035.85 206.78 1035.27 207.02 1034.84 207.5C1034.41 207.967 1034.2 208.667 1034.2 209.6V215H1031.08V209.32C1031.08 207.627 1030.4 206.78 1029.04 206.78C1028.32 206.78 1027.75 207.02 1027.32 207.5C1026.89 207.967 1026.68 208.667 1026.68 209.6V215H1023.56V204.24H1026.54V205.48C1026.94 205.027 1027.43 204.68 1028 204.44C1028.59 204.2 1029.23 204.08 1029.92 204.08C1030.68 204.08 1031.37 204.233 1031.98 204.54C1032.59 204.833 1033.09 205.267 1033.46 205.84C1033.9 205.28 1034.45 204.847 1035.12 204.54C1035.8 204.233 1036.54 204.08 1037.34 204.08Z" fill="#E5F0F4"/>
<path d="M1105.13 186C1106.99 186 1108.6 186.31 1109.96 186.93C1111.34 187.55 1112.4 188.43 1113.14 189.57C1113.88 190.71 1114.25 192.06 1114.25 193.62C1114.25 195.16 1113.88 196.51 1113.14 197.67C1112.4 198.81 1111.34 199.69 1109.96 200.31C1108.6 200.91 1106.99 201.21 1105.13 201.21H1100.9V207H1096.04V186H1105.13ZM1104.86 197.25C1106.32 197.25 1107.43 196.94 1108.19 196.32C1108.95 195.68 1109.33 194.78 1109.33 193.62C1109.33 192.44 1108.95 191.54 1108.19 190.92C1107.43 190.28 1106.32 189.96 1104.86 189.96H1100.9V197.25H1104.86ZM1123.85 190.62C1126.35 190.62 1128.27 191.22 1129.61 192.42C1130.95 193.6 1131.62 195.39 1131.62 197.79V207H1127.24V204.99C1126.36 206.49 1124.72 207.24 1122.32 207.24C1121.08 207.24 1120 207.03 1119.08 206.61C1118.18 206.19 1117.49 205.61 1117.01 204.87C1116.53 204.13 1116.29 203.29 1116.29 202.35C1116.29 200.85 1116.85 199.67 1117.97 198.81C1119.11 197.95 1120.86 197.52 1123.22 197.52H1126.94C1126.94 196.5 1126.63 195.72 1126.01 195.18C1125.39 194.62 1124.46 194.34 1123.22 194.34C1122.36 194.34 1121.51 194.48 1120.67 194.76C1119.85 195.02 1119.15 195.38 1118.57 195.84L1116.89 192.57C1117.77 191.95 1118.82 191.47 1120.04 191.13C1121.28 190.79 1122.55 190.62 1123.85 190.62ZM1123.49 204.09C1124.29 204.09 1125 203.91 1125.62 203.55C1126.24 203.17 1126.68 202.62 1126.94 201.9V200.25H1123.73C1121.81 200.25 1120.85 200.88 1120.85 202.14C1120.85 202.74 1121.08 203.22 1121.54 203.58C1122.02 203.92 1122.67 204.09 1123.49 204.09ZM1146.36 206.22C1145.9 206.56 1145.33 206.82 1144.65 207C1143.99 207.16 1143.29 207.24 1142.55 207.24C1140.63 207.24 1139.14 206.75 1138.08 205.77C1137.04 204.79 1136.52 203.35 1136.52 201.45V194.82H1134.03V191.22H1136.52V187.29H1141.2V191.22H1145.22V194.82H1141.2V201.39C1141.2 202.07 1141.37 202.6 1141.71 202.98C1142.07 203.34 1142.57 203.52 1143.21 203.52C1143.95 203.52 1144.58 203.32 1145.1 202.92L1146.36 206.22ZM1149.09 190.86H1153.77V207H1149.09V190.86ZM1151.43 188.61C1150.57 188.61 1149.87 188.36 1149.33 187.86C1148.79 187.36 1148.52 186.74 1148.52 186C1148.52 185.26 1148.79 184.64 1149.33 184.14C1149.87 183.64 1150.57 183.39 1151.43 183.39C1152.29 183.39 1152.99 183.63 1153.53 184.11C1154.07 184.59 1154.34 185.19 1154.34 185.91C1154.34 186.69 1154.07 187.34 1153.53 187.86C1152.99 188.36 1152.29 188.61 1151.43 188.61ZM1174.03 198.99C1174.03 199.05 1174 199.47 1173.94 200.25H1161.73C1161.95 201.25 1162.47 202.04 1163.29 202.62C1164.11 203.2 1165.13 203.49 1166.35 203.49C1167.19 203.49 1167.93 203.37 1168.57 203.13C1169.23 202.87 1169.84 202.47 1170.4 201.93L1172.89 204.63C1171.37 206.37 1169.15 207.24 1166.23 207.24C1164.41 207.24 1162.8 206.89 1161.4 206.19C1160 205.47 1158.92 204.48 1158.16 203.22C1157.4 201.96 1157.02 200.53 1157.02 198.93C1157.02 197.35 1157.39 195.93 1158.13 194.67C1158.89 193.39 1159.92 192.4 1161.22 191.7C1162.54 190.98 1164.01 190.62 1165.63 190.62C1167.21 190.62 1168.64 190.96 1169.92 191.64C1171.2 192.32 1172.2 193.3 1172.92 194.58C1173.66 195.84 1174.03 197.31 1174.03 198.99ZM1165.66 194.16C1164.6 194.16 1163.71 194.46 1162.99 195.06C1162.27 195.66 1161.83 196.48 1161.67 197.52H1169.62C1169.46 196.5 1169.02 195.69 1168.3 195.09C1167.58 194.47 1166.7 194.16 1165.66 194.16ZM1187.05 190.62C1189.05 190.62 1190.66 191.22 1191.88 192.42C1193.12 193.62 1193.74 195.4 1193.74 197.76V207H1189.06V198.48C1189.06 197.2 1188.78 196.25 1188.22 195.63C1187.66 194.99 1186.85 194.67 1185.79 194.67C1184.61 194.67 1183.67 195.04 1182.97 195.78C1182.27 196.5 1181.92 197.58 1181.92 199.02V207H1177.24V190.86H1181.71V192.75C1182.33 192.07 1183.1 191.55 1184.02 191.19C1184.94 190.81 1185.95 190.62 1187.05 190.62ZM1208.49 206.22C1208.03 206.56 1207.46 206.82 1206.78 207C1206.12 207.16 1205.42 207.24 1204.68 207.24C1202.76 207.24 1201.27 206.75 1200.21 205.77C1199.17 204.79 1198.65 203.35 1198.65 201.45V194.82H1196.16V191.22H1198.65V187.29H1203.33V191.22H1207.35V194.82H1203.33V201.39C1203.33 202.07 1203.5 202.6 1203.84 202.98C1204.2 203.34 1204.7 203.52 1205.34 203.52C1206.08 203.52 1206.71 203.32 1207.23 202.92L1208.49 206.22Z" fill="#E5F0F4"/>
<defs>
<filter id="filter0_bf" x="422" y="0" width="408" height="408" filterUnits="userSpaceOnUse" color-interpolation-filters="sRGB">
<feFlood flood-opacity="0" result="BackgroundImageFix"/>
<feGaussianBlur in="BackgroundImage" stdDeviation="2"/>
<feComposite in2="SourceAlpha" operator="in" result="effect1_backgroundBlur"/>
<feBlend mode="normal" in="SourceGraphic" in2="effect1_backgroundBlur" result="shape"/>
<feGaussianBlur stdDeviation="2" result="effect2_foregroundBlur"/>
</filter>
<filter id="filter1_df" x="437.642" y="18" width="369.756" height="373.76" filterUnits="userSpaceOnUse" color-interpolation-filters="sRGB">
<feFlood flood-opacity="0" result="BackgroundImageFix"/>
<feColorMatrix in="SourceAlpha" type="matrix" values="0 0 0 0 0 0 0 0 0 0 0 0 0 0 0 0 0 0 127 0"/>
<feOffset dy="4"/>
<feGaussianBlur stdDeviation="2"/>
<feColorMatrix type="matrix" values="0 0 0 0 0 0 0 0 0 0 0 0 0 0 0 0 0 0 0.25 0"/>
<feBlend mode="normal" in2="BackgroundImageFix" result="effect1_dropShadow"/>
<feBlend mode="normal" in="SourceGraphic" in2="effect1_dropShadow" result="shape"/>
<feGaussianBlur stdDeviation="2" result="effect2_foregroundBlur"/>
</filter>
<filter id="filter2_d" x="126.823" y="119" width="191.997" height="163" filterUnits="userSpaceOnUse" color-interpolation-filters="sRGB">
<feFlood flood-opacity="0" result="BackgroundImageFix"/>
<feColorMatrix in="SourceAlpha" type="matrix" values="0 0 0 0 0 0 0 0 0 0 0 0 0 0 0 0 0 0 127 0"/>
<feOffset dy="4"/>
<feGaussianBlur stdDeviation="2"/>
<feColorMatrix type="matrix" values="0 0 0 0 0 0 0 0 0 0 0 0 0 0 0 0 0 0 0.25 0"/>
<feBlend mode="normal" in2="BackgroundImageFix" result="effect1_dropShadow"/>
<feBlend mode="normal" in="SourceGraphic" in2="effect1_dropShadow" result="shape"/>
</filter>
<filter id="filter3_d" x="925.181" y="119" width="193.036" height="163" filterUnits="userSpaceOnUse" color-interpolation-filters="sRGB">
<feFlood flood-opacity="0" result="BackgroundImageFix"/>
<feColorMatrix in="SourceAlpha" type="matrix" values="0 0 0 0 0 0 0 0 0 0 0 0 0 0 0 0 0 0 127 0"/>
<feOffset dy="4"/>
<feGaussianBlur stdDeviation="2"/>
<feColorMatrix type="matrix" values="0 0 0 0 0 0 0 0 0 0 0 0 0 0 0 0 0 0 0.25 0"/>
<feBlend mode="normal" in2="BackgroundImageFix" result="effect1_dropShadow"/>
<feBlend mode="normal" in="SourceGraphic" in2="effect1_dropShadow" result="shape"/>
</filter>
<filter id="filter4_d" x="252.606" y="119" width="193.036" height="163" filterUnits="userSpaceOnUse" color-interpolation-filters="sRGB">
<feFlood flood-opacity="0" result="BackgroundImageFix"/>
<feColorMatrix in="SourceAlpha" type="matrix" values="0 0 0 0 0 0 0 0 0 0 0 0 0 0 0 0 0 0 127 0"/>
<feOffset dy="4"/>
<feGaussianBlur stdDeviation="2"/>
<feColorMatrix type="matrix" values="0 0 0 0 0 0 0 0 0 0 0 0 0 0 0 0 0 0 0.25 0"/>
<feBlend mode="normal" in2="BackgroundImageFix" result="effect1_dropShadow"/>
<feBlend mode="normal" in="SourceGraphic" in2="effect1_dropShadow" result="shape"/>
</filter>
<filter id="filter5_d" x="799.398" y="119" width="192.516" height="163" filterUnits="userSpaceOnUse" color-interpolation-filters="sRGB">
<feFlood flood-opacity="0" result="BackgroundImageFix"/>
<feColorMatrix in="SourceAlpha" type="matrix" values="0 0 0 0 0 0 0 0 0 0 0 0 0 0 0 0 0 0 127 0"/>
<feOffset dy="4"/>
<feGaussianBlur stdDeviation="2"/>
<feColorMatrix type="matrix" values="0 0 0 0 0 0 0 0 0 0 0 0 0 0 0 0 0 0 0.25 0"/>
<feBlend mode="normal" in2="BackgroundImageFix" result="effect1_dropShadow"/>
<feBlend mode="normal" in="SourceGraphic" in2="effect1_dropShadow" result="shape"/>
</filter>
<filter id="filter6_d" x="380.468" y="119" width="187.839" height="163" filterUnits="userSpaceOnUse" color-interpolation-filters="sRGB">
<feFlood flood-opacity="0" result="BackgroundImageFix"/>
<feColorMatrix in="SourceAlpha" type="matrix" values="0 0 0 0 0 0 0 0 0 0 0 0 0 0 0 0 0 0 127 0"/>
<feOffset dy="4"/>
<feGaussianBlur stdDeviation="2"/>
<feColorMatrix type="matrix" values="0 0 0 0 0 0 0 0 0 0 0 0 0 0 0 0 0 0 0.25 0"/>
<feBlend mode="normal" in2="BackgroundImageFix" result="effect1_dropShadow"/>
<feBlend mode="normal" in="SourceGraphic" in2="effect1_dropShadow" result="shape"/>
</filter>
<filter id="filter7_d" x="678.812" y="119" width="185.759" height="163" filterUnits="userSpaceOnUse" color-interpolation-filters="sRGB">
<feFlood flood-opacity="0" result="BackgroundImageFix"/>
<feColorMatrix in="SourceAlpha" type="matrix" values="0 0 0 0 0 0 0 0 0 0 0 0 0 0 0 0 0 0 127 0"/>
<feOffset dy="4"/>
<feGaussianBlur stdDeviation="2"/>
<feColorMatrix type="matrix" values="0 0 0 0 0 0 0 0 0 0 0 0 0 0 0 0 0 0 0.25 0"/>
<feBlend mode="normal" in2="BackgroundImageFix" result="effect1_dropShadow"/>
<feBlend mode="normal" in="SourceGraphic" in2="effect1_dropShadow" result="shape"/>
</filter>
<filter id="filter8_d" x="0" y="119" width="191.997" height="163" filterUnits="userSpaceOnUse" color-interpolation-filters="sRGB">
<feFlood flood-opacity="0" result="BackgroundImageFix"/>
<feColorMatrix in="SourceAlpha" type="matrix" values="0 0 0 0 0 0 0 0 0 0 0 0 0 0 0 0 0 0 127 0"/>
<feOffset dy="4"/>
<feGaussianBlur stdDeviation="2"/>
<feColorMatrix type="matrix" values="0 0 0 0 0 0 0 0 0 0 0 0 0 0 0 0 0 0 0.25 0"/>
<feBlend mode="normal" in2="BackgroundImageFix" result="effect1_dropShadow"/>
<feBlend mode="normal" in="SourceGraphic" in2="effect1_dropShadow" result="shape"/>
</filter>
<filter id="filter9_d" x="1053.04" y="119" width="190.957" height="163" filterUnits="userSpaceOnUse" color-interpolation-filters="sRGB">
<feFlood flood-opacity="0" result="BackgroundImageFix"/>
<feColorMatrix in="SourceAlpha" type="matrix" values="0 0 0 0 0 0 0 0 0 0 0 0 0 0 0 0 0 0 127 0"/>
<feOffset dy="4"/>
<feGaussianBlur stdDeviation="2"/>
<feColorMatrix type="matrix" values="0 0 0 0 0 0 0 0 0 0 0 0 0 0 0 0 0 0 0.25 0"/>
<feBlend mode="normal" in2="BackgroundImageFix" result="effect1_dropShadow"/>
<feBlend mode="normal" in="SourceGraphic" in2="effect1_dropShadow" result="shape"/>
</filter>
</defs>
</svg>
